<?xml version="1.0" standalone="no"?>
<!DOCTYPE svg PUBLIC "-//W3C//DTD SVG 1.1//EN" "http://www.w3.org/Graphics/SVG/1.1/DTD/svg11.dtd" >
<svg xmlns="http://www.w3.org/2000/svg" xmlns:xlink="http://www.w3.org/1999/xlink" version="1.1">
<metadata>
Created by FontForge 20200427 at Wed Apr 25 21:59:10 2012
 By www
Copyright 1997, 2007 International Typeface Corporation. All rights reserved.
</metadata>
<defs>
<font id="ConduitITCW02-Bold" horiz-adv-x="527" >
  <font-face 
    font-family="ConduitITCW02-Bold"
    font-weight="400"
    font-stretch="normal"
    units-per-em="1000"
    panose-1="2 0 8 6 3 0 0 2 0 4"
    ascent="708"
    descent="-292"
    x-height="457"
    cap-height="630"
    bbox="-72 -251 864 892"
    underline-thickness="86"
    underline-position="-112"
    unicode-range="U+000D-FB02"
  />
<missing-glyph horiz-adv-x="0" 
 />
    <glyph glyph-name=".notdef" horiz-adv-x="0" 
 />
    <glyph glyph-name="glyph1" horiz-adv-x="0" 
 />
    <glyph glyph-name="uni000D" unicode="&#xd;" horiz-adv-x="0" 
 />
    <glyph glyph-name="space" unicode=" " horiz-adv-x="177" 
 />
    <glyph glyph-name="exclam" unicode="!" horiz-adv-x="306" 
d="M129 172q-9 0 -10 9l-23 178v261q0 10 10 10h94q10 0 10 -10v-261l-21 -178q-2 -9 -10 -9h-50zM220 57q0 -27 -20 -47t-47 -20t-47 20t-20 47t20 47t47 20t47 -20t20 -47z" />
    <glyph glyph-name="quotedbl" unicode="&#x22;" horiz-adv-x="316" 
d="M201 430q-9 0 -10 9l-20 150q-2 9 -3 18t-1 14q0 9 10 9h96q10 0 10 -9q0 -4 -1 -13t-3 -20l-19 -149q-2 -9 -10 -9h-49zM67 430q-9 0 -10 9l-20 150q-2 9 -3 18t-1 14q0 9 10 9h96q10 0 10 -9q0 -4 -1 -13t-3 -20l-19 -149q-2 -9 -10 -9h-49z" />
    <glyph glyph-name="numbersign" unicode="#" horiz-adv-x="556" 
d="M70 0q-10 0 -10 9q0 5 1 9t3 9l35 122q1 3 2 7t1 8q0 8 -10 8h-57q-7 0 -7 6q0 3 1.5 8.5t2.5 9.5l19 71q3 10 12 10h64q8 0 10 8l13 45q1 4 2.5 8t1.5 7q0 8 -11 8h-64q-7 0 -7 6q0 5 1 9t3 9l19 71q3 10 12 10h73q8 0 10 8l44 157q1 7 10 7h60q11 0 11 -9q0 -3 -1 -6.5
t-3 -8.5l-34 -121q-2 -5 -3 -9.5t-1 -8.5q0 -9 10 -9h77q8 0 10 8l46 157q1 7 10 7h60q11 0 11 -9q0 -2 -1 -6t-3 -9l-34 -121q-2 -5 -3 -10t-1 -8q0 -9 10 -9h57q8 0 8 -6q0 -2 -1 -6.5t-2 -8.5l-20 -74q-3 -10 -13 -10h-65q-9 0 -10 -6l-12 -43q-2 -5 -3 -9.5t-1 -8.5
q0 -9 10 -9h65q8 0 8 -6q0 -3 -1 -7.5t-2 -7.5l-20 -74q-3 -10 -13 -10h-72q-9 0 -10 -6l-46 -159q-1 -7 -10 -7h-59q-10 0 -10 9q0 5 1.5 9.5t2.5 8.5l33 122l2 8t1 7q0 8 -10 8h-78q-9 0 -10 -6l-45 -159q-1 -7 -10 -7h-60zM309 277q8 0 10 8l13 45q4 10 4 15q0 8 -11 8
h-77q-9 0 -10 -6l-12 -43q-2 -5 -3.5 -10.5t-1.5 -7.5q0 -9 11 -9h77z" />
    <glyph glyph-name="dollar" unicode="$" horiz-adv-x="507" 
d="M236 -57q-10 0 -10 10v27q0 10 -10 10q-55 2 -87.5 21t-53.5 48q-12 17 -19 31t-7 19t6 8l76 38q5 2 8.5 4t6.5 2q5 0 8 -6q13 -33 32 -47q8 -6 16.5 -9t13.5 -3q10 0 10 10v157q0 6 -6 9q-29 13 -60 29t-56.5 38t-42 52t-16.5 72q0 74 45 123t126 54q10 0 10 10v27
q0 10 10 10h52q10 0 10 -10v-29q0 -9 8 -10q48 -5 78 -24t50 -48q11 -15 17.5 -27t6.5 -17t-6 -8l-71 -35q-5 -3 -11.5 -6t-9.5 -3q-5 0 -8 6q-12 26 -25 39q-5 5 -11.5 9t-9.5 4q-8 0 -8 -11v-141q0 -6 5 -8q28 -14 57.5 -30.5t53.5 -39.5t39 -55t15 -76
q0 -74 -43.5 -121.5t-118.5 -54.5q-8 -1 -8 -10v-28q0 -10 -10 -10h-52zM226 523q0 11 -9 11q-5 0 -13 -4t-16 -9q-29 -21 -29 -58q0 -14 7 -24.5t20 -19.5q8 -5 17.5 -11t14.5 -6q8 0 8 11v110zM298 111q0 -11 8 -11q4 0 11.5 5t13.5 10q23 21 23 52q0 16 -7 28t-18 22
q-15 13 -23 13t-8 -11v-108z" />
    <glyph glyph-name="percent" unicode="%" horiz-adv-x="547" 
d="M46 532q0 42 27 70t73 28q47 0 74 -26.5t27 -68.5v-96q0 -42 -27 -68.5t-74 -26.5q-46 0 -73 26.5t-27 68.5v93zM117 0q-10 0 -10 8q0 5 13 34l249 582q3 6 9 6h53q10 0 10 -8q0 -4 -3 -10.5t-10 -23.5l-249 -582q-3 -6 -9 -6h-53zM301 191q0 42 27 68.5t73 26.5
t73 -26.5t27 -68.5v-96q0 -42 -27 -68.5t-73 -26.5t-73 26.5t-27 68.5v96zM166 535q0 8 -6 13.5t-14 5.5q-19 0 -19 -19v-96q0 -19 19 -19q8 0 14 5.5t6 13.5v96zM420 191q0 19 -19 19t-19 -19v-96q0 -19 19 -19t19 19v96z" />
    <glyph glyph-name="ampersand" unicode="&#x26;" horiz-adv-x="612" 
d="M239 -10q-86 0 -136 49.5t-50 135.5v24q0 30 14.5 59.5t35.5 49.5l6 6t3 6q0 2 -3 5.5t-6 6.5q-23 23 -36.5 52t-13.5 67q0 86 49.5 137.5t136.5 51.5q86 0 136 -50.5t50 -136.5v-19q0 -40 -20 -73t-55 -50q-6 -3 -6 -8q0 -3 7 -8q10 -8 23 -22q4 -4 8 -4q6 0 9 7
q20 45 62.5 70.5t102.5 25.5h31q10 0 10 -10v-94q0 -10 -10 -10h-39q-30 0 -46 -20t-26 -49l-4 -12q-3 -7 3 -13q23 -22 52 -38t61 -20q9 -2 9 -10v-96q0 -10 -10 -10q-37 0 -79 13.5t-75 40.5q-3 3 -7 6t-7 3t-5 -2.5t-5 -5.5q-22 -24 -56 -39.5t-85 -15.5h-29zM311 463
q0 29 -21.5 50.5t-50.5 21.5q-31 0 -51.5 -21.5t-20.5 -50.5t18 -48.5t43 -36.5q5 -3 8.5 -5.5t7.5 -2.5t8.5 1.5t8.5 3.5q23 9 36.5 27.5t13.5 41.5v19zM268 95q18 0 33 7.5t26 21.5q4 5 7 9.5t3 6.5q0 4 -3 7.5t-7 8.5q-14 17 -30 33.5t-35 31.5q-10 8 -21 14.5t-22 14.5
q-11 7 -14 7q-6 0 -14 -8q-11 -10 -17.5 -24t-6.5 -29v-29q0 -32 21.5 -52t50.5 -20h29z" />
    <glyph glyph-name="quotesingle" unicode="'" horiz-adv-x="182" 
d="M67 430q-9 0 -10 9l-20 150q-2 9 -3 18t-1 14q0 9 10 9h96q10 0 10 -9q0 -4 -1 -13t-3 -20l-19 -149q-2 -9 -10 -9h-49z" />
    <glyph glyph-name="parenleft" unicode="(" horiz-adv-x="394" 
d="M312 -162q0 -10 -10 -10q-11 0 -34 3.5t-43 11.5q-57 20 -85 64.5t-28 106.5v525q0 60 26.5 103.5t78.5 64.5q24 10 47.5 14t37.5 4q10 0 10 -10v-86q0 -10 -9 -10q-39 -3 -58 -23t-19 -47v-544q0 -27 19 -47.5t58 -23.5q9 0 9 -10v-86z" />
    <glyph glyph-name="parenright" unicode=")" horiz-adv-x="394" 
d="M82 -76q0 10 9 10q39 3 58 23.5t19 47.5v544q0 27 -19 47t-58 23q-9 0 -9 10v86q0 10 10 10q14 0 37.5 -4t47.5 -14q52 -21 78.5 -64.5t26.5 -103.5v-525q0 -62 -28 -106.5t-85 -64.5q-20 -8 -43 -11.5t-34 -3.5q-10 0 -10 10v86z" />
    <glyph glyph-name="asterisk" unicode="*" horiz-adv-x="390" 
d="M156 331q-10 0 -10 9q0 4 1 12t2 13l6 46q2 10 2 17q0 10 -7 10q-3 0 -9 -4l-64 -50q-5 -3 -7 -3q-5 0 -8 6l-40 70q-2 4 -2 6q0 5 7 8l77 31q7 3 7 9t-7 9l-76 33q-7 3 -7 8q0 2 2 6l40 69q3 6 8 6q2 0 7 -3l63 -52q4 -3 8 -3q8 0 8 11q0 3 -1 9.5t-2 14.5l-6 43
q-2 10 -2 17q0 9 10 9h79q10 0 10 -9q0 -7 -2 -17l-6 -44q-1 -6 -2 -13t-1 -11q0 -11 8 -11q3 0 8 3l67 53q4 3 7 3q5 0 8 -6l39 -68q2 -4 2 -6q0 -5 -7 -8l-79 -34q-7 -3 -7 -9t7 -9l80 -31q7 -3 7 -8q0 -2 -2 -6l-40 -68q-3 -6 -8 -6q-4 0 -7 3l-68 49q-5 3 -9 3
q-7 0 -7 -8t2 -18l7 -49q1 -6 2 -13t1 -10q0 -9 -10 -9h-79z" />
    <glyph glyph-name="plus" unicode="+" horiz-adv-x="507" 
d="M220 29q-10 0 -10 10v151q0 10 -10 10h-151q-10 0 -10 10v66q0 10 10 10h151q10 0 10 10v152q0 10 10 10h66q10 0 10 -10v-152q0 -10 10 -10h152q10 0 10 -10v-66q0 -10 -10 -10h-152q-10 0 -10 -10v-151q0 -10 -10 -10h-66z" />
    <glyph glyph-name="comma" unicode="," horiz-adv-x="230" 
d="M40 -78q-2 5 -4 8t-2 6q0 5 6 8q20 11 29.5 30t9.5 32q0 9 -10 9h-11q-10 0 -10 10v97q0 10 10 10h114q10 0 10 -10v-73q0 -60 -19 -96t-51 -59q-14 -11 -25.5 -17t-15.5 -6q-5 0 -8 6z" />
    <glyph glyph-name="hyphen" unicode="-" horiz-adv-x="278" 
d="M49 172q-10 0 -10 10v94q0 10 10 10h180q10 0 10 -10v-94q0 -10 -10 -10h-180z" />
    <glyph glyph-name="period" unicode="." horiz-adv-x="230" 
d="M182 57q0 -27 -20 -47t-47 -20t-47 20t-20 47t20 47t47 20t47 -20t20 -47z" />
    <glyph glyph-name="slash" unicode="/" horiz-adv-x="330" 
d="M3 0q-10 0 -10 8q0 3 2 7.5t4 10.5l256 598q3 6 9 6h63q10 0 10 -8q0 -6 -5 -16l-257 -600q-3 -6 -9 -6h-63z" />
    <glyph glyph-name="zero" unicode="0" horiz-adv-x="507" 
d="M239 -10q-43 0 -77.5 13t-58.5 36.5t-37 56t-13 71.5v296q0 39 13 71.5t37 56t58.5 36.5t77.5 13h29q42 0 76.5 -13t59 -36.5t37.5 -56t13 -71.5v-296q0 -39 -13 -71.5t-37.5 -56t-59 -36.5t-76.5 -13h-29zM268 95q30 0 50.5 21t20.5 51v296q0 30 -20.5 51t-50.5 21h-29
q-29 0 -50.5 -21.5t-21.5 -50.5v-296q0 -29 21.5 -50.5t50.5 -21.5h29z" />
    <glyph glyph-name="one" unicode="1" horiz-adv-x="507" 
d="M109 0q-10 0 -10 10v85q0 10 10 10h94q10 0 10 10v293q0 11 -8 11q-5 0 -9 -4l-30 -31q-3 -4 -7 -4q-2 0 -3.5 1t-3.5 3l-62 61q-4 3 -4 7q0 2 1 3.5t3 3.5l164 165q6 6 12 6h52q10 0 10 -10v-505q0 -10 10 -10h94q10 0 10 -10v-85q0 -10 -10 -10h-323z" />
    <glyph glyph-name="two" unicode="2" horiz-adv-x="507" 
d="M77 0q-10 0 -10 10v115q0 44 13 77.5t34 60t48 46.5t54 37q22 13 43 25t37.5 25.5t26.5 29.5t10 37q0 29 -21.5 50.5t-50.5 21.5h-36q-20 0 -38.5 -13.5t-32.5 -45.5q-3 -7 -8 -7q-3 0 -6 1.5t-6 3.5l-80 41q-6 3 -6 7q0 5 6 15.5t13 21.5q23 35 59 58t99 23h36
q43 0 77.5 -13t58.5 -36.5t37 -56t13 -71.5q0 -44 -14 -76t-37 -56.5t-51.5 -43.5t-57.5 -37q-20 -12 -39 -24.5t-33.5 -27t-23.5 -32.5t-9 -41v-10q0 -10 10 -10h238q10 0 10 -10v-85q0 -10 -10 -10h-353z" />
    <glyph glyph-name="three" unicode="3" horiz-adv-x="507" 
d="M225 -10q-63 0 -99 23t-59 58q-7 11 -13 21.5t-6 15.5q0 4 6 7l80 41q3 2 6 3.5t6 1.5q5 0 8 -7q14 -32 32.5 -45.5t38.5 -13.5h28q29 0 50.5 21.5t21.5 50.5v34q0 30 -21 50.5t-51 20.5h-90q-10 0 -10 10v85q0 10 10 10h90q29 0 50.5 21.5t21.5 50.5v14q0 29 -21.5 50.5
t-50.5 21.5h-28q-20 0 -38.5 -13.5t-32.5 -45.5q-3 -7 -8 -7q-3 0 -6 1.5t-6 3.5l-80 41q-6 3 -6 7q0 5 6 15.5t13 21.5q23 35 59 58t99 23h28q86 0 136.5 -50.5t50.5 -136.5v-14q0 -28 -16 -57.5t-38 -50.5q-4 -3 -4 -7t4 -7q22 -21 38 -53t16 -60v-29q0 -86 -50.5 -135.5
t-136.5 -49.5h-28z" />
    <glyph glyph-name="four" unicode="4" horiz-adv-x="507" 
d="M292 0q-10 0 -10 10v118q0 10 -10 10h-236q-10 0 -10 10v85l261 393q4 4 8 4h92q10 0 10 -10v-367q0 -10 10 -10h65q10 0 10 -10v-85q0 -10 -10 -10h-65q-10 0 -10 -10v-118q0 -10 -10 -10h-95zM272 243q10 0 10 10v155q0 12 -9 12q-5 0 -9 -6l-103 -155q-3 -5 -3 -8
q0 -8 11 -8h103z" />
    <glyph glyph-name="five" unicode="5" horiz-adv-x="507" 
d="M241 -10q-63 0 -99 23t-59 58q-7 11 -13 21.5t-6 15.5q0 4 6 7l80 41q3 2 6 3.5t6 1.5q5 0 8 -7q14 -32 32.5 -45.5t38.5 -13.5h28q30 0 50.5 21t20.5 51v34q0 30 -20.5 50.5t-50.5 20.5h-167q-10 0 -10 10v338q0 10 10 10h333q10 0 10 -10v-85q0 -10 -10 -10h-218
q-10 0 -10 -10v-128q0 -10 10 -10h52q85 0 135.5 -49t50.5 -135v-18q0 -86 -50.5 -135.5t-135.5 -49.5h-28z" />
    <glyph glyph-name="six" unicode="6" horiz-adv-x="507" 
d="M239 -10q-42 0 -76.5 13t-59 36.5t-37.5 56t-13 71.5v296q0 39 13 71.5t37.5 56t59 36.5t76.5 13h31q63 0 99 -23t59 -58q7 -11 13 -21.5t6 -15.5q0 -4 -6 -7l-80 -41q-3 -2 -6 -3.5t-6 -1.5q-5 0 -8 7q-14 32 -32.5 45.5t-38.5 13.5h-31q-30 0 -50.5 -21t-20.5 -51v-91
q0 -11 8 -11q2 0 3.5 0.5t3.5 1.5q16 8 33.5 13.5t32.5 5.5h30q37 0 69 -13t56 -36.5t38 -56t14 -71.5v-38q0 -39 -13 -71.5t-37.5 -56t-59 -36.5t-77.5 -13h-30zM269 95q29 0 50.5 21.5t21.5 50.5v38q0 29 -21.5 50.5t-50.5 21.5h-30q-30 0 -50.5 -21t-20.5 -51v-38
q0 -30 20.5 -51t50.5 -21h30z" />
    <glyph glyph-name="seven" unicode="7" horiz-adv-x="507" 
d="M106 0q-10 0 -10 10v157q0 41 11.5 71.5t29.5 54t41 41.5t47 35q20 14 40 27.5t35.5 29t25 34.5t9.5 45v10q0 10 -10 10h-238q-10 0 -10 10v85q0 10 10 10h352q10 0 10 -10v-115q0 -48 -13.5 -83t-35 -61.5t-48 -46t-52.5 -37.5q-18 -12 -34 -23.5t-28.5 -24.5t-20 -28
t-7.5 -34v-157q0 -10 -10 -10h-94z" />
    <glyph glyph-name="eight" unicode="8" horiz-adv-x="507" 
d="M239 -10q-86 0 -136 49.5t-50 135.5v24q0 28 16 60t37 53q4 4 4 7q0 4 -4 7q-21 20 -37 50t-16 58v19q0 86 50 136.5t136 50.5h29q85 0 135.5 -50.5t50.5 -136.5v-19q0 -28 -16 -58t-37 -50q-4 -3 -4 -7q0 -3 4 -7q21 -21 37 -53t16 -60v-24q0 -86 -50.5 -135.5
t-135.5 -49.5h-29zM268 372q30 0 50.5 21t20.5 51v19q0 30 -20.5 51t-50.5 21h-29q-29 0 -50.5 -21.5t-21.5 -50.5v-19q0 -29 21.5 -50.5t50.5 -21.5h29zM268 95q30 0 50.5 21t20.5 51v29q0 30 -20.5 50.5t-50.5 20.5h-29q-30 0 -51 -20.5t-21 -50.5v-29q0 -29 21.5 -50.5
t50.5 -21.5h29z" />
    <glyph glyph-name="nine" unicode="9" horiz-adv-x="507" 
d="M241 -10q-63 0 -99 23t-59 58q-7 11 -13 21.5t-6 15.5q0 4 6 7l80 41q3 2 6 3.5t6 1.5q5 0 8 -7q14 -32 32.5 -45.5t38.5 -13.5h28q29 0 50.5 21.5t21.5 50.5v57q0 11 -8 11q-2 0 -3.5 -0.5t-3.5 -1.5q-16 -8 -33.5 -13t-32.5 -5h-30q-37 0 -69 13t-56 36t-38 55.5
t-14 71.5v72q0 39 13 71.5t37.5 56t59 36.5t76.5 13h30q43 0 77.5 -13t59 -36.5t37.5 -56t13 -71.5v-296q0 -39 -13 -71.5t-37.5 -56t-59 -36.5t-77.5 -13h-28zM269 320q30 0 51 20.5t21 50.5v72q0 29 -21.5 50.5t-50.5 21.5h-30q-30 0 -50.5 -21t-20.5 -51v-72
q0 -30 20.5 -50.5t50.5 -20.5h30z" />
    <glyph glyph-name="colon" unicode=":" horiz-adv-x="230" 
d="M182 315q0 -27 -20 -47t-47 -20t-47 20t-20 47t20 47t47 20t47 -20t20 -47zM182 57q0 -27 -20 -47t-47 -20t-47 20t-20 47t20 47t47 20t47 -20t20 -47z" />
    <glyph glyph-name="semicolon" unicode=";" horiz-adv-x="230" 
d="M182 315q0 -27 -20 -47t-47 -20t-47 20t-20 47t20 47t47 20t47 -20t20 -47zM40 -78q-2 5 -4 8t-2 6q0 5 6 8q20 11 29.5 30t9.5 32q0 9 -10 9h-11q-10 0 -10 10v97q0 10 10 10h114q10 0 10 -10v-73q0 -60 -19 -96t-51 -59q-14 -11 -25.5 -17t-15.5 -6q-5 0 -8 6z" />
    <glyph glyph-name="less" unicode="&#x3c;" horiz-adv-x="507" 
d="M64 201q-5 3 -5 9v69q0 6 5 9l306 179q11 7 15 7q5 0 8 -6l30 -49q2 -4 4 -7t2 -6q0 -5 -6 -8l-248 -144q-7 -5 -7 -9t7 -9l247 -142q6 -3 6 -8q0 -3 -2 -5.5t-4 -7.5l-29 -52q-3 -6 -8 -6q-2 0 -7.5 3t-12.5 7z" />
    <glyph glyph-name="equal" unicode="=" horiz-adv-x="507" 
d="M49 286q-10 0 -10 10v66q0 10 10 10h409q10 0 10 -10v-66q0 -10 -10 -10h-409zM49 115q-10 0 -10 10v65q0 10 10 10h409q10 0 10 -10v-65q0 -10 -10 -10h-409z" />
    <glyph glyph-name="greater" unicode="&#x3e;" horiz-adv-x="507" 
d="M85 73q-2 5 -4 7.5t-2 5.5q0 5 6 8l247 142q7 5 7 9t-7 9l-248 144q-6 3 -6 8q0 3 2 6t4 7l30 49q3 6 8 6q4 0 15 -7l306 -179q5 -3 5 -9v-69q0 -6 -5 -9l-301 -176q-7 -4 -12.5 -7t-7.5 -3q-5 0 -8 6z" />
    <glyph glyph-name="question" unicode="?" horiz-adv-x="475" 
d="M143 172q-8 0 -10 8q-2 14 -4 30t-2 30q0 35 11 58.5t28.5 39.5t38.5 27l42 22q13 6 24.5 13t20.5 15.5t14 20t5 27.5q0 30 -20.5 51t-50.5 21h-36q-20 0 -38.5 -13.5t-32.5 -45.5q-3 -7 -8 -7q-3 0 -6 1.5t-6 3.5l-80 41q-6 3 -6 7q0 5 6 15.5t13 21.5q23 35 59 58
t99 23h36q42 0 76.5 -13t59 -36.5t37.5 -56t13 -71.5q0 -44 -12 -72.5t-30 -47t-40.5 -30t-43.5 -21.5q-23 -11 -40.5 -24.5t-17.5 -41.5q0 -18 3 -29.5t3 -16.5q0 -8 -10 -8h-95zM268 57q0 -27 -20 -47t-47 -20t-47 20t-20 47t20 47t47 20t47 -20t20 -47z" />
    <glyph glyph-name="at" unicode="@" horiz-adv-x="707" 
d="M268 0q-43 0 -77.5 13t-58.5 36.5t-37 56t-13 71.5v276q0 39 13 71.5t37 56t58.5 36.5t77.5 13h172q42 0 76.5 -13t59 -36.5t37.5 -56t13 -71.5v-205q0 -42 -27 -68.5t-74 -26.5h-12q-20 0 -38 6.5t-31 17.5q-2 2 -4.5 3.5t-5.5 1.5t-5.5 -2t-5.5 -4q-16 -11 -34.5 -17
t-35.5 -6q-61 0 -96.5 34t-35.5 91v79q0 56 36 90t96 34q19 0 40 -8q3 -2 7.5 -3.5t7.5 -1.5q7 0 7 7q0 6 8 6h52q10 0 10 -10v-218q0 -13 8 -21t21 -8h11q13 0 21 9t8 20v200q0 47 -31 76t-83 29h-172q-53 0 -84 -29t-31 -76v-276q0 -47 31 -76t84 -29h262q10 0 10 -10v-52
q0 -10 -10 -10h-262zM415 349q0 25 -18.5 42.5t-43.5 17.5q-26 0 -43 -17t-17 -43v-64q0 -26 17 -43.5t43 -17.5q25 0 43.5 18t18.5 43v64z" />
    <glyph glyph-name="A" unicode="A" horiz-adv-x="450" 
d="M3 0q-11 0 -11 8q0 3 1.5 7.5l3.5 10.5l182 597q1 7 10 7h72q9 0 10 -7l182 -597q2 -5 3.5 -10t1.5 -8q0 -8 -11 -8h-101q-9 0 -10 7l-30 105q-1 6 -10 6h-143q-9 0 -10 -6l-30 -105q-1 -7 -10 -7h-100zM261 223q11 0 11 9q0 3 -1.5 8.5t-3.5 10.5l-29 117
q-1 3 -2.5 10.5t-3 16.5t-3 17t-2.5 11h-3l-12 -55l-30 -116q-2 -5 -3.5 -11t-1.5 -9q0 -9 11 -9h73z" />
    <glyph glyph-name="B" unicode="B" horiz-adv-x="536" 
d="M77 0q-10 0 -10 10v610q0 10 10 10h225q86 0 136 -50.5t50 -135.5v-10q0 -28 -15.5 -57.5t-37.5 -50.5q-4 -3 -4 -7t4 -7q22 -21 37.5 -53t15.5 -60v-15q0 -85 -50 -134.5t-136 -49.5h-225zM302 372q29 0 50.5 21.5t21.5 50.5v9q0 29 -21.5 50.5t-50.5 21.5h-110
q-10 0 -10 -10v-133q0 -10 10 -10h110zM302 105q29 0 50.5 20.5t21.5 51.5v19q0 30 -21 50.5t-51 20.5h-110q-10 0 -10 -10v-142q0 -10 10 -10h110z" />
    <glyph glyph-name="C" unicode="C" horiz-adv-x="484" 
d="M239 -10q-43 0 -77.5 13t-58.5 36.5t-37 56t-13 71.5v296q0 39 13 71.5t37 56t58.5 36.5t77.5 13h49q63 0 99 -23t59 -58q7 -11 13 -21.5t6 -15.5q0 -4 -6 -7l-80 -41q-3 -2 -6 -3.5t-6 -1.5q-5 0 -8 7q-14 32 -32.5 45.5t-38.5 13.5h-49q-29 0 -50.5 -21.5t-21.5 -50.5
v-296q0 -29 21.5 -50.5t50.5 -21.5h49q20 0 38.5 13.5t32.5 45.5q3 7 8 7q3 0 6 -1.5t6 -3.5l80 -41q6 -3 6 -7q0 -5 -6 -15.5t-13 -21.5q-23 -35 -59 -58t-99 -23h-49z" />
    <glyph glyph-name="D" unicode="D" horiz-adv-x="541" 
d="M77 0q-10 0 -10 10v610q0 10 10 10h225q86 0 136 -50.5t50 -135.5v-258q0 -86 -50 -136t-136 -50h-225zM302 105q29 0 50.5 20.5t21.5 51.5v276q0 29 -21.5 50.5t-50.5 21.5h-110q-10 0 -10 -10v-400q0 -10 10 -10h110z" />
    <glyph glyph-name="E" unicode="E" horiz-adv-x="478" 
d="M77 0q-10 0 -10 10v610q0 10 10 10h353q10 0 10 -10v-85q0 -10 -10 -10h-238q-10 0 -10 -10v-133q0 -10 10 -10h195q10 0 10 -10v-85q0 -10 -10 -10h-195q-10 0 -10 -10v-142q0 -10 10 -10h238q10 0 10 -10v-85q0 -10 -10 -10h-353z" />
    <glyph glyph-name="F" unicode="F" horiz-adv-x="454" 
d="M77 0q-10 0 -10 10v610q0 10 10 10h353q10 0 10 -10v-85q0 -10 -10 -10h-238q-10 0 -10 -10v-133q0 -10 10 -10h195q10 0 10 -10v-85q0 -10 -10 -10h-195q-10 0 -10 -10v-247q0 -10 -10 -10h-95z" />
    <glyph glyph-name="G" unicode="G" 
d="M239 -10q-43 0 -77.5 13t-58.5 36.5t-37 56t-13 71.5v296q0 39 13 71.5t37 56t58.5 36.5t77.5 13h66q63 0 99 -23t59 -58q7 -11 13 -21.5t6 -15.5q0 -4 -6 -7l-80 -41q-3 -2 -6 -3.5t-6 -1.5q-5 0 -8 7q-14 32 -32.5 45.5t-38.5 13.5h-66q-29 0 -50.5 -21.5t-21.5 -50.5
v-296q0 -29 21.5 -50.5t50.5 -21.5h49q30 0 50.5 21t20.5 51v47q0 10 -10 10h-94q-10 0 -10 10v85q0 10 10 10h209q10 0 10 -10v-152q0 -39 -13 -71.5t-37.5 -56t-59 -36.5t-76.5 -13h-49z" />
    <glyph glyph-name="H" unicode="H" horiz-adv-x="570" 
d="M77 0q-10 0 -10 10v610q0 10 10 10h95q10 0 10 -10v-238q0 -10 10 -10h186q10 0 10 10v238q0 10 10 10h94q10 0 10 -10v-610q0 -10 -10 -10h-94q-10 0 -10 10v247q0 10 -10 10h-186q-10 0 -10 -10v-247q0 -10 -10 -10h-95z" />
    <glyph glyph-name="I" unicode="I" horiz-adv-x="249" 
d="M77 0q-10 0 -10 10v610q0 10 10 10h95q10 0 10 -10v-610q0 -10 -10 -10h-95z" />
    <glyph glyph-name="J" unicode="J" horiz-adv-x="429" 
d="M85 154q16 7 18 7q5 0 8 -6q12 -32 31 -46t40 -14q30 0 50.5 21t20.5 51v453q0 10 10 10h95q10 0 10 -10v-443q0 -39 -14.5 -73t-40 -59.5t-59.5 -40t-72 -14.5q-43 0 -84 22t-70 57q-11 14 -18.5 25t-7.5 16t7 8z" />
    <glyph glyph-name="K" unicode="K" horiz-adv-x="521" 
d="M77 0q-10 0 -10 10v610q0 10 10 10h95q10 0 10 -10v-222q0 -12 9 -12q4 0 9 6l178 234q4 4 8 4h115q11 0 11 -8q0 -4 -3 -8l-188 -233q-7 -9 -7 -13q0 -3 6 -13l205 -332q3 -5 5 -8.5t2 -6.5q0 -8 -11 -8h-117q-5 0 -8 5l-157 251q-5 7 -9 7q-5 0 -8 -5l-32 -43
q-8 -11 -8 -24v-181q0 -10 -10 -10h-95z" />
    <glyph glyph-name="L" unicode="L" horiz-adv-x="454" 
d="M77 0q-10 0 -10 10v610q0 10 10 10h95q10 0 10 -10v-505q0 -10 10 -10h238q10 0 10 -10v-85q0 -10 -10 -10h-353z" />
    <glyph glyph-name="M" unicode="M" horiz-adv-x="637" 
d="M77 0q-10 0 -10 10v610q0 10 10 10h84q6 0 9 -6l133 -318l3 -9t4 -13t3.5 -13.5t2.5 -9.5h3q1 3 2.5 9.5t4 13.5t4.5 13l3 9l133 318q3 6 9 6h84q10 0 10 -10v-610q0 -10 -10 -10h-94q-10 0 -10 10v105q0 30 1.5 68t3.5 73.5t3.5 63.5t2.5 37l-4 1q-1 -3 -3.5 -12t-6 -21
t-8 -24.5t-8.5 -22.5l-83 -186q-3 -6 -9 -6h-51q-6 0 -9 6l-83 186q-5 10 -9 22.5t-7.5 24.5t-6 21t-3.5 12l-4 -1q1 -9 2.5 -37t3.5 -63.5t3.5 -73.5t1.5 -68v-105q0 -10 -10 -10h-95z" />
    <glyph glyph-name="N" unicode="N" horiz-adv-x="550" 
d="M77 0q-10 0 -10 10v610q0 10 10 10h84q6 0 9 -5l179 -328q1 -3 4.5 -10t6.5 -15t6 -15.5t4 -10.5l4 1q-1 9 -2 37.5t-2 65.5t-1.5 75.5t-0.5 68.5v126q0 10 10 10h94q10 0 10 -10v-610q0 -10 -10 -10h-83q-6 0 -9 5l-179 326q-2 3 -5 10t-6 15t-6 15.5t-4 10.5l-4 -1
q1 -9 2 -37.5t2 -65.5t1.5 -75.5t0.5 -68.5v-124q0 -10 -10 -10h-95z" />
    <glyph glyph-name="O" unicode="O" 
d="M239 -10q-43 0 -77.5 13t-58.5 36.5t-37 56t-13 71.5v296q0 39 13 71.5t37 56t58.5 36.5t77.5 13h49q42 0 76.5 -13t59 -36.5t37.5 -56t13 -71.5v-296q0 -39 -13 -71.5t-37.5 -56t-59 -36.5t-76.5 -13h-49zM288 95q30 0 50.5 21t20.5 51v296q0 30 -20.5 51t-50.5 21h-49
q-29 0 -50.5 -21.5t-21.5 -50.5v-296q0 -29 21.5 -50.5t50.5 -21.5h49z" />
    <glyph glyph-name="P" unicode="P" horiz-adv-x="483" 
d="M77 0q-10 0 -10 10v610q0 10 10 10h205q43 0 77.5 -13.5t58.5 -37.5t37 -58.5t13 -76.5q0 -37 -13 -69.5t-37 -56.5t-58.5 -37.5t-77.5 -13.5h-90q-10 0 -10 -10v-247q0 -10 -10 -10h-95zM282 372q29 0 50.5 21.5t21.5 50.5v9q0 29 -21.5 50.5t-50.5 21.5h-90
q-10 0 -10 -10v-133q0 -10 10 -10h90z" />
    <glyph glyph-name="Q" unicode="Q" 
d="M221 -86q-10 0 -10 10v59q0 8 -10 10q-70 11 -109 58t-39 116v296q0 39 13 71.5t37 56t58.5 36.5t77.5 13h49q42 0 76.5 -13t59 -36.5t37.5 -56t13 -71.5v-296q0 -69 -40.5 -116t-110.5 -58q-7 -1 -7 -10v-59q0 -10 -10 -10h-85zM228 154q3 7 10 7h51q7 0 10 -7l13 -42
q3 -8 8 -8t10.5 5t9.5 9q8 10 13.5 22.5t5.5 26.5v296q0 30 -20.5 51t-50.5 21h-49q-29 0 -50.5 -21.5t-21.5 -50.5v-296q0 -27 17 -46q5 -6 11.5 -10.5t10.5 -4.5q6 0 9 8z" />
    <glyph glyph-name="R" unicode="R" 
d="M77 0q-10 0 -10 10v610q0 10 10 10h225q86 0 136 -50.5t50 -135.5v-10q0 -19 -7.5 -39t-19 -38.5t-26 -33.5t-28.5 -25q-4 -3 -4 -8q0 -3 5 -16l86 -250q2 -5 3.5 -9.5t1.5 -6.5q0 -8 -10 -8h-103q-7 0 -9 7l-88 254q-2 6 -8 6h-89q-10 0 -10 -10v-247q0 -10 -10 -10h-95
zM302 372q29 0 50.5 21.5t21.5 50.5v9q0 29 -21.5 50.5t-50.5 21.5h-110q-10 0 -10 -10v-133q0 -10 10 -10h110z" />
    <glyph glyph-name="S" unicode="S" horiz-adv-x="472" 
d="M211 -10q-63 0 -99 23t-59 58q-7 11 -13 21.5t-6 15.5q0 4 6 7l80 41q3 2 6 3.5t6 1.5q5 0 8 -7q14 -32 32.5 -45.5t38.5 -13.5h40q29 0 50.5 21.5t21.5 50.5q0 20 -9 34.5t-24 26t-34.5 20.5t-39.5 18q-30 14 -59.5 30t-53 38.5t-38.5 53.5t-15 75q0 39 13 71.5t37 56
t58.5 36.5t77.5 13h16q63 0 99 -23t59 -58q7 -11 13 -21.5t6 -15.5q0 -4 -6 -7l-80 -41q-3 -2 -6 -3.5t-6 -1.5q-5 0 -8 7q-14 32 -32.5 45.5t-38.5 13.5h-16q-29 0 -50.5 -21.5t-21.5 -50.5q0 -19 10 -32t26.5 -23.5t37 -19t42.5 -18.5q28 -13 56.5 -29.5t50.5 -40t36 -56
t14 -77.5q0 -39 -13 -71.5t-37 -56t-58.5 -36.5t-77.5 -13h-40z" />
    <glyph glyph-name="T" unicode="T" horiz-adv-x="402" 
d="M154 0q-10 0 -10 10v505q0 10 -10 10h-109q-10 0 -10 10v85q0 10 10 10h352q10 0 10 -10v-85q0 -10 -10 -10h-109q-10 0 -10 -10v-505q0 -10 -10 -10h-94z" />
    <glyph glyph-name="U" unicode="U" 
d="M239 -10q-43 0 -77.5 13t-58.5 36.5t-37 56t-13 71.5v453q0 10 10 10h94q10 0 10 -10v-453q0 -29 21.5 -50.5t50.5 -21.5h49q30 0 50.5 21t20.5 51v453q0 10 10 10h95q10 0 10 -10v-453q0 -39 -13 -71.5t-37.5 -56t-59 -36.5t-76.5 -13h-49z" />
    <glyph glyph-name="V" unicode="V" horiz-adv-x="450" 
d="M189 0q-9 0 -10 7l-182 596q-2 5 -3.5 10t-1.5 9q0 8 11 8h100q9 0 10 -7l99 -360l10 -46h5l10 44l99 362q1 7 10 7h101q11 0 11 -8q0 -3 -1.5 -7.5l-2.5 -7.5l-183 -600q-1 -7 -10 -7h-72z" />
    <glyph glyph-name="W" unicode="W" horiz-adv-x="657" 
d="M145 0q-8 0 -10 8l-127 587q-2 8 -3.5 15.5t-1.5 11.5q0 8 10 8h102q8 0 10 -8l58 -309q0 -3 1.5 -11.5t3 -19t3 -19.5t2.5 -12h5l13 62l82 312q1 7 10 7h50q9 0 10 -7l82 -312l13 -62h5q1 3 2 12t2.5 19t3 19t2.5 12l59 309q2 8 10 8h102q10 0 10 -8q0 -3 -1.5 -11
t-3.5 -16l-127 -587q-2 -8 -10 -8h-73q-9 0 -10 7l-87 302l-12 55h-3l-12 -55l-87 -302q-1 -7 -10 -7h-73z" />
    <glyph glyph-name="X" unicode="X" horiz-adv-x="458" 
d="M17 0q-11 0 -11 8q0 3 3 9l8 16l135 267q6 12 6 16q0 3 -1.5 6t-3.5 8l-139 273q-2 5 -5 10t-3 9q0 8 11 8h106q5 0 9 -6l89 -184q3 -8 9 -8t9 8l86 184q3 6 9 6h108q11 0 11 -8q0 -3 -2.5 -7.5t-5.5 -10.5l-137 -273q-5 -9 -5 -16q0 -6 5 -15l135 -270q4 -8 7 -13.5
t3 -8.5q0 -8 -11 -8h-109q-6 0 -9 6l-85 181q-3 8 -9 8t-9 -8l-88 -181q-4 -6 -9 -6h-107z" />
    <glyph glyph-name="Y" unicode="Y" horiz-adv-x="450" 
d="M177 0q-10 0 -10 10v264q0 8 -1 13t-6 14l-163 305q-7 12 -7 16q0 8 11 8h111q5 0 9 -6l95 -196q3 -8 9 -8t9 8l95 196q4 6 9 6h110q11 0 11 -8q0 -3 -2.5 -7t-4.5 -9l-163 -305q-4 -8 -5.5 -13.5t-1.5 -14.5v-263q0 -10 -10 -10h-95z" />
    <glyph glyph-name="Z" unicode="Z" horiz-adv-x="456" 
d="M21 0q-10 0 -10 8q0 3 2 7.5t5 11.5l211 471q7 14 7 19q0 8 -10 8h-182q-10 0 -10 10v85q0 10 10 10h355q10 0 10 -8q0 -3 -2 -7t-5 -12l-213 -473q-6 -12 -6 -17q0 -8 10 -8h203q10 0 10 -10v-85q0 -10 -10 -10h-375z" />
    <glyph glyph-name="bracketleft" unicode="[" horiz-adv-x="394" 
d="M122 -172q-10 0 -10 10v877q0 10 10 10h180q10 0 10 -10v-85q0 -10 -10 -10h-66q-10 0 -10 -10v-667q0 -10 10 -10h66q10 0 10 -10v-85q0 -10 -10 -10h-180z" />
    <glyph glyph-name="backslash" unicode="\" horiz-adv-x="330" 
d="M264 0q-6 0 -9 6l-257 600q-5 10 -5 16q0 8 10 8h63q6 0 9 -6l256 -598q2 -6 4 -10.5t2 -7.5q0 -8 -10 -8h-63z" />
    <glyph glyph-name="bracketright" unicode="]" horiz-adv-x="394" 
d="M92 -172q-10 0 -10 10v85q0 10 10 10h65q10 0 10 10v667q0 10 -10 10h-65q-10 0 -10 10v85q0 10 10 10h180q10 0 10 -10v-877q0 -10 -10 -10h-180z" />
    <glyph glyph-name="asciicircum" unicode="^" horiz-adv-x="507" 
d="M215 640h74l198 -369h-105l-129 266h-3l-124 -266h-106z" />
    <glyph glyph-name="underscore" unicode="_" horiz-adv-x="230" 
d="M4 -215q-10 0 -10 10v52q0 10 10 10h228q10 0 10 -10v-52q0 -10 -10 -10h-228z" />
    <glyph glyph-name="grave" unicode="`" horiz-adv-x="500" 
d="M231 523q-7 0 -16 7l-142 140q-7 7 -7 12q0 8 11 8h122q9 0 14 -8l90 -138q2 -4 4 -7t2 -6q0 -8 -10 -8h-68z" />
    <glyph glyph-name="a" unicode="a" horiz-adv-x="465" 
d="M188 0q-30 0 -55.5 9.5t-44.5 27.5t-30 42.5t-11 54.5v5q0 31 11 55.5t30 42t44.5 27t55.5 9.5h96q10 0 10 10v12q0 29 -21 48.5t-52 19.5q-18 0 -36.5 -12.5t-36.5 -44.5q-3 -6 -8 -6q-3 0 -6 1.5t-6 3.5l-76 40q-6 3 -6 7t6.5 16.5t14.5 23.5q24 36 60 56t94 20
q43 0 77.5 -13t59 -36t37.5 -55.5t13 -71.5v-282q0 -10 -10 -10h-85q-10 0 -10 8q0 13 -7 13q-5 0 -9 -3q-33 -18 -61 -18h-38zM226 105q24 0 44 17t24 39v16h-106q-11 0 -19 -8.5t-8 -19.5v-15q0 -12 7.5 -20.5t19.5 -8.5h38z" />
    <glyph glyph-name="b" unicode="b" horiz-adv-x="473" 
d="M68 0q-10 0 -10 10v610q0 10 10 10h94q10 0 10 -10v-171q0 -11 8 -11q2 0 8 2q16 8 33.5 13t31.5 5q37 0 69.5 -13t56.5 -36t37.5 -55.5t13.5 -71.5v-105q0 -39 -13 -71.5t-37.5 -56t-59 -36.5t-76.5 -13q-15 0 -32.5 5t-33.5 13q-6 2 -8 2q-7 0 -7 -11q0 -9 -10 -9h-85z
M315 282q0 30 -20.5 50.5t-50.5 20.5t-51 -20.5t-21 -50.5v-105q0 -31 21.5 -51.5t50.5 -20.5q30 0 50.5 20.5t20.5 51.5v105z" />
    <glyph glyph-name="c" unicode="c" horiz-adv-x="429" 
d="M401 116q6 -3 6 -8q0 -3 -4.5 -11.5t-10.5 -18.5q-23 -38 -60 -63t-102 -25q-43 0 -77.5 13t-59 36.5t-37.5 56t-13 71.5v124q0 39 13 71.5t37.5 56t59 36.5t77.5 13q65 0 102 -25t60 -63q6 -10 10.5 -18.5t4.5 -11.5q0 -5 -6 -8l-75 -37q-14 -7 -17 -7q-5 0 -8 6
q-14 32 -32.5 45.5t-38.5 13.5q-31 0 -51.5 -21.5t-20.5 -50.5v-124q0 -29 20.5 -50.5t51.5 -21.5q20 0 38.5 13.5t32.5 45.5q3 6 8 6q3 0 17 -7z" />
    <glyph glyph-name="d" unicode="d" horiz-adv-x="473" 
d="M321 0q-10 0 -10 9q0 11 -8 11q-1 0 -7 -2q-16 -8 -34 -13t-32 -5q-43 0 -77.5 13t-59 36.5t-37.5 56t-13 71.5v105q0 39 14 71.5t38 55.5t56 36t69 13q15 0 32.5 -5t33.5 -13q2 -1 3.5 -1.5t3.5 -0.5q8 0 8 11v171q0 10 10 10h95q10 0 10 -10v-610q0 -10 -10 -10h-85z
M301 282q0 30 -20.5 50.5t-50.5 20.5q-31 0 -51.5 -20.5t-20.5 -50.5v-105q0 -31 20.5 -51.5t51.5 -20.5q30 0 50.5 20.5t20.5 51.5v105z" />
    <glyph glyph-name="e" unicode="e" horiz-adv-x="459" 
d="M401 116q6 -3 6 -8q0 -3 -4.5 -11.5t-10.5 -18.5q-23 -38 -60 -63t-102 -25q-43 0 -77.5 13t-59 36.5t-37.5 56t-13 71.5v124q0 31 13 62.5t37.5 57t59 41.5t77.5 16q42 0 76.5 -16t59 -41.5t37.5 -57t13 -62.5v-81q0 -10 -10 -10h-238q-10 0 -10 -10v-23
q0 -29 20.5 -50.5t51.5 -21.5q20 0 38.5 13.5t32.5 45.5q3 6 8 6q3 0 17 -7zM289 296q11 0 11 9q0 4 -4 14t-12.5 19.5t-21.5 17t-32 7.5q-18 0 -31.5 -7t-22.5 -17t-13 -19.5t-4 -14.5q0 -9 11 -9h119z" />
    <glyph glyph-name="f" unicode="f" horiz-adv-x="292" 
d="M82 0q-10 0 -10 10v290q0 10 -10 10h-23q-10 0 -10 10v85q0 10 10 10h23q10 0 10 10v28q0 38 14.5 72t40 59.5t59.5 40.5t72 15q16 0 33.5 -2t30.5 -5q8 -2 8 -8q0 -5 -4 -15l-27 -74q-2 -8 -8 -8q-3 0 -11 3.5t-22 3.5q-31 0 -51 -20.5t-20 -51.5v-38q0 -10 10 -10h65
q10 0 10 -10v-85q0 -10 -10 -10h-65q-10 0 -10 -10v-290q0 -10 -10 -10h-95z" />
    <glyph glyph-name="g" unicode="g" horiz-adv-x="459" 
d="M187 -225q-30 0 -56.5 8t-46 24t-30.5 39t-11 53v29q0 31 14 55.5t37 41.5q4 4 4 8q0 3 -3 7t-6.5 10.5t-6.5 15.5t-3 23q0 15 3.5 26t7.5 18t7.5 11t3.5 6q0 4 -3 7q-25 24 -40 53.5t-15 67.5v14q0 39 14.5 70t39.5 52t59.5 32.5t73.5 11.5q24 0 55 -13q5 -2 9.5 -4.5
t8.5 -2.5q8 0 8 11q0 9 10 9h85q10 0 10 -10v-165q0 -39 -14.5 -71t-39.5 -54.5t-59 -35t-73 -12.5h-24q-8 0 -14 -7.5t-6 -20.5q0 -14 6 -22t16 -8h107q30 0 56.5 -8t46 -23.5t30.5 -39t11 -53.5v-29q0 -30 -11 -53t-30.5 -39t-46 -24t-56.5 -8h-128zM301 292
q0 30 -20.5 49.5t-50.5 19.5q-31 0 -51.5 -19.5t-20.5 -49.5v-14q0 -29 20.5 -47t51.5 -18q30 0 50.5 17.5t20.5 47.5v14zM315 -130q13 0 21 9t8 20v29q0 13 -8 21t-21 8h-128q-13 0 -21 -8t-8 -21v-29q0 -11 8 -20t21 -9h128z" />
    <glyph glyph-name="h" unicode="h" horiz-adv-x="483" 
d="M68 0q-10 0 -10 10v610q0 10 10 10h94q10 0 10 -10v-171q0 -11 8 -11q2 0 3.5 0.5t3.5 1.5q16 8 34 13t32 5q37 0 69.5 -13t56.5 -36t37.5 -55.5t13.5 -71.5v-272q0 -10 -10 -10h-95q-10 0 -10 10v272q0 30 -20.5 50.5t-50.5 20.5t-51 -20.5t-21 -50.5v-272
q0 -10 -10 -10h-94z" />
    <glyph glyph-name="i" unicode="i" horiz-adv-x="230" 
d="M182 573q0 -27 -20 -47t-47 -20t-47 20t-20 47t20 47t47 20t47 -20t20 -47zM68 0q-10 0 -10 10v438q0 10 10 10h94q10 0 10 -10v-438q0 -10 -10 -10h-94z" />
    <glyph glyph-name="j" unicode="j" horiz-adv-x="230" 
d="M182 573q0 -27 -20 -47t-47 -20t-47 20t-20 47t20 47t47 20t47 -20t20 -47zM-28 -140q0 10 9 10q39 3 58 23.5t19 47.5v507q0 10 10 10h94q10 0 10 -10v-498q0 -56 -30 -100t-84 -67q-18 -8 -40 -13t-36 -5q-10 0 -10 10v85z" />
    <glyph glyph-name="k" unicode="k" horiz-adv-x="449" 
d="M68 0q-10 0 -10 10v610q0 10 10 10h94q10 0 10 -10v-274q0 -11 9 -11q4 0 8 4l102 112q3 3 6 5t8 2h116q11 0 11 -8q0 -5 -4 -9l-134 -137q-6 -8 -6 -12t6 -14l159 -257q2 -4 4 -7t2 -6q0 -8 -11 -8h-117q-6 0 -9 5l-115 189q-3 6 -8 6q-4 0 -8 -4l-14 -14q-5 -5 -5 -11
v-161q0 -10 -10 -10h-94z" />
    <glyph glyph-name="l" unicode="l" horiz-adv-x="230" 
d="M68 0q-10 0 -10 10v610q0 10 10 10h94q10 0 10 -10v-610q0 -10 -10 -10h-94z" />
    <glyph glyph-name="m" unicode="m" horiz-adv-x="707" 
d="M68 0q-10 0 -10 10v438q0 10 10 10h85q10 0 10 -10v-1q0 -11 8 -11q2 0 3.5 0.5t3.5 1.5q18 10 36.5 15t29.5 5q27 0 55 -8.5t48 -27.5q3 -3 7 -3t7 3q20 19 50.5 27.5t61.5 8.5q38 0 70.5 -13t56 -36t37 -55.5t13.5 -71.5v-272q0 -10 -10 -10h-95q-10 0 -10 10v272
q0 29 -19.5 50t-42.5 21q-11 0 -22 -5.5t-20 -15.5t-14.5 -22.5t-5.5 -27.5v-272q0 -10 -10 -10h-95q-10 0 -10 10v272q0 29 -19.5 50t-42.5 21q-11 0 -22 -5.5t-20 -15.5t-14.5 -22.5t-5.5 -27.5v-272q0 -10 -10 -10h-94z" />
    <glyph glyph-name="n" unicode="n" horiz-adv-x="488" 
d="M68 0q-10 0 -10 10v438q0 10 10 10h85q10 0 10 -9q0 -11 8 -11q2 0 3.5 0.5t3.5 1.5q16 8 33.5 13t32.5 5q42 0 76.5 -13t59 -36t37.5 -55.5t13 -71.5v-272q0 -10 -10 -10h-95q-10 0 -10 10v272q0 30 -20.5 50.5t-50.5 20.5t-51 -20.5t-21 -50.5v-272q0 -10 -10 -10h-94z
" />
    <glyph glyph-name="o" unicode="o" horiz-adv-x="459" 
d="M43 291q0 39 13 71.5t37.5 56t59 36.5t77.5 13q42 0 76.5 -13t59 -36.5t37.5 -56t13 -71.5v-124q0 -39 -13 -71.5t-37.5 -56t-59 -36.5t-76.5 -13q-43 0 -77.5 13t-59 36.5t-37.5 56t-13 71.5v124zM301 291q0 30 -20.5 51t-50.5 21q-31 0 -51.5 -21.5t-20.5 -50.5v-124
q0 -29 20.5 -50.5t51.5 -21.5q30 0 50.5 21t20.5 51v124z" />
    <glyph glyph-name="p" unicode="p" horiz-adv-x="473" 
d="M68 -225q-10 0 -10 10v663q0 10 10 10h85q10 0 10 -9q0 -11 8 -11q2 0 3.5 0.5t3.5 1.5q16 8 33.5 13t32.5 5q42 0 76.5 -13t59 -36t37.5 -55.5t13 -71.5v-105q0 -39 -13.5 -71.5t-37.5 -56t-56.5 -36.5t-69.5 -13q-14 0 -32 5t-34 13q-2 1 -3.5 1.5t-3.5 0.5
q-8 0 -8 -11v-224q0 -10 -10 -10h-94zM315 282q0 30 -20.5 50.5t-50.5 20.5t-51 -20.5t-21 -50.5v-105q0 -31 21.5 -51.5t50.5 -20.5q30 0 50.5 20.5t20.5 51.5v105z" />
    <glyph glyph-name="q" unicode="q" horiz-adv-x="473" 
d="M311 -225q-10 0 -10 10v224q0 11 -8 11q-2 0 -3.5 -0.5t-3.5 -1.5q-16 -8 -33.5 -13t-32.5 -5q-37 0 -69 13t-56 36.5t-38 56t-14 71.5v105q0 39 13 71.5t37.5 55.5t59 36t77.5 13q14 0 32 -5t34 -13q2 -1 3.5 -1.5t3.5 -0.5q8 0 8 11q0 9 10 9h85q10 0 10 -10v-663
q0 -10 -10 -10h-95zM301 282q0 30 -20.5 50.5t-50.5 20.5q-31 0 -51.5 -20.5t-20.5 -50.5v-105q0 -31 20.5 -51.5t51.5 -20.5q30 0 50.5 20.5t20.5 51.5v105z" />
    <glyph glyph-name="r" unicode="r" horiz-adv-x="304" 
d="M68 0q-10 0 -10 10v438q0 10 10 10h85q5 0 7.5 -1.5t2.5 -7.5v-14q0 -10 8 -10q4 0 7 3q8 8 30 19t46 11q16 0 28 -3q8 -2 8 -10v-101q0 -11 -10 -11q-5 0 -12.5 4.5t-23.5 4.5q-31 0 -51.5 -20t-20.5 -50v-262q0 -10 -10 -10h-94z" />
    <glyph glyph-name="s" unicode="s" horiz-adv-x="451" 
d="M205 -10q-62 0 -98 23t-57 56q-8 12 -13 23t-5 15q0 5 6 8l72 35q5 2 9 4t6 2q5 0 8 -7q11 -29 30.5 -43t41.5 -14h29q29 0 43.5 13t14.5 30q0 14 -9.5 21.5t-25 11.5t-35 6.5t-40.5 6.5q-27 5 -53 13.5t-46.5 23t-33 37.5t-12.5 58q0 37 13.5 65.5t36.5 48.5t53.5 30.5
t64.5 10.5h29q60 0 96 -21t57 -53q8 -11 14.5 -24.5t6.5 -17.5q0 -5 -6 -8l-76 -37q-3 -2 -5.5 -3t-5.5 -1q-5 0 -8 6q-11 29 -31 43t-42 14h-29q-55 0 -55 -38q0 -14 9.5 -21.5t25 -12t35 -7.5t39.5 -7q27 -6 53.5 -14t47 -23t33.5 -37.5t13 -56.5q0 -32 -11 -61
t-32.5 -50.5t-54 -34.5t-74.5 -13h-29z" />
    <glyph glyph-name="t" unicode="t" horiz-adv-x="321" 
d="M277 0q0 -10 -10 -10q-14 0 -38 4.5t-47 13.5q-52 21 -78.5 62.5t-26.5 96.5v176q0 10 -10 10h-52q-10 0 -10 9q0 5 0.5 19.5t1.5 34.5l115 122q6 6 12 6h47q10 0 10 -10v-66q0 -10 10 -10h66q10 0 10 -10v-85q0 -10 -10 -10h-66q-10 0 -10 -10v-176q0 -27 19 -47.5
t58 -23.5q9 0 9 -10v-86z" />
    <glyph glyph-name="u" unicode="u" horiz-adv-x="478" 
d="M325 0q-10 0 -10 9q0 11 -8 11q-2 0 -3.5 -0.5t-3.5 -1.5q-16 -8 -33.5 -13t-32.5 -5q-42 0 -76.5 13t-59 36.5t-37.5 56t-13 71.5v271q0 10 10 10h95q10 0 10 -10v-271q0 -31 20.5 -51.5t50.5 -20.5q29 0 50.5 20.5t21.5 51.5v271q0 10 10 10h94q10 0 10 -10v-438
q0 -10 -10 -10h-85z" />
    <glyph glyph-name="v" unicode="v" horiz-adv-x="430" 
d="M179 0q-6 0 -9 6l-172 426q-2 6 -4 10.5t-2 7.5q0 8 10 8h101q6 0 9 -6l90 -231q2 -5 6 -21t5 -23h4q1 7 5 23t6 21l90 231q3 6 9 6h102q10 0 10 -8q0 -4 -5 -16l-174 -428q-3 -6 -9 -6h-72z" />
    <glyph glyph-name="w" unicode="w" horiz-adv-x="599" 
d="M146 0q-9 0 -10 7l-127 418q-3 9 -5 15.5t-2 9.5q0 8 11 8h98q9 0 10 -7l49 -190q3 -11 5.5 -30t4.5 -32h4q3 15 6.5 31t7.5 30l51 191q1 7 10 7h84q9 0 10 -7l50 -191q5 -16 8.5 -33t5.5 -29h4q2 13 4 29.5t7 33.5l48 190q1 7 10 7h97q11 0 11 -8q0 -3 -2.5 -10.5
t-4.5 -14.5l-128 -418q-1 -7 -10 -7h-69q-9 0 -10 7l-60 211q-4 14 -7 28t-5 26h-4q-2 -12 -6 -27.5t-7 -26.5l-59 -211q-1 -7 -10 -7h-70z" />
    <glyph glyph-name="x" unicode="x" horiz-adv-x="409" 
d="M15 0q-11 0 -11 8q0 3 2.5 7.5t6.5 11.5l109 187q6 10 6 16q0 5 -7 16l-125 191q-2 4 -4 7.5t-2 5.5q0 8 10 8h112q5 0 8 -5l76 -122q3 -6 7 -6q5 0 8 6l77 122q3 5 8 5h113q11 0 11 -8q0 -4 -7 -14l-127 -193q-6 -9 -6 -13q0 -5 6 -14l127 -195q6 -9 6 -13q0 -8 -10 -8
h-112q-6 0 -9 5l-75 121q-5 7 -9 7t-9 -7l-75 -121q-3 -5 -9 -5h-96z" />
    <glyph glyph-name="y" unicode="y" horiz-adv-x="478" 
d="M144 -70q7 4 11 4q5 0 8 -6q13 -32 32 -45t39 -13q29 0 50.5 21.5t21.5 50.5v62q0 11 -7 11q-3 0 -7 -2q-27 -13 -58 -13q-42 0 -76.5 13t-59 36.5t-37.5 56t-13 71.5v271q0 10 10 10h95q10 0 10 -10v-271q0 -31 20.5 -51.5t50.5 -20.5q29 0 50.5 20.5t21.5 51.5v271
q0 10 10 10h94q10 0 10 -10v-497q0 -40 -12 -74t-35 -59t-58 -39t-81 -14q-59 0 -94.5 20.5t-58.5 52.5q-12 17 -17.5 28.5t-5.5 15.5q0 5 6 8z" />
    <glyph glyph-name="z" unicode="z" horiz-adv-x="430" 
d="M18 0q-11 0 -11 8q0 3 3 8t8 14l174 290q5 8 8.5 14.5t3.5 9.5q0 8 -11 8h-154q-10 0 -10 10v85q0 10 10 10h355q11 0 11 -8q0 -3 -3.5 -9.5t-8.5 -14.5l-175 -290q-11 -17 -11 -22q0 -8 11 -8h172q10 0 10 -10v-85q0 -10 -10 -10h-372z" />
    <glyph glyph-name="braceleft" unicode="{" horiz-adv-x="418" 
d="M344 -162q0 -10 -10 -10q-17 0 -42 5.5t-45 13.5q-51 22 -77 65t-26 102v139q0 27 -19 47t-58 23q-9 0 -9 10v87q0 10 9 10q39 3 58 23.5t19 47.5v138q0 60 26.5 103t77.5 65q26 11 49 14.5t37 3.5q10 0 10 -10v-86q0 -10 -9 -10q-39 -3 -58 -23t-19 -47v-158
q0 -28 -16 -58t-37 -50q-4 -3 -4 -7q0 -3 4 -7q21 -21 37 -53t16 -60v-151q0 -27 19 -47.5t58 -23.5q9 0 9 -10v-86z" />
    <glyph glyph-name="bar" unicode="|" horiz-adv-x="250" 
d="M82 750h86v-1000h-86v1000z" />
    <glyph glyph-name="braceright" unicode="}" horiz-adv-x="418" 
d="M74 -76q0 10 9 10q39 3 58 23.5t19 47.5v151q0 28 16 60t37 53q4 4 4 7q0 4 -4 7q-21 20 -37 50t-16 58v158q0 27 -19 47t-58 23q-9 0 -9 10v86q0 10 10 10q14 0 37 -3.5t49 -14.5q51 -22 77.5 -65t26.5 -103v-138q0 -27 19 -47.5t58 -23.5q9 0 9 -10v-87q0 -10 -9 -10
q-39 -3 -58 -23t-19 -47v-139q0 -59 -26 -102t-77 -65q-20 -8 -45 -13.5t-42 -5.5q-10 0 -10 10v86z" />
    <glyph glyph-name="asciitilde" unicode="~" horiz-adv-x="507" 
d="M27 231q23 35 54 60.5t78 25.5q29 0 53.5 -8t47.5 -22q26 -16 45.5 -24t40.5 -8q26 0 45.5 19.5t33.5 44.5l56 -63q-25 -40 -55.5 -63.5t-75.5 -23.5q-53 0 -103 31q-20 14 -41 23t-44 9q-26 0 -46 -21t-33 -44z" />
    <glyph glyph-name="uni00A0" unicode="&#xa0;" horiz-adv-x="507" 
 />
    <glyph glyph-name="exclamdown" unicode="&#xa1;" horiz-adv-x="306" 
d="M220 401q0 -27 -20 -47t-47 -20t-47 20t-20 47t20 47t47 20t47 -20t20 -47zM106 -172q-10 0 -10 10v261l21 178q1 9 10 9h50q8 0 10 -9l23 -178v-261q0 -10 -10 -10h-94z" />
    <glyph glyph-name="cent" unicode="&#xa2;" horiz-adv-x="507" 
d="M245 -60q-10 0 -10 10v57q0 10 -10 10q-78 7 -122.5 54.5t-44.5 121.5v124q0 74 44.5 121.5t122.5 54.5q10 0 10 10v57q0 10 10 10h52q10 0 10 -10v-56q0 -10 8 -10q55 -3 88 -24t55 -53q10 -14 15.5 -24.5t5.5 -14.5q0 -6 -6 -9l-75 -37l-9 -4.5t-8 -2.5q-5 0 -8 6
q-15 31 -34 47q-14 11 -24 11q-8 0 -8 -12v-244q0 -10 7 -10q5 0 15 5.5t16 10.5q17 15 28 42q3 6 8 6t17 -7l75 -37q6 -3 6 -9t-19 -36q-22 -34 -55 -56t-90 -26q-8 0 -8 -10v-56q0 -10 -10 -10h-52zM235 376q0 12 -9 12q-10 0 -25 -12q-13 -10 -20.5 -25t-7.5 -34v-124
q0 -39 30 -60q4 -3 11.5 -6.5t11.5 -3.5q9 0 9 11v242z" />
    <glyph glyph-name="sterling" unicode="&#xa3;" horiz-adv-x="507" 
d="M6 0q-10 0 -10 10v85q0 10 10 10h56q27 5 45 24.5t18 47.5v80q0 10 -10 10h-23q-10 0 -10 10v85q0 10 10 10h23q10 0 10 10v71q0 38 14.5 72t40 59.5t59.5 40.5t72 15q57 0 92 -19.5t58 -50.5q12 -16 19.5 -29t7.5 -18q0 -6 -6 -9l-72 -36q-8 -4 -12.5 -6t-7.5 -2
q-5 0 -8 6q-14 32 -32.5 45.5t-38.5 13.5q-29 0 -50.5 -21.5t-21.5 -50.5v-81q0 -10 10 -10h66q10 0 10 -10v-85q0 -10 -10 -10h-66q-10 0 -10 -10v-90q0 -20 -5.5 -34t-5.5 -19q0 -9 10 -9h206q10 0 10 -10v-85q0 -10 -10 -10h-438z" />
    <glyph glyph-name="currency" unicode="&#xa4;" horiz-adv-x="615" 
d="M481 121l-34 34l-34 34q-52 -37 -116 -37q-26 0 -57 8t-59 29l-34 -34l-34 -34l-53 54l69 65q-18 27 -27 56t-9 58t8.5 58.5t27.5 55.5l-69 66l53 54l34 -34l34 -34q29 20 59.5 28t56.5 8q27 0 58 -8.5t57 -27.5l69 68l52 -54l-69 -66q20 -29 28.5 -58.5t8.5 -55.5
q0 -28 -9 -57t-28 -57l69 -65zM426 355q0 28 -11 51.5t-29 40.5t-41.5 26.5t-47.5 9.5q-28 0 -51.5 -10.5t-41 -28t-27.5 -40.5t-10 -49t10.5 -49.5t28 -41t41 -28t50.5 -10.5t50.5 10t41 27.5t27.5 41t10 50.5z" />
    <glyph glyph-name="yen" unicode="&#xa5;" horiz-adv-x="507" 
d="M206 0q-10 0 -10 10v66q0 10 -10 10h-142q-10 0 -10 10v76q0 10 10 10h142q10 0 10 10v46q0 10 -10 10h-142q-10 0 -10 10v76q0 10 10 10h105q11 0 11 8q0 3 -2 7.5t-4 7.5l-129 240q-6 10 -6 15q0 8 11 8h110q5 0 9 -6l95 -196q3 -8 9 -8t9 8l95 196q4 6 9 6h111
q11 0 11 -8q0 -3 -2.5 -7.5t-6.5 -12.5l-125 -234q-2 -5 -4.5 -9t-2.5 -7q0 -8 11 -8h105q10 0 10 -10v-76q0 -10 -10 -10h-142q-10 0 -10 -10v-46q0 -10 10 -10h142q10 0 10 -10v-76q0 -10 -10 -10h-142q-10 0 -10 -10v-66q0 -10 -10 -10h-95z" />
    <glyph glyph-name="brokenbar" unicode="&#xa6;" horiz-adv-x="250" 
d="M82 725h86v-358h-86v358zM82 186h86v-358h-86v358z" />
    <glyph glyph-name="section" unicode="&#xa7;" horiz-adv-x="507" 
d="M229 -235q-63 0 -99 23t-59 58q-7 11 -13 21.5t-6 15.5q0 4 6 7l80 41q3 2 6 3.5t6 1.5q5 0 8 -7q14 -32 32.5 -45.5t38.5 -13.5h40q30 0 50.5 21t20.5 51q0 33 -20 54t-50.5 37t-66 31t-66 36.5t-50.5 54t-20 83.5v20q0 49 21 88q6 10 6 14q0 3 -6 14q-21 36 -21 89
q0 39 13 71.5t37.5 56t59 36.5t76.5 13h16q63 0 99 -23t59 -58q7 -11 13 -21.5t6 -15.5q0 -4 -6 -7l-80 -41q-3 -2 -6 -3.5t-6 -1.5q-5 0 -8 7q-14 32 -32.5 45.5t-38.5 13.5h-16q-30 0 -50.5 -21t-20.5 -51t20 -48.5t50.5 -33.5t66 -30t66 -38t50.5 -58t20 -88v-20
q0 -24 -5.5 -44.5t-15.5 -39.5q-3 -6 -5 -9.5t-2 -5.5q0 -3 5 -12q11 -20 17 -42.5t6 -51.5q0 -39 -13 -71.5t-37.5 -56t-59 -36.5t-76.5 -13h-40zM340 167q0 24 -11.5 40.5t-30.5 29t-43 22t-49 20.5q-4 2 -7.5 3.5t-7.5 1.5q-9 0 -9 -15v-31q0 -21 11.5 -35.5t30 -25.5
t42 -20.5t47.5 -19.5q7 -3 11 -5t8 -2q8 0 8 10v27z" />
    <glyph glyph-name="dieresis" unicode="&#xa8;" horiz-adv-x="500" 
d="M396 595q0 -26 -18 -44t-44 -18t-44 18t-18 44t18 44t44 18t44 -18t18 -44zM227 595q0 -26 -18 -44t-44 -18t-44 18t-18 44t18 44t44 18t44 -18t18 -44z" />
    <glyph glyph-name="copyright" unicode="&#xa9;" horiz-adv-x="707" 
d="M268 -60q-43 0 -77.5 13t-58.5 36.5t-37 56t-13 71.5v276q0 39 13 71.5t37 56t58.5 36.5t77.5 13h172q42 0 76.5 -13t59 -36.5t37.5 -56t13 -71.5v-276q0 -39 -13 -71.5t-37.5 -56t-59 -36.5t-76.5 -13h-172zM440 12q52 0 83 29t31 76v276q0 47 -31 76t-83 29h-172
q-53 0 -84 -29t-31 -76v-276q0 -47 31 -76t84 -29h172zM474 176q6 -3 6 -9q0 -2 -4 -11.5t-18 -25.5q-17 -21 -42 -33t-63 -12q-62 0 -99 36t-37 93v94q0 58 37 92.5t99 34.5q39 0 63.5 -12.5t42.5 -33.5q11 -12 16 -21t5 -12q0 -6 -6 -9l-40 -20q-5 -2 -9.5 -4.5t-6.5 -2.5
q-5 0 -8 5q-15 22 -29 30.5t-28 8.5q-24 0 -40.5 -16t-16.5 -40v-94q0 -24 16.5 -40t40.5 -16q14 0 28 9t29 31q3 5 8 5q2 0 5.5 -2t8.5 -4z" />
    <glyph glyph-name="ordfeminine" unicode="&#xaa;" horiz-adv-x="331" 
d="M137 302q-44 0 -74 27t-30 72v3q0 46 30 72.5t74 26.5h62q7 0 7 7v4q0 18 -13 30t-32 12q-17 0 -28.5 -11.5t-19.5 -25.5q-4 -7 -9 -7q-3 0 -7 2.5t-9 4.5l-49 25q-7 3 -7 9q0 8 15 31q17 27 44 41.5t69 14.5q63 0 99.5 -36t36.5 -93v-197q0 -12 -12 -12h-59
q-10 0 -10 13q0 9 -5 9t-10 -5q-11 -10 -22 -13.5t-20 -3.5h-21zM167 385q15 0 26 9t13 23v3q0 6 -6 6h-63q-5 0 -9.5 -4.5t-4.5 -10.5v-10q0 -6 4 -11t10 -5h30z" />
    <glyph glyph-name="guillemotleft" unicode="&#xab;" horiz-adv-x="574" 
d="M282 237q-4 4 -4 8v71q0 4 4 8l217 154q4 3 8 3q8 0 8 -11v-89q0 -4 -4 -8l-118 -84q-5 -3 -5 -8q0 -3 5 -8l118 -85q4 -4 4 -8v-88q0 -11 -8 -11q-4 0 -8 3zM52 237q-4 4 -4 8v71q0 4 4 8l216 154q4 3 8 3q8 0 8 -11v-89q0 -4 -4 -8l-118 -84q-5 -3 -5 -8q0 -3 1.5 -4.5
l3.5 -3.5l118 -85q4 -4 4 -8v-88q0 -11 -8 -11q-4 0 -8 3z" />
    <glyph glyph-name="logicalnot" unicode="&#xac;" horiz-adv-x="507" 
d="M383 115q-10 0 -10 10v151q0 10 -10 10h-314q-10 0 -10 10v66q0 10 10 10h409q10 0 10 -10v-237q0 -10 -10 -10h-75z" />
    <glyph glyph-name="uni00AD" unicode="&#xad;" horiz-adv-x="278" 
d="M49 172q-10 0 -10 10v94q0 10 10 10h180q10 0 10 -10v-94q0 -10 -10 -10h-180z" />
    <glyph glyph-name="registered" unicode="&#xae;" horiz-adv-x="460" 
d="M228 270q-41 0 -74.5 12.5t-57 35t-36 53.5t-12.5 69v20q0 37 12.5 68.5t36 54t57 35t74.5 12.5h4q41 0 74.5 -12.5t57 -35t36 -54t12.5 -68.5v-20q0 -38 -12.5 -69t-36 -53.5t-57 -35t-74.5 -12.5h-4zM232 300q69 0 109.5 38.5t40.5 101.5v20q0 63 -40.5 101.5
t-109.5 38.5h-4q-69 0 -109.5 -38.5t-40.5 -101.5v-20q0 -63 40.5 -101.5t109.5 -38.5h4zM178 360q-10 0 -10 10v168q0 10 10 10h63q29 0 46 -17t17 -46v-4q0 -12 -8 -24.5t-18 -20.5q-4 -3 -4 -7q0 -3 1.5 -5.5t3.5 -7.5l17 -34q6 -11 6 -14q0 -8 -11 -8h-16q-6 0 -9 6
l-23 53q-3 6 -9 6h-25q-10 0 -10 -10v-45q0 -10 -10 -10h-11zM241 453q14 0 22.5 9t8.5 23v3q0 14 -8.5 23t-22.5 9h-32q-10 0 -10 -10v-47q0 -10 10 -10h32z" />
    <glyph glyph-name="macron" unicode="&#xaf;" horiz-adv-x="500" 
d="M136 539q-10 0 -10 10v85q0 10 10 10h228q10 0 10 -10v-85q0 -10 -10 -10h-228z" />
    <glyph glyph-name="degree" unicode="&#xb0;" horiz-adv-x="293" 
d="M46 532q0 42 27 70t73 28q47 0 74 -26.5t27 -68.5v-96q0 -42 -27 -68.5t-74 -26.5q-46 0 -73 26.5t-27 68.5v93zM166 535q0 8 -6 13.5t-14 5.5q-19 0 -19 -19v-96q0 -19 19 -19q8 0 14 5.5t6 13.5v96z" />
    <glyph glyph-name="plusminus" unicode="&#xb1;" horiz-adv-x="507" 
d="M220 152q-10 0 -10 10v151q0 10 -10 10h-151q-10 0 -10 10v66q0 10 10 10h151q10 0 10 10v152q0 10 10 10h66q10 0 10 -10v-152q0 -10 10 -10h152q10 0 10 -10v-66q0 -10 -10 -10h-152q-10 0 -10 -10v-151q0 -10 -10 -10h-66zM49 0q-10 0 -10 10v66q0 10 10 10h409
q10 0 10 -10v-66q0 -10 -10 -10h-409z" />
    <glyph glyph-name="uni00B2" unicode="&#xb2;" horiz-adv-x="335" 
d="M45 348q-7 0 -7 6v52q0 38 10.5 61.5t27 37.5t36 20.5t38.5 11.5q27 6 46 12.5t19 26.5q0 37 -41 37h-24q-25 0 -48 -37l-3.5 -3.5t-3.5 -1.5t-6 2t-9 4l-55 25q-3 3 -3 6t1 5q20 36 48 57.5t77 21.5h26q60 0 95 -33.5t35 -87.5q0 -28 -12 -45.5t-30 -28.5t-39 -17
t-40 -10q-20 -5 -35 -11t-15 -20v-6q0 -6 8 -6h152q6 0 6 -6v-67q0 -6 -6 -6h-248z" />
    <glyph glyph-name="uni00B3" unicode="&#xb3;" horiz-adv-x="335" 
d="M152 343q-43 0 -66 14t-40 34q-5 5 -12 16.5t-7 16.5q0 6 12 11q5 2 14 5.5l18 7t16.5 6t9.5 2.5q4 0 5.5 -2.5t5.5 -8.5q13 -23 44 -23h15q20 0 32 4.5t12 17.5v17q0 14 -11 17.5t-33 3.5h-57q-7 0 -9.5 2.5t-2.5 10.5v56q0 7 2.5 8.5t9.5 1.5h57q44 0 44 23v7
q0 13 -11.5 17.5t-32.5 4.5h-15q-31 0 -48 -30q-3 -3 -6 -3q-2 0 -5 1t-5 2l-55 25q-6 2 -6 8q0 10 18 31q16 17 40 31t67 14h15q60 0 96 -28.5t36 -77.5v-7q0 -14 -8.5 -29.5t-21.5 -27.5q13 -14 21.5 -29.5t8.5 -29.5v-15q0 -49 -36 -77t-96 -28h-15z" />
    <glyph glyph-name="acute" unicode="&#xb4;" horiz-adv-x="500" 
d="M201 523q-10 0 -10 8q0 3 2 6t4 7l90 138q5 8 14 8h122q11 0 11 -8q0 -5 -7 -12l-142 -140q-9 -7 -16 -7h-68z" />
    <glyph glyph-name="uni00B5" unicode="&#xb5;" horiz-adv-x="478" 
d="M58 -160q-10 0 -10 10v598q0 10 10 10h95q10 0 10 -10v-271q0 -31 20.5 -51.5t50.5 -20.5q29 0 50.5 20.5t21.5 51.5v271q0 10 10 10h94q10 0 10 -10v-438q0 -10 -10 -10h-85q-10 0 -10 9q0 11 -8 11q-2 0 -3.5 -0.5t-3.5 -1.5q-16 -8 -33.5 -13t-32.5 -5q-31 0 -61 8
q-10 3 -10 -8v-150q0 -10 -10 -10h-95z" />
    <glyph glyph-name="paragraph" unicode="&#xb6;" horiz-adv-x="637" 
d="M263 -225q-10 0 -10 10v291q0 10 -10 10h-4q-43 0 -77.5 13.5t-58.5 37.5t-37 56t-13 69v182q0 42 13 76.5t37 58.5t58.5 37.5t77.5 13.5h321q10 0 10 -10v-835q0 -10 -10 -10h-95q-10 0 -10 10v730q0 10 -10 10h-67q-10 0 -10 -10v-730q0 -10 -10 -10h-95z" />
    <glyph glyph-name="periodcentered" unicode="&#xb7;" horiz-adv-x="507" 
d="M321 243q0 -27 -20 -47t-47 -20t-47.5 20t-20.5 47t20 47t47 20t47.5 -20t20.5 -47z" />
    <glyph glyph-name="cedilla" unicode="&#xb8;" horiz-adv-x="500" 
d="M170 -215q-10 0 -10 10v66q0 10 10 10h59q7 0 12.5 5t5.5 12v8q0 7 -5.5 12.5t-12.5 5.5h-40q-10 0 -10 8q0 4 8 20l51 107q3 6 9 6q2 0 7 -1t13 -3l44 -10q9 -2 9 -8q0 -2 -1.5 -6t-3.5 -7l-16 -32q-2 -4 -3.5 -7.5t-1.5 -5.5q0 -4 4 -7q20 -11 31 -29.5t11 -42.5v-8
q0 -47 -32 -75t-79 -28h-59z" />
    <glyph glyph-name="uni00B9" unicode="&#xb9;" horiz-adv-x="335" 
d="M62 348q-6 0 -6 6v67q0 6 6 6h64q8 0 8 7v104q0 4 -4 4q-2 0 -4 -1l-16 -13q-1 -1 -4 -3.5t-5 -2.5q-4 0 -6 2l-43 39q-7 7 -7 9q0 3 2 5l120 112q2 1 4.5 2t4.5 1h42q6 0 6 -7v-251q0 -7 9 -7h63q6 0 6 -6v-67q0 -6 -6 -6h-234z" />
    <glyph glyph-name="ordmasculine" unicode="&#xba;" horiz-adv-x="321" 
d="M25 511q0 57 36.5 93t99.5 36q62 0 98.5 -36t36.5 -93v-87q0 -57 -36.5 -93t-98.5 -36q-63 0 -99.5 36t-36.5 93v87zM206 511q0 19 -13 32t-32 13q-20 0 -32.5 -13.5t-12.5 -31.5v-87q0 -18 12.5 -32t32.5 -14q19 0 32 13.5t13 32.5v87z" />
    <glyph glyph-name="guillemotright" unicode="&#xbb;" horiz-adv-x="574" 
d="M290 180q0 4 4 8l118 85q5 5 5 8q0 5 -5 8l-118 84q-4 4 -4 8v89q0 11 8 11q3 0 8 -3l216 -154q4 -4 4 -8v-71q0 -4 -4 -8l-216 -153q-5 -3 -8 -3q-8 0 -8 11v88zM59 180q0 4 4 8l117 85q5 5 5 8t-5 8l-117 84q-4 4 -4 8v89q0 11 8 11q3 0 8 -3l216 -154q4 -4 4 -8v-71
q0 -4 -4 -8l-216 -153q-5 -3 -8 -3q-8 0 -8 11v88z" />
    <glyph glyph-name="onequarter" unicode="&#xbc;" horiz-adv-x="863" 
d="M62 251q-6 0 -6 6v67q0 6 6 6h64q8 0 8 7v104q0 4 -4 4q-2 0 -4 -1l-16 -13q-1 -1 -4 -3.5t-5 -2.5q-4 0 -6 2l-43 39q-7 7 -7 9q0 3 2 5l120 112q2 1 4.5 2t4.5 1h42q6 0 6 -7v-251q0 -7 9 -7h63q6 0 6 -6v-67q0 -6 -6 -6h-234zM711 0q-5 0 -8 4t-3 15v39q0 10 -9 10
h-134q-11 0 -11 14v55l158 195l4.5 4.5t4.5 2.5h63q12 0 12 -10v-175q0 -6 6 -6h40q5 0 8 -4t3 -15v-42q0 -19 -11 -19h-40q-6 0 -6 -7v-42q0 -11 -2.5 -15t-9.5 -4h-65zM694 148q5 0 5.5 1.5t0.5 6.5v48q0 5 -2 5t-7 -7l-34 -44q-5 -7 -5 -8q0 -2 5 -2h37zM290 0
q-10 0 -10 8q0 3 2 7.5t4 10.5l256 598q3 6 9 6h54q10 0 10 -8q0 -6 -5 -16l-257 -600q-3 -6 -9 -6h-54z" />
    <glyph glyph-name="onehalf" unicode="&#xbd;" horiz-adv-x="863" 
d="M62 251q-6 0 -6 6v67q0 6 6 6h64q8 0 8 7v104q0 4 -4 4q-2 0 -4 -1l-16 -13q-1 -1 -4 -3.5t-5 -2.5q-4 0 -6 2l-43 39q-7 7 -7 9q0 3 2 5l120 112q2 1 4.5 2t4.5 1h42q6 0 6 -7v-251q0 -7 9 -7h63q6 0 6 -6v-67q0 -6 -6 -6h-234zM573 0q-7 0 -7 6v52q0 38 10.5 61.5
t27 37.5t36 20.5t38.5 11.5q27 6 46 12.5t19 26.5q0 37 -41 37h-24q-25 0 -48 -37l-3.5 -3.5t-3.5 -1.5t-6 2t-9 4l-55 25q-3 3 -3 6t1 5q20 36 48 57.5t77 21.5h26q60 0 95 -33.5t35 -87.5q0 -28 -12 -45.5t-30 -28.5t-39 -17t-40 -10q-20 -5 -35 -11t-15 -20v-6q0 -6 8 -6
h152q6 0 6 -6v-67q0 -6 -6 -6h-248zM280 0q-10 0 -10 8q0 3 2 7.5t4 10.5l256 598q3 6 9 6h54q10 0 10 -8q0 -6 -5 -16l-257 -600q-3 -6 -9 -6h-54z" />
    <glyph glyph-name="threequarters" unicode="&#xbe;" horiz-adv-x="863" 
d="M152 246q-43 0 -66 14t-40 34q-5 5 -12 16.5t-7 16.5q0 6 12 11q5 2 14 5.5l18 7t16.5 6t9.5 2.5q4 0 5.5 -2.5t5.5 -8.5q13 -23 44 -23h15q20 0 32 4.5t12 17.5v17q0 14 -11 17.5t-33 3.5h-57q-7 0 -9.5 2.5t-2.5 10.5v56q0 7 2.5 8.5t9.5 1.5h57q44 0 44 23v7
q0 13 -11.5 17.5t-32.5 4.5h-15q-31 0 -48 -30q-3 -3 -6 -3q-2 0 -5 1t-5 2l-55 25q-6 2 -6 8q0 10 18 31q16 17 40 31t67 14h15q60 0 96 -28.5t36 -77.5v-7q0 -14 -8.5 -29.5t-21.5 -27.5q13 -14 21.5 -29.5t8.5 -29.5v-15q0 -49 -36 -77t-96 -28h-15zM711 0q-5 0 -8 4
t-3 15v39q0 10 -9 10h-134q-11 0 -11 14v55l158 195l4.5 4.5t4.5 2.5h63q12 0 12 -10v-175q0 -6 6 -6h40q5 0 8 -4t3 -15v-42q0 -19 -11 -19h-40q-6 0 -6 -7v-42q0 -11 -2.5 -15t-9.5 -4h-65zM694 148q5 0 5.5 1.5t0.5 6.5v48q0 5 -2 5t-7 -7l-34 -44q-5 -7 -5 -8q0 -2 5 -2
h37zM280 0q-10 0 -10 8q0 3 2 7.5t4 10.5l256 598q3 6 9 6h54q10 0 10 -8q0 -6 -5 -16l-257 -600q-3 -6 -9 -6h-54z" />
    <glyph glyph-name="questiondown" unicode="&#xbf;" horiz-adv-x="475" 
d="M341 401q0 -27 -20 -47t-47 -20t-47 20t-20 47t20 47t47 20t47 -20t20 -47zM235 -182q-42 0 -76.5 13t-59 36.5t-37.5 56t-13 71.5q0 44 12 72.5t30 47t40.5 30t43.5 21.5q12 6 22.5 11.5t18.5 13t12.5 17.5t4.5 24q0 18 -3 29.5t-3 16.5q0 8 10 8h95q8 0 10 -8
q2 -14 4 -30t2 -30q0 -35 -11 -58.5t-28.5 -39.5t-38.5 -27.5t-42 -21.5q-26 -13 -45 -29t-19 -47q0 -30 20.5 -51t50.5 -21h36q20 0 38.5 13.5t32.5 45.5q3 7 8 7q3 0 6 -1.5t6 -3.5l80 -41q6 -3 6 -7q0 -5 -6 -15.5t-13 -21.5q-23 -35 -59 -58t-99 -23h-36z" />
    <glyph glyph-name="Agrave" unicode="&#xc0;" horiz-adv-x="450" 
d="M3 0q-11 0 -11 8q0 3 1.5 7.5l3.5 10.5l182 597q1 7 10 7h72q9 0 10 -7l182 -597q2 -5 3.5 -10t1.5 -8q0 -8 -11 -8h-101q-9 0 -10 7l-30 105q-1 6 -10 6h-143q-9 0 -10 -6l-30 -105q-1 -7 -10 -7h-100zM261 223q11 0 11 9q0 3 -1.5 8.5t-3.5 10.5l-29 117
q-1 3 -2.5 10.5t-3 16.5t-3 17t-2.5 11h-3l-12 -55l-30 -116q-2 -5 -3.5 -11t-1.5 -9q0 -9 11 -9h73zM216 695q-7 0 -16 7l-142 140q-7 7 -7 12q0 8 11 8h122q9 0 14 -8l90 -138q2 -4 4 -7t2 -6q0 -8 -10 -8h-68z" />
    <glyph glyph-name="Aacute" unicode="&#xc1;" horiz-adv-x="450" 
d="M3 0q-11 0 -11 8q0 3 1.5 7.5l3.5 10.5l182 597q1 7 10 7h72q9 0 10 -7l182 -597q2 -5 3.5 -10t1.5 -8q0 -8 -11 -8h-101q-9 0 -10 7l-30 105q-1 6 -10 6h-143q-9 0 -10 -6l-30 -105q-1 -7 -10 -7h-100zM261 223q11 0 11 9q0 3 -1.5 8.5t-3.5 10.5l-29 117
q-1 3 -2.5 10.5t-3 16.5t-3 17t-2.5 11h-3l-12 -55l-30 -116q-2 -5 -3.5 -11t-1.5 -9q0 -9 11 -9h73zM185 695q-10 0 -10 8q0 3 2 6t4 7l90 138q5 8 14 8h122q11 0 11 -8q0 -5 -7 -12l-142 -140q-9 -7 -16 -7h-68z" />
    <glyph glyph-name="Acircumflex" unicode="&#xc2;" horiz-adv-x="450" 
d="M3 0q-11 0 -11 8q0 3 1.5 7.5l3.5 10.5l182 597q1 7 10 7h72q9 0 10 -7l182 -597q2 -5 3.5 -10t1.5 -8q0 -8 -11 -8h-101q-9 0 -10 7l-30 105q-1 6 -10 6h-143q-9 0 -10 -6l-30 -105q-1 -7 -10 -7h-100zM261 223q11 0 11 9q0 3 -1.5 8.5t-3.5 10.5l-29 117
q-1 3 -2.5 10.5t-3 16.5t-3 17t-2.5 11h-3l-12 -55l-30 -116q-2 -5 -3.5 -11t-1.5 -9q0 -9 11 -9h73zM112 692q-11 0 -11 8q0 3 3 8l104 147q4 4 8 4h49q4 0 8 -4l105 -147q3 -5 3 -8q0 -8 -11 -8h-81q-5 0 -8 5l-33 51q-3 6 -8 6q-4 0 -7 -6l-32 -51q-3 -5 -8 -5h-81z" />
    <glyph glyph-name="Atilde" unicode="&#xc3;" horiz-adv-x="450" 
d="M3 0q-11 0 -11 8q0 3 1.5 7.5l3.5 10.5l182 597q1 7 10 7h72q9 0 10 -7l182 -597q2 -5 3.5 -10t1.5 -8q0 -8 -11 -8h-101q-9 0 -10 7l-30 105q-1 6 -10 6h-143q-9 0 -10 -6l-30 -105q-1 -7 -10 -7h-100zM261 223q11 0 11 9q0 3 -1.5 8.5t-3.5 10.5l-29 117
q-1 3 -2.5 10.5t-3 16.5t-3 17t-2.5 11h-3l-12 -55l-30 -116q-2 -5 -3.5 -11t-1.5 -9q0 -9 11 -9h73zM85 749q-4 3 -4 8q0 6 14 28q20 32 41.5 45t45.5 13q17 0 33.5 -6.5t34.5 -19.5l17 -12q6 -5 14 -8t14 -3q10 0 20 6.5t23 27.5q3 6 8 6q3 0 5.5 -2t5.5 -4l36 -29
q4 -3 4 -8q0 -3 -5 -12t-13 -22q-38 -55 -84 -55q-17 0 -33 8.5t-36 20.5l-18 11q-6 4 -13 7t-13 3q-10 0 -19.5 -6.5t-21.5 -24.5q-3 -6 -8 -6q-3 0 -14 9z" />
    <glyph glyph-name="Adieresis" unicode="&#xc4;" horiz-adv-x="450" 
d="M3 0q-11 0 -11 8q0 3 1.5 7.5l3.5 10.5l182 597q1 7 10 7h72q9 0 10 -7l182 -597q2 -5 3.5 -10t1.5 -8q0 -8 -11 -8h-101q-9 0 -10 7l-30 105q-1 6 -10 6h-143q-9 0 -10 -6l-30 -105q-1 -7 -10 -7h-100zM261 223q11 0 11 9q0 3 -1.5 8.5t-3.5 10.5l-29 117
q-1 3 -2.5 10.5t-3 16.5t-3 17t-2.5 11h-3l-12 -55l-30 -116q-2 -5 -3.5 -11t-1.5 -9q0 -9 11 -9h73zM384 763q0 -26 -18 -44t-44 -18t-44 18t-18 44t18 44t44 18t44 -18t18 -44zM215 763q0 -26 -18 -44t-44 -18t-44 18t-18 44t18 44t44 18t44 -18t18 -44z" />
    <glyph glyph-name="Aring" unicode="&#xc5;" horiz-adv-x="450" 
d="M3 0q-11 0 -11 8q0 3 1.5 7.5l3.5 10.5l182 597q1 7 10 7h72q9 0 10 -7l182 -597q2 -5 3.5 -10t1.5 -8q0 -8 -11 -8h-101q-9 0 -10 7l-30 105q-1 6 -10 6h-143q-9 0 -10 -6l-30 -105q-1 -7 -10 -7h-100zM261 223q11 0 11 9q0 3 -1.5 8.5t-3.5 10.5l-29 117
q-1 3 -2.5 10.5t-3 16.5t-3 17t-2.5 11h-3l-12 -55l-30 -116q-2 -5 -3.5 -11t-1.5 -9q0 -9 11 -9h73zM126 681q0 42 27 68.5t73 26.5t73 -26.5t27 -68.5v-29q0 -42 -27 -68.5t-73 -26.5t-73 26.5t-27 68.5v29zM255 681q0 11 -9 20t-20 9t-20 -9t-9 -20v-29q0 -11 9 -19.5
t20 -8.5t20 8.5t9 19.5v29z" />
    <glyph glyph-name="AE" unicode="&#xc6;" horiz-adv-x="686" 
d="M-61 0q-11 0 -11 8q0 3 3 8.5t8 13.5l351 595q3 5 9 5h339q10 0 10 -10v-85q0 -10 -10 -10h-238q-10 0 -10 -10v-133q0 -10 10 -10h195q10 0 10 -10v-85q0 -10 -10 -10h-195q-10 0 -10 -10v-142q0 -10 10 -10h238q10 0 10 -10v-85q0 -10 -10 -10h-353q-10 0 -10 10v118
q0 10 -10 10h-133q-7 0 -10 -4l-72 -129q-3 -5 -9 -5h-102zM265 243q10 0 10 10v40q0 36 2 70.5t4 52.5l-4 1q-1 -3 -4 -10.5t-7 -15.5l-7.5 -15t-4.5 -10l-55 -101q-2 -5 -4 -8.5t-2 -5.5q0 -8 11 -8h61z" />
    <glyph glyph-name="Ccedilla" unicode="&#xc7;" horiz-adv-x="484" 
d="M163 -215q-10 0 -10 10v66q0 10 10 10h59q7 0 12.5 5t5.5 12v8q0 7 -5.5 12.5t-12.5 5.5h-40q-10 0 -10 8q0 4 8 20l15 32q4 8 4 12q0 2 -1.5 4.5t-8.5 4.5q-64 14 -100 60t-36 112v296q0 39 13 71.5t37 56t58.5 36.5t77.5 13h49q63 0 99 -23t59 -58q7 -11 13 -21.5
t6 -15.5q0 -4 -6 -7l-80 -41q-3 -2 -6 -3.5t-6 -1.5q-5 0 -8 7q-14 32 -32.5 45.5t-38.5 13.5h-49q-29 0 -50.5 -21.5t-21.5 -50.5v-296q0 -29 21.5 -50.5t50.5 -21.5h49q20 0 38.5 13.5t32.5 45.5q3 7 8 7q3 0 6 -1.5t6 -3.5l80 -41q6 -3 6 -7q0 -5 -6 -15.5t-13 -21.5
q-21 -33 -54 -55.5t-89 -25.5q-10 -1 -13 -4t-3 -11q0 -4 4 -7q20 -11 31 -29.5t11 -42.5v-8q0 -47 -32 -75t-79 -28h-59z" />
    <glyph glyph-name="Egrave" unicode="&#xc8;" horiz-adv-x="478" 
d="M77 0q-10 0 -10 10v610q0 10 10 10h353q10 0 10 -10v-85q0 -10 -10 -10h-238q-10 0 -10 -10v-133q0 -10 10 -10h195q10 0 10 -10v-85q0 -10 -10 -10h-195q-10 0 -10 -10v-142q0 -10 10 -10h238q10 0 10 -10v-85q0 -10 -10 -10h-353zM265 695q-7 0 -16 7l-142 140
q-7 7 -7 12q0 8 11 8h122q9 0 14 -8l90 -138q2 -4 4 -7t2 -6q0 -8 -10 -8h-68z" />
    <glyph glyph-name="Eacute" unicode="&#xc9;" horiz-adv-x="478" 
d="M77 0q-10 0 -10 10v610q0 10 10 10h353q10 0 10 -10v-85q0 -10 -10 -10h-238q-10 0 -10 -10v-133q0 -10 10 -10h195q10 0 10 -10v-85q0 -10 -10 -10h-195q-10 0 -10 -10v-142q0 -10 10 -10h238q10 0 10 -10v-85q0 -10 -10 -10h-353zM195 695q-10 0 -10 8q0 3 2 6t4 7
l90 138q5 8 14 8h122q11 0 11 -8q0 -5 -7 -12l-142 -140q-9 -7 -16 -7h-68z" />
    <glyph glyph-name="Ecircumflex" unicode="&#xca;" horiz-adv-x="478" 
d="M77 0q-10 0 -10 10v610q0 10 10 10h353q10 0 10 -10v-85q0 -10 -10 -10h-238q-10 0 -10 -10v-133q0 -10 10 -10h195q10 0 10 -10v-85q0 -10 -10 -10h-195q-10 0 -10 -10v-142q0 -10 10 -10h238q10 0 10 -10v-85q0 -10 -10 -10h-353zM141 692q-11 0 -11 8q0 3 3 8l104 147
q4 4 8 4h49q4 0 8 -4l105 -147q3 -5 3 -8q0 -8 -11 -8h-81q-5 0 -8 5l-33 51q-3 6 -8 6q-4 0 -7 -6l-32 -51q-3 -5 -8 -5h-81z" />
    <glyph glyph-name="Edieresis" unicode="&#xcb;" horiz-adv-x="478" 
d="M77 0q-10 0 -10 10v610q0 10 10 10h353q10 0 10 -10v-85q0 -10 -10 -10h-238q-10 0 -10 -10v-133q0 -10 10 -10h195q10 0 10 -10v-85q0 -10 -10 -10h-195q-10 0 -10 -10v-142q0 -10 10 -10h238q10 0 10 -10v-85q0 -10 -10 -10h-353zM413 763q0 -26 -18 -44t-44 -18
t-44 18t-18 44t18 44t44 18t44 -18t18 -44zM244 763q0 -26 -18 -44t-44 -18t-44 18t-18 44t18 44t44 18t44 -18t18 -44z" />
    <glyph glyph-name="Igrave" unicode="&#xcc;" horiz-adv-x="249" 
d="M77 0q-10 0 -10 10v610q0 10 10 10h95q10 0 10 -10v-610q0 -10 -10 -10h-95zM115 695q-7 0 -16 7l-142 140q-7 7 -7 12q0 8 11 8h122q9 0 14 -8l90 -138q2 -4 4 -7t2 -6q0 -8 -10 -8h-68z" />
    <glyph glyph-name="Iacute" unicode="&#xcd;" horiz-adv-x="249" 
d="M77 0q-10 0 -10 10v610q0 10 10 10h95q10 0 10 -10v-610q0 -10 -10 -10h-95zM84 695q-10 0 -10 8q0 3 2 6t4 7l90 138q5 8 14 8h122q11 0 11 -8q0 -5 -7 -12l-142 -140q-9 -7 -16 -7h-68z" />
    <glyph glyph-name="Icircumflex" unicode="&#xce;" horiz-adv-x="249" 
d="M77 0q-10 0 -10 10v610q0 10 10 10h95q10 0 10 -10v-610q0 -10 -10 -10h-95zM11 692q-11 0 -11 8q0 3 3 8l104 147q4 4 8 4h49q4 0 8 -4l105 -147q3 -5 3 -8q0 -8 -11 -8h-81q-5 0 -8 5l-33 51q-3 6 -8 6q-4 0 -7 -6l-32 -51q-3 -5 -8 -5h-81z" />
    <glyph glyph-name="Idieresis" unicode="&#xcf;" horiz-adv-x="249" 
d="M77 0q-10 0 -10 10v610q0 10 10 10h95q10 0 10 -10v-610q0 -10 -10 -10h-95zM283 763q0 -26 -18 -44t-44 -18t-44 18t-18 44t18 44t44 18t44 -18t18 -44zM114 763q0 -26 -18 -44t-44 -18t-44 18t-18 44t18 44t44 18t44 -18t18 -44z" />
    <glyph glyph-name="Eth" unicode="&#xd0;" horiz-adv-x="541" 
d="M77 0q-10 0 -10 10v238q0 10 -11 10h-31q-10 0 -10 10v94q0 10 10 10h31q11 0 11 11v237q0 10 10 10h225q86 0 136 -50.5t50 -135.5v-258q0 -86 -50 -136t-136 -50h-225zM302 105q29 0 50.5 20.5t21.5 51.5v276q0 29 -21.5 50.5t-50.5 21.5h-110q-10 0 -10 -10v-133
q0 -10 11 -10h76q10 0 10 -10v-94q0 -10 -10 -10h-76q-11 0 -11 -11v-132q0 -10 10 -10h110z" />
    <glyph glyph-name="Ntilde" unicode="&#xd1;" horiz-adv-x="550" 
d="M77 0q-10 0 -10 10v610q0 10 10 10h84q6 0 9 -5l179 -328q1 -3 4.5 -10t6.5 -15t6 -15.5t4 -10.5l4 1q-1 9 -2 37.5t-2 65.5t-1.5 75.5t-0.5 68.5v126q0 10 10 10h94q10 0 10 -10v-610q0 -10 -10 -10h-83q-6 0 -9 5l-179 326q-2 3 -5 10t-6 15t-6 15.5t-4 10.5l-4 -1
q1 -9 2 -37.5t2 -65.5t1.5 -75.5t0.5 -68.5v-124q0 -10 -10 -10h-95zM134 749q-4 3 -4 8q0 6 14 28q20 32 41.5 45t45.5 13q17 0 33.5 -6.5t34.5 -19.5l17 -12q6 -5 14 -8t14 -3q10 0 20 6.5t23 27.5q3 6 8 6q3 0 5.5 -2t5.5 -4l36 -29q4 -3 4 -8q0 -3 -5 -12t-13 -22
q-38 -55 -84 -55q-17 0 -33 8.5t-36 20.5l-18 11q-6 4 -13 7t-13 3q-10 0 -19.5 -6.5t-21.5 -24.5q-3 -6 -8 -6q-3 0 -14 9z" />
    <glyph glyph-name="Ograve" unicode="&#xd2;" 
d="M239 -10q-43 0 -77.5 13t-58.5 36.5t-37 56t-13 71.5v296q0 39 13 71.5t37 56t58.5 36.5t77.5 13h49q42 0 76.5 -13t59 -36.5t37.5 -56t13 -71.5v-296q0 -39 -13 -71.5t-37.5 -56t-59 -36.5t-76.5 -13h-49zM288 95q30 0 50.5 21t20.5 51v296q0 30 -20.5 51t-50.5 21h-49
q-29 0 -50.5 -21.5t-21.5 -50.5v-296q0 -29 21.5 -50.5t50.5 -21.5h49zM273 695q-7 0 -16 7l-142 140q-7 7 -7 12q0 8 11 8h122q9 0 14 -8l90 -138q2 -4 4 -7t2 -6q0 -8 -10 -8h-68z" />
    <glyph glyph-name="Oacute" unicode="&#xd3;" 
d="M239 -10q-43 0 -77.5 13t-58.5 36.5t-37 56t-13 71.5v296q0 39 13 71.5t37 56t58.5 36.5t77.5 13h49q42 0 76.5 -13t59 -36.5t37.5 -56t13 -71.5v-296q0 -39 -13 -71.5t-37.5 -56t-59 -36.5t-76.5 -13h-49zM288 95q30 0 50.5 21t20.5 51v296q0 30 -20.5 51t-50.5 21h-49
q-29 0 -50.5 -21.5t-21.5 -50.5v-296q0 -29 21.5 -50.5t50.5 -21.5h49zM193 695q-10 0 -10 8q0 3 2 6t4 7l90 138q5 8 14 8h122q11 0 11 -8q0 -5 -7 -12l-142 -140q-9 -7 -16 -7h-68z" />
    <glyph glyph-name="Ocircumflex" unicode="&#xd4;" 
d="M239 -10q-43 0 -77.5 13t-58.5 36.5t-37 56t-13 71.5v296q0 39 13 71.5t37 56t58.5 36.5t77.5 13h49q42 0 76.5 -13t59 -36.5t37.5 -56t13 -71.5v-296q0 -39 -13 -71.5t-37.5 -56t-59 -36.5t-76.5 -13h-49zM288 95q30 0 50.5 21t20.5 51v296q0 30 -20.5 51t-50.5 21h-49
q-29 0 -50.5 -21.5t-21.5 -50.5v-296q0 -29 21.5 -50.5t50.5 -21.5h49zM149 692q-11 0 -11 8q0 3 3 8l104 147q4 4 8 4h49q4 0 8 -4l105 -147q3 -5 3 -8q0 -8 -11 -8h-81q-5 0 -8 5l-33 51q-3 6 -8 6q-4 0 -7 -6l-32 -51q-3 -5 -8 -5h-81z" />
    <glyph glyph-name="Otilde" unicode="&#xd5;" 
d="M239 -10q-43 0 -77.5 13t-58.5 36.5t-37 56t-13 71.5v296q0 39 13 71.5t37 56t58.5 36.5t77.5 13h49q42 0 76.5 -13t59 -36.5t37.5 -56t13 -71.5v-296q0 -39 -13 -71.5t-37.5 -56t-59 -36.5t-76.5 -13h-49zM288 95q30 0 50.5 21t20.5 51v296q0 30 -20.5 51t-50.5 21h-49
q-29 0 -50.5 -21.5t-21.5 -50.5v-296q0 -29 21.5 -50.5t50.5 -21.5h49zM122 749q-4 3 -4 8q0 6 14 28q20 32 41.5 45t45.5 13q17 0 33.5 -6.5t34.5 -19.5l17 -12q6 -5 14 -8t14 -3q10 0 20 6.5t23 27.5q3 6 8 6q3 0 5.5 -2t5.5 -4l36 -29q4 -3 4 -8q0 -3 -5 -12t-13 -22
q-38 -55 -84 -55q-17 0 -33 8.5t-36 20.5l-18 11q-6 4 -13 7t-13 3q-10 0 -19.5 -6.5t-21.5 -24.5q-3 -6 -8 -6q-3 0 -14 9z" />
    <glyph glyph-name="Odieresis" unicode="&#xd6;" 
d="M239 -10q-43 0 -77.5 13t-58.5 36.5t-37 56t-13 71.5v296q0 39 13 71.5t37 56t58.5 36.5t77.5 13h49q42 0 76.5 -13t59 -36.5t37.5 -56t13 -71.5v-296q0 -39 -13 -71.5t-37.5 -56t-59 -36.5t-76.5 -13h-49zM288 95q30 0 50.5 21t20.5 51v296q0 30 -20.5 51t-50.5 21h-49
q-29 0 -50.5 -21.5t-21.5 -50.5v-296q0 -29 21.5 -50.5t50.5 -21.5h49zM421 763q0 -26 -18 -44t-44 -18t-44 18t-18 44t18 44t44 18t44 -18t18 -44zM252 763q0 -26 -18 -44t-44 -18t-44 18t-18 44t18 44t44 18t44 -18t18 -44z" />
    <glyph glyph-name="multiply" unicode="&#xd7;" horiz-adv-x="507" 
d="M65 101q-4 3 -4 7q0 3 4 7l121 121q4 4 4 7q0 2 -4 8l-121 121q-4 3 -4 7q0 3 4 7l46 47q4 4 7 4q2 0 8 -4l121 -122q3 -4 7 -4q3 0 7 4l121 121q4 4 7 4q1 0 7 -4l47 -46q4 -6 4 -8q0 -3 -4 -7l-121 -120q-4 -4 -4 -8t4 -7l121 -120q4 -6 4 -8q0 -3 -4 -7l-47 -46
q-4 -4 -7 -4q-4 0 -7 4l-121 121q-6 4 -7 4q-3 0 -7 -4l-121 -122q-4 -4 -8 -4t-7 4z" />
    <glyph glyph-name="Oslash" unicode="&#xd8;" 
d="M239 -10q-43 0 -77.5 13t-58.5 36.5t-37 56t-13 71.5v296q0 39 13 71.5t37 56t58.5 36.5t77.5 13h49q42 0 76.5 -13t59 -36.5t37.5 -56t13 -71.5v-296q0 -39 -13 -71.5t-37.5 -56t-59 -36.5t-76.5 -13h-49zM314 514q2 6 2 7q0 8 -7 10q-5 2 -10 3t-11 1h-49
q-29 0 -50.5 -21.5t-21.5 -50.5v-212q0 -9 7 -9q4 0 7 5zM288 95q30 0 50.5 21t20.5 51v261q0 8 -6 8q-5 0 -7 -5l-149 -299q-2 -4 -3 -7t-1 -6q0 -7 6 -11q19 -13 40 -13h49z" />
    <glyph glyph-name="Ugrave" unicode="&#xd9;" 
d="M239 -10q-43 0 -77.5 13t-58.5 36.5t-37 56t-13 71.5v453q0 10 10 10h94q10 0 10 -10v-453q0 -29 21.5 -50.5t50.5 -21.5h49q30 0 50.5 21t20.5 51v453q0 10 10 10h95q10 0 10 -10v-453q0 -39 -13 -71.5t-37.5 -56t-59 -36.5t-76.5 -13h-49zM253 695q-7 0 -16 7l-142 140
q-7 7 -7 12q0 8 11 8h122q9 0 14 -8l90 -138q2 -4 4 -7t2 -6q0 -8 -10 -8h-68z" />
    <glyph glyph-name="Uacute" unicode="&#xda;" 
d="M239 -10q-43 0 -77.5 13t-58.5 36.5t-37 56t-13 71.5v453q0 10 10 10h94q10 0 10 -10v-453q0 -29 21.5 -50.5t50.5 -21.5h49q30 0 50.5 21t20.5 51v453q0 10 10 10h95q10 0 10 -10v-453q0 -39 -13 -71.5t-37.5 -56t-59 -36.5t-76.5 -13h-49zM222 695q-10 0 -10 8q0 3 2 6
t4 7l90 138q5 8 14 8h122q11 0 11 -8q0 -5 -7 -12l-142 -140q-9 -7 -16 -7h-68z" />
    <glyph glyph-name="Ucircumflex" unicode="&#xdb;" 
d="M239 -10q-43 0 -77.5 13t-58.5 36.5t-37 56t-13 71.5v453q0 10 10 10h94q10 0 10 -10v-453q0 -29 21.5 -50.5t50.5 -21.5h49q30 0 50.5 21t20.5 51v453q0 10 10 10h95q10 0 10 -10v-453q0 -39 -13 -71.5t-37.5 -56t-59 -36.5t-76.5 -13h-49zM149 692q-11 0 -11 8q0 3 3 8
l104 147q4 4 8 4h49q4 0 8 -4l105 -147q3 -5 3 -8q0 -8 -11 -8h-81q-5 0 -8 5l-33 51q-3 6 -8 6q-4 0 -7 -6l-32 -51q-3 -5 -8 -5h-81z" />
    <glyph glyph-name="Udieresis" unicode="&#xdc;" 
d="M239 -10q-43 0 -77.5 13t-58.5 36.5t-37 56t-13 71.5v453q0 10 10 10h94q10 0 10 -10v-453q0 -29 21.5 -50.5t50.5 -21.5h49q30 0 50.5 21t20.5 51v453q0 10 10 10h95q10 0 10 -10v-453q0 -39 -13 -71.5t-37.5 -56t-59 -36.5t-76.5 -13h-49zM421 763q0 -26 -18 -44
t-44 -18t-44 18t-18 44t18 44t44 18t44 -18t18 -44zM252 763q0 -26 -18 -44t-44 -18t-44 18t-18 44t18 44t44 18t44 -18t18 -44z" />
    <glyph glyph-name="Yacute" unicode="&#xdd;" horiz-adv-x="450" 
d="M177 0q-10 0 -10 10v264q0 8 -1 13t-6 14l-163 305q-7 12 -7 16q0 8 11 8h111q5 0 9 -6l95 -196q3 -8 9 -8t9 8l95 196q4 6 9 6h110q11 0 11 -8q0 -3 -2.5 -7t-4.5 -9l-163 -305q-4 -8 -5.5 -13.5t-1.5 -14.5v-263q0 -10 -10 -10h-95zM185 695q-10 0 -10 8q0 3 2 6t4 7
l90 138q5 8 14 8h122q11 0 11 -8q0 -5 -7 -12l-142 -140q-9 -7 -16 -7h-68z" />
    <glyph glyph-name="Thorn" unicode="&#xde;" horiz-adv-x="483" 
d="M77 0q-10 0 -10 10v610q0 10 10 10h95q10 0 10 -10v-99q0 -11 11 -11h89q43 0 77.5 -13.5t58.5 -37.5t37 -58.5t13 -76.5q0 -37 -13 -69.5t-37 -56.5t-58.5 -37.5t-77.5 -13.5h-90q-10 0 -10 -10v-127q0 -10 -10 -10h-95zM282 252q29 0 50.5 21.5t21.5 50.5v9
q0 29 -21.5 50.5t-50.5 21.5h-90q-10 0 -10 -10v-133q0 -10 10 -10h90z" />
    <glyph glyph-name="germandbls" unicode="&#xdf;" horiz-adv-x="491" 
d="M82 0q-10 0 -10 10v290q0 10 -10 10h-23q-10 0 -10 10v85q0 10 10 10h23q10 0 10 10v28q0 38 14.5 72t40 59.5t59.5 40.5t72 15q85 0 135.5 -50.5t50.5 -136.5v-19q0 -28 -16 -58t-37 -50q-4 -3 -4 -7q0 -3 4 -7q21 -21 37 -53t16 -60v-24q0 -64 -30 -108t-89 -64
q-20 -7 -41 -10t-31 -3t-10 10v86q0 10 9 10q40 3 58.5 23.5t18.5 47.5v29q0 27 -18.5 47t-58.5 23q-9 0 -9 10v87q0 10 9 10q40 3 58.5 23.5t18.5 47.5v19q0 30 -20.5 51t-50.5 21q-32 0 -52 -21.5t-20 -50.5v-453q0 -10 -10 -10h-94z" />
    <glyph glyph-name="agrave" unicode="&#xe0;" horiz-adv-x="465" 
d="M188 0q-30 0 -55.5 9.5t-44.5 27.5t-30 42.5t-11 54.5v5q0 31 11 55.5t30 42t44.5 27t55.5 9.5h96q10 0 10 10v12q0 29 -21 48.5t-52 19.5q-18 0 -36.5 -12.5t-36.5 -44.5q-3 -6 -8 -6q-3 0 -6 1.5t-6 3.5l-76 40q-6 3 -6 7t6.5 16.5t14.5 23.5q24 36 60 56t94 20
q43 0 77.5 -13t59 -36t37.5 -55.5t13 -71.5v-282q0 -10 -10 -10h-85q-10 0 -10 8q0 13 -7 13q-5 0 -9 -3q-33 -18 -61 -18h-38zM226 105q24 0 44 17t24 39v16h-106q-11 0 -19 -8.5t-8 -19.5v-15q0 -12 7.5 -20.5t19.5 -8.5h38zM233 523q-7 0 -16 7l-142 140q-7 7 -7 12
q0 8 11 8h122q9 0 14 -8l90 -138q2 -4 4 -7t2 -6q0 -8 -10 -8h-68z" />
    <glyph glyph-name="aacute" unicode="&#xe1;" horiz-adv-x="465" 
d="M188 0q-30 0 -55.5 9.5t-44.5 27.5t-30 42.5t-11 54.5v5q0 31 11 55.5t30 42t44.5 27t55.5 9.5h96q10 0 10 10v12q0 29 -21 48.5t-52 19.5q-18 0 -36.5 -12.5t-36.5 -44.5q-3 -6 -8 -6q-3 0 -6 1.5t-6 3.5l-76 40q-6 3 -6 7t6.5 16.5t14.5 23.5q24 36 60 56t94 20
q43 0 77.5 -13t59 -36t37.5 -55.5t13 -71.5v-282q0 -10 -10 -10h-85q-10 0 -10 8q0 13 -7 13q-5 0 -9 -3q-33 -18 -61 -18h-38zM226 105q24 0 44 17t24 39v16h-106q-11 0 -19 -8.5t-8 -19.5v-15q0 -12 7.5 -20.5t19.5 -8.5h38zM164 523q-10 0 -10 8q0 3 2 6t4 7l90 138
q5 8 14 8h122q11 0 11 -8q0 -5 -7 -12l-142 -140q-9 -7 -16 -7h-68z" />
    <glyph glyph-name="acircumflex" unicode="&#xe2;" horiz-adv-x="465" 
d="M188 0q-30 0 -55.5 9.5t-44.5 27.5t-30 42.5t-11 54.5v5q0 31 11 55.5t30 42t44.5 27t55.5 9.5h96q10 0 10 10v12q0 29 -21 48.5t-52 19.5q-18 0 -36.5 -12.5t-36.5 -44.5q-3 -6 -8 -6q-3 0 -6 1.5t-6 3.5l-76 40q-6 3 -6 7t6.5 16.5t14.5 23.5q24 36 60 56t94 20
q43 0 77.5 -13t59 -36t37.5 -55.5t13 -71.5v-282q0 -10 -10 -10h-85q-10 0 -10 8q0 13 -7 13q-5 0 -9 -3q-33 -18 -61 -18h-38zM226 105q24 0 44 17t24 39v16h-106q-11 0 -19 -8.5t-8 -19.5v-15q0 -12 7.5 -20.5t19.5 -8.5h38zM104 523q-11 0 -11 8q0 3 3 8l104 147q4 4 8 4
h49q4 0 8 -4l105 -147q3 -5 3 -8q0 -8 -11 -8h-81q-5 0 -8 5l-33 51q-3 6 -8 6q-4 0 -7 -6l-32 -51q-3 -5 -8 -5h-81z" />
    <glyph glyph-name="atilde" unicode="&#xe3;" horiz-adv-x="465" 
d="M188 0q-30 0 -55.5 9.5t-44.5 27.5t-30 42.5t-11 54.5v5q0 31 11 55.5t30 42t44.5 27t55.5 9.5h96q10 0 10 10v12q0 29 -21 48.5t-52 19.5q-18 0 -36.5 -12.5t-36.5 -44.5q-3 -6 -8 -6q-3 0 -6 1.5t-6 3.5l-76 40q-6 3 -6 7t6.5 16.5t14.5 23.5q24 36 60 56t94 20
q43 0 77.5 -13t59 -36t37.5 -55.5t13 -71.5v-282q0 -10 -10 -10h-85q-10 0 -10 8q0 13 -7 13q-5 0 -9 -3q-33 -18 -61 -18h-38zM226 105q24 0 44 17t24 39v16h-106q-11 0 -19 -8.5t-8 -19.5v-15q0 -12 7.5 -20.5t19.5 -8.5h38zM79 576q-4 3 -4 8q0 6 14 28q20 32 41.5 45
t45.5 13q17 0 33.5 -6.5t34.5 -19.5l17 -12q6 -5 14 -8t14 -3q10 0 20 6.5t23 27.5q3 6 8 6q3 0 5.5 -2t5.5 -4l36 -29q4 -3 4 -8q0 -3 -5 -12t-13 -22q-38 -55 -84 -55q-17 0 -33 8.5t-36 20.5l-18 11q-6 4 -13 7t-13 3q-10 0 -19.5 -6.5t-21.5 -24.5q-3 -6 -8 -6
q-3 0 -14 9z" />
    <glyph glyph-name="adieresis" unicode="&#xe4;" horiz-adv-x="465" 
d="M188 0q-30 0 -55.5 9.5t-44.5 27.5t-30 42.5t-11 54.5v5q0 31 11 55.5t30 42t44.5 27t55.5 9.5h96q10 0 10 10v12q0 29 -21 48.5t-52 19.5q-18 0 -36.5 -12.5t-36.5 -44.5q-3 -6 -8 -6q-3 0 -6 1.5t-6 3.5l-76 40q-6 3 -6 7t6.5 16.5t14.5 23.5q24 36 60 56t94 20
q43 0 77.5 -13t59 -36t37.5 -55.5t13 -71.5v-282q0 -10 -10 -10h-85q-10 0 -10 8q0 13 -7 13q-5 0 -9 -3q-33 -18 -61 -18h-38zM226 105q24 0 44 17t24 39v16h-106q-11 0 -19 -8.5t-8 -19.5v-15q0 -12 7.5 -20.5t19.5 -8.5h38zM379 595q0 -26 -18 -44t-44 -18t-44 18t-18 44
t18 44t44 18t44 -18t18 -44zM210 595q0 -26 -18 -44t-44 -18t-44 18t-18 44t18 44t44 18t44 -18t18 -44z" />
    <glyph glyph-name="aring" unicode="&#xe5;" horiz-adv-x="465" 
d="M188 0q-30 0 -55.5 9.5t-44.5 27.5t-30 42.5t-11 54.5v5q0 31 11 55.5t30 42t44.5 27t55.5 9.5h96q10 0 10 10v12q0 29 -21 48.5t-52 19.5q-18 0 -36.5 -12.5t-36.5 -44.5q-3 -6 -8 -6q-3 0 -6 1.5t-6 3.5l-76 40q-6 3 -6 7t6.5 16.5t14.5 23.5q24 36 60 56t94 20
q43 0 77.5 -13t59 -36t37.5 -55.5t13 -71.5v-282q0 -10 -10 -10h-85q-10 0 -10 8q0 13 -7 13q-5 0 -9 -3q-33 -18 -61 -18h-38zM226 105q24 0 44 17t24 39v16h-106q-11 0 -19 -8.5t-8 -19.5v-15q0 -12 7.5 -20.5t19.5 -8.5h38zM133 634q0 42 27 68.5t73 26.5t73 -26.5
t27 -68.5v-29q0 -42 -27 -68.5t-73 -26.5t-73 26.5t-27 68.5v29zM262 634q0 11 -9 20t-20 9t-20 -9t-9 -20v-29q0 -11 9 -19.5t20 -8.5t20 8.5t9 19.5v29z" />
    <glyph glyph-name="ae" unicode="&#xe6;" horiz-adv-x="719" 
d="M190 -10q-30 0 -56.5 9.5t-46 27.5t-30.5 42.5t-11 54.5v19q0 30 11 54.5t30.5 42.5t46 27.5t56.5 9.5h104q10 0 10 10v2q0 30 -20.5 51t-50.5 21q-20 0 -39 -13t-32 -45q-3 -6 -8 -6t-13 5l-78 39q-6 3 -6 8q0 7 16 33q23 36 60 60t100 24q35 0 65.5 -9.5t53.5 -26.5
q2 -2 5.5 -4.5t6.5 -2.5t6.5 2.5t5.5 4.5q23 18 51.5 28t62.5 10q42 0 76.5 -16t59 -41.5t37.5 -57t13 -62.5v-81q0 -10 -10 -10h-238q-10 0 -10 -10v-23q0 -29 20.5 -50.5t51.5 -21.5q20 0 38.5 13.5t32.5 45.5q3 6 8 6q3 0 17 -7l75 -37q6 -3 6 -8q0 -3 -4.5 -11.5
t-10.5 -18.5q-23 -38 -60 -63t-102 -25q-45 0 -78 13t-56 36q-4 4 -7 4q-4 0 -7 -4q-22 -23 -53 -36t-52 -13h-47zM549 296q11 0 11 9q0 4 -4 14t-12.5 19.5t-21.5 17t-32 7.5q-18 0 -31.5 -7t-22.5 -17t-13 -19.5t-4 -14.5q0 -9 11 -9h119zM237 95q23 0 41 18t26 38v23
q0 8 -10 8h-104q-13 0 -21 -9t-8 -20v-29q0 -11 8 -20t21 -9h47z" />
    <glyph glyph-name="ccedilla" unicode="&#xe7;" horiz-adv-x="429" 
d="M125 -215q-10 0 -10 10v66q0 10 10 10h59q7 0 12.5 5t5.5 12v8q0 7 -5.5 12.5t-12.5 5.5h-40q-10 0 -10 8q0 4 8 20l27 56q-60 16 -93 61t-33 108v124q0 39 13 71.5t37.5 56t59 36.5t77.5 13q65 0 102 -25t60 -63q6 -10 10.5 -18.5t4.5 -11.5q0 -5 -6 -8l-75 -37
q-14 -7 -17 -7q-5 0 -8 6q-14 32 -32.5 45.5t-38.5 13.5q-31 0 -51.5 -21.5t-20.5 -50.5v-124q0 -29 20.5 -50.5t51.5 -21.5q20 0 38.5 13.5t32.5 45.5q3 6 8 6q3 0 17 -7l75 -37q6 -3 6 -8q0 -3 -4.5 -11.5t-10.5 -18.5q-21 -35 -52.5 -58.5t-84.5 -28.5v-2q0 -1 -1 -1
q-2 -4 -3.5 -7.5t-1.5 -5.5q0 -4 4 -7q20 -11 31 -29.5t11 -42.5v-8q0 -47 -32 -75t-79 -28h-59z" />
    <glyph glyph-name="egrave" unicode="&#xe8;" horiz-adv-x="459" 
d="M401 116q6 -3 6 -8q0 -3 -4.5 -11.5t-10.5 -18.5q-23 -38 -60 -63t-102 -25q-43 0 -77.5 13t-59 36.5t-37.5 56t-13 71.5v124q0 31 13 62.5t37.5 57t59 41.5t77.5 16q42 0 76.5 -16t59 -41.5t37.5 -57t13 -62.5v-81q0 -10 -10 -10h-238q-10 0 -10 -10v-23
q0 -29 20.5 -50.5t51.5 -21.5q20 0 38.5 13.5t32.5 45.5q3 6 8 6q3 0 17 -7zM289 296q11 0 11 9q0 4 -4 14t-12.5 19.5t-21.5 17t-32 7.5q-18 0 -31.5 -7t-22.5 -17t-13 -19.5t-4 -14.5q0 -9 11 -9h119zM231 523q-7 0 -16 7l-142 140q-7 7 -7 12q0 8 11 8h122q9 0 14 -8
l90 -138q2 -4 4 -7t2 -6q0 -8 -10 -8h-68z" />
    <glyph glyph-name="eacute" unicode="&#xe9;" horiz-adv-x="459" 
d="M401 116q6 -3 6 -8q0 -3 -4.5 -11.5t-10.5 -18.5q-23 -38 -60 -63t-102 -25q-43 0 -77.5 13t-59 36.5t-37.5 56t-13 71.5v124q0 31 13 62.5t37.5 57t59 41.5t77.5 16q42 0 76.5 -16t59 -41.5t37.5 -57t13 -62.5v-81q0 -10 -10 -10h-238q-10 0 -10 -10v-23
q0 -29 20.5 -50.5t51.5 -21.5q20 0 38.5 13.5t32.5 45.5q3 6 8 6q3 0 17 -7zM289 296q11 0 11 9q0 4 -4 14t-12.5 19.5t-21.5 17t-32 7.5q-18 0 -31.5 -7t-22.5 -17t-13 -19.5t-4 -14.5q0 -9 11 -9h119zM161 523q-10 0 -10 8q0 3 2 6t4 7l90 138q5 8 14 8h122q11 0 11 -8
q0 -5 -7 -12l-142 -140q-9 -7 -16 -7h-68z" />
    <glyph glyph-name="ecircumflex" unicode="&#xea;" horiz-adv-x="459" 
d="M401 116q6 -3 6 -8q0 -3 -4.5 -11.5t-10.5 -18.5q-23 -38 -60 -63t-102 -25q-43 0 -77.5 13t-59 36.5t-37.5 56t-13 71.5v124q0 31 13 62.5t37.5 57t59 41.5t77.5 16q42 0 76.5 -16t59 -41.5t37.5 -57t13 -62.5v-81q0 -10 -10 -10h-238q-10 0 -10 -10v-23
q0 -29 20.5 -50.5t51.5 -21.5q20 0 38.5 13.5t32.5 45.5q3 6 8 6q3 0 17 -7zM289 296q11 0 11 9q0 4 -4 14t-12.5 19.5t-21.5 17t-32 7.5q-18 0 -31.5 -7t-22.5 -17t-13 -19.5t-4 -14.5q0 -9 11 -9h119zM101 523q-11 0 -11 8q0 3 3 8l104 147q4 4 8 4h49q4 0 8 -4l105 -147
q3 -5 3 -8q0 -8 -11 -8h-81q-5 0 -8 5l-33 51q-3 6 -8 6q-4 0 -7 -6l-32 -51q-3 -5 -8 -5h-81z" />
    <glyph glyph-name="edieresis" unicode="&#xeb;" horiz-adv-x="459" 
d="M401 116q6 -3 6 -8q0 -3 -4.5 -11.5t-10.5 -18.5q-23 -38 -60 -63t-102 -25q-43 0 -77.5 13t-59 36.5t-37.5 56t-13 71.5v124q0 31 13 62.5t37.5 57t59 41.5t77.5 16q42 0 76.5 -16t59 -41.5t37.5 -57t13 -62.5v-81q0 -10 -10 -10h-238q-10 0 -10 -10v-23
q0 -29 20.5 -50.5t51.5 -21.5q20 0 38.5 13.5t32.5 45.5q3 6 8 6q3 0 17 -7zM289 296q11 0 11 9q0 4 -4 14t-12.5 19.5t-21.5 17t-32 7.5q-18 0 -31.5 -7t-22.5 -17t-13 -19.5t-4 -14.5q0 -9 11 -9h119zM376 595q0 -26 -18 -44t-44 -18t-44 18t-18 44t18 44t44 18t44 -18
t18 -44zM207 595q0 -26 -18 -44t-44 -18t-44 18t-18 44t18 44t44 18t44 -18t18 -44z" />
    <glyph glyph-name="igrave" unicode="&#xec;" horiz-adv-x="230" 
d="M68 0q-10 0 -10 10v438q0 10 10 10h94q10 0 10 -10v-438q0 -10 -10 -10h-94zM97 523q-7 0 -16 7l-142 140q-7 7 -7 12q0 8 11 8h122q9 0 14 -8l90 -138q2 -4 4 -7t2 -6q0 -8 -10 -8h-68z" />
    <glyph glyph-name="iacute" unicode="&#xed;" horiz-adv-x="230" 
d="M68 0q-10 0 -10 10v438q0 10 10 10h94q10 0 10 -10v-438q0 -10 -10 -10h-94zM67 523q-10 0 -10 8q0 3 2 6t4 7l90 138q5 8 14 8h122q11 0 11 -8q0 -5 -7 -12l-142 -140q-9 -7 -16 -7h-68z" />
    <glyph glyph-name="icircumflex" unicode="&#xee;" horiz-adv-x="230" 
d="M68 0q-10 0 -10 10v438q0 10 10 10h94q10 0 10 -10v-438q0 -10 -10 -10h-94zM-13 523q-11 0 -11 8q0 3 3 8l104 147q4 4 8 4h49q4 0 8 -4l105 -147q3 -5 3 -8q0 -8 -11 -8h-81q-5 0 -8 5l-33 51q-3 6 -8 6q-4 0 -7 -6l-32 -51q-3 -5 -8 -5h-81z" />
    <glyph glyph-name="idieresis" unicode="&#xef;" horiz-adv-x="230" 
d="M68 0q-10 0 -10 10v438q0 10 10 10h94q10 0 10 -10v-438q0 -10 -10 -10h-94zM262 595q0 -26 -18 -44t-44 -18t-44 18t-18 44t18 44t44 18t44 -18t18 -44zM93 595q0 -26 -18 -44t-44 -18t-44 18t-18 44t18 44t44 18t44 -18t18 -44z" />
    <glyph glyph-name="eth" unicode="&#xf0;" horiz-adv-x="459" 
d="M43 291q0 69 40 116t109 58l-38 38l-97 -38q-2 -1 -6 -1q-8 0 -8 6v34q0 5 1 9.5t5 6.5l63 25l-64 65q-3 2 -6 6t-3 6q0 8 12 8h101q5 0 6 -2t4 -5l42 -42l97 38q3 2 7.5 3.5t6.5 1.5q10 0 10 -7v-37q0 -10 -8 -13l-72 -28l137 -135q17 -22 25.5 -51.5t8.5 -61.5v-124
q0 -39 -13 -71.5t-37.5 -56t-59 -36.5t-76.5 -13q-43 0 -77.5 13t-59 36.5t-37.5 56t-13 71.5v124zM301 291q0 30 -20.5 51t-50.5 21q-31 0 -51.5 -21.5t-20.5 -50.5v-124q0 -29 20.5 -50.5t51.5 -21.5q30 0 50.5 21t20.5 51v124z" />
    <glyph glyph-name="ntilde" unicode="&#xf1;" horiz-adv-x="488" 
d="M68 0q-10 0 -10 10v438q0 10 10 10h85q10 0 10 -9q0 -11 8 -11q2 0 3.5 0.5t3.5 1.5q16 8 33.5 13t32.5 5q42 0 76.5 -13t59 -36t37.5 -55.5t13 -71.5v-272q0 -10 -10 -10h-95q-10 0 -10 10v272q0 30 -20.5 50.5t-50.5 20.5t-51 -20.5t-21 -50.5v-272q0 -10 -10 -10h-94z
M91 576q-4 3 -4 8q0 6 14 28q20 32 41.5 45t45.5 13q17 0 33.5 -6.5t34.5 -19.5l17 -12q6 -5 14 -8t14 -3q10 0 20 6.5t23 27.5q3 6 8 6q3 0 5.5 -2t5.5 -4l36 -29q4 -3 4 -8q0 -3 -5 -12t-13 -22q-38 -55 -84 -55q-17 0 -33 8.5t-36 20.5l-18 11q-6 4 -13 7t-13 3
q-10 0 -19.5 -6.5t-21.5 -24.5q-3 -6 -8 -6q-3 0 -14 9z" />
    <glyph glyph-name="ograve" unicode="&#xf2;" horiz-adv-x="459" 
d="M43 291q0 39 13 71.5t37.5 56t59 36.5t77.5 13q42 0 76.5 -13t59 -36.5t37.5 -56t13 -71.5v-124q0 -39 -13 -71.5t-37.5 -56t-59 -36.5t-76.5 -13q-43 0 -77.5 13t-59 36.5t-37.5 56t-13 71.5v124zM301 291q0 30 -20.5 51t-50.5 21q-31 0 -51.5 -21.5t-20.5 -50.5v-124
q0 -29 20.5 -50.5t51.5 -21.5q30 0 50.5 21t20.5 51v124zM231 523q-7 0 -16 7l-142 140q-7 7 -7 12q0 8 11 8h122q9 0 14 -8l90 -138q2 -4 4 -7t2 -6q0 -8 -10 -8h-68z" />
    <glyph glyph-name="oacute" unicode="&#xf3;" horiz-adv-x="459" 
d="M43 291q0 39 13 71.5t37.5 56t59 36.5t77.5 13q42 0 76.5 -13t59 -36.5t37.5 -56t13 -71.5v-124q0 -39 -13 -71.5t-37.5 -56t-59 -36.5t-76.5 -13q-43 0 -77.5 13t-59 36.5t-37.5 56t-13 71.5v124zM301 291q0 30 -20.5 51t-50.5 21q-31 0 -51.5 -21.5t-20.5 -50.5v-124
q0 -29 20.5 -50.5t51.5 -21.5q30 0 50.5 21t20.5 51v124zM161 523q-10 0 -10 8q0 3 2 6t4 7l90 138q5 8 14 8h122q11 0 11 -8q0 -5 -7 -12l-142 -140q-9 -7 -16 -7h-68z" />
    <glyph glyph-name="ocircumflex" unicode="&#xf4;" horiz-adv-x="459" 
d="M43 291q0 39 13 71.5t37.5 56t59 36.5t77.5 13q42 0 76.5 -13t59 -36.5t37.5 -56t13 -71.5v-124q0 -39 -13 -71.5t-37.5 -56t-59 -36.5t-76.5 -13q-43 0 -77.5 13t-59 36.5t-37.5 56t-13 71.5v124zM301 291q0 30 -20.5 51t-50.5 21q-31 0 -51.5 -21.5t-20.5 -50.5v-124
q0 -29 20.5 -50.5t51.5 -21.5q30 0 50.5 21t20.5 51v124zM101 523q-11 0 -11 8q0 3 3 8l104 147q4 4 8 4h49q4 0 8 -4l105 -147q3 -5 3 -8q0 -8 -11 -8h-81q-5 0 -8 5l-33 51q-3 6 -8 6q-4 0 -7 -6l-32 -51q-3 -5 -8 -5h-81z" />
    <glyph glyph-name="otilde" unicode="&#xf5;" horiz-adv-x="459" 
d="M43 291q0 39 13 71.5t37.5 56t59 36.5t77.5 13q42 0 76.5 -13t59 -36.5t37.5 -56t13 -71.5v-124q0 -39 -13 -71.5t-37.5 -56t-59 -36.5t-76.5 -13q-43 0 -77.5 13t-59 36.5t-37.5 56t-13 71.5v124zM301 291q0 30 -20.5 51t-50.5 21q-31 0 -51.5 -21.5t-20.5 -50.5v-124
q0 -29 20.5 -50.5t51.5 -21.5q30 0 50.5 21t20.5 51v124zM76 576q-4 3 -4 8q0 6 14 28q20 32 41.5 45t45.5 13q17 0 33.5 -6.5t34.5 -19.5l17 -12q6 -5 14 -8t14 -3q10 0 20 6.5t23 27.5q3 6 8 6q3 0 5.5 -2t5.5 -4l36 -29q4 -3 4 -8q0 -3 -5 -12t-13 -22q-38 -55 -84 -55
q-17 0 -33 8.5t-36 20.5l-18 11q-6 4 -13 7t-13 3q-10 0 -19.5 -6.5t-21.5 -24.5q-3 -6 -8 -6q-3 0 -14 9z" />
    <glyph glyph-name="odieresis" unicode="&#xf6;" horiz-adv-x="459" 
d="M43 291q0 39 13 71.5t37.5 56t59 36.5t77.5 13q42 0 76.5 -13t59 -36.5t37.5 -56t13 -71.5v-124q0 -39 -13 -71.5t-37.5 -56t-59 -36.5t-76.5 -13q-43 0 -77.5 13t-59 36.5t-37.5 56t-13 71.5v124zM301 291q0 30 -20.5 51t-50.5 21q-31 0 -51.5 -21.5t-20.5 -50.5v-124
q0 -29 20.5 -50.5t51.5 -21.5q30 0 50.5 21t20.5 51v124zM376 595q0 -26 -18 -44t-44 -18t-44 18t-18 44t18 44t44 18t44 -18t18 -44zM207 595q0 -26 -18 -44t-44 -18t-44 18t-18 44t18 44t44 18t44 -18t18 -44z" />
    <glyph glyph-name="divide" unicode="&#xf7;" horiz-adv-x="507" 
d="M321 402q0 -27 -20 -47t-47 -20t-47.5 20t-20.5 47t20 47t47 20t47.5 -20t20.5 -47zM49 200q-10 0 -10 10v66q0 10 10 10h409q10 0 10 -10v-66q0 -10 -10 -10h-409zM321 83q0 -27 -20 -47t-47 -20t-47.5 20t-20.5 47t20 47t47 20t47 -20t20 -47h1z" />
    <glyph glyph-name="oslash" unicode="&#xf8;" horiz-adv-x="459" 
d="M43 291q0 39 13 71.5t37.5 56t59 36.5t77.5 13q42 0 76.5 -13t59 -36.5t37.5 -56t13 -71.5v-124q0 -39 -13 -71.5t-37.5 -56t-59 -36.5t-76.5 -13q-43 0 -77.5 13t-59 36.5t-37.5 56t-13 71.5v124zM237 346q2 6 2 8q0 9 -9 9q-31 0 -51.5 -21.5t-20.5 -50.5v-97
q0 -8 4 -8q3 0 6 6zM301 287q0 9 -6 9q-4 0 -7 -7l-78 -174q-2 -3 -2 -9q0 -9 9 -10q4 -1 13 -1q30 0 50.5 21t20.5 51v120z" />
    <glyph glyph-name="ugrave" unicode="&#xf9;" horiz-adv-x="478" 
d="M325 0q-10 0 -10 9q0 11 -8 11q-2 0 -3.5 -0.5t-3.5 -1.5q-16 -8 -33.5 -13t-32.5 -5q-42 0 -76.5 13t-59 36.5t-37.5 56t-13 71.5v271q0 10 10 10h95q10 0 10 -10v-271q0 -31 20.5 -51.5t50.5 -20.5q29 0 50.5 20.5t21.5 51.5v271q0 10 10 10h94q10 0 10 -10v-438
q0 -10 -10 -10h-85zM240 523q-7 0 -16 7l-142 140q-7 7 -7 12q0 8 11 8h122q9 0 14 -8l90 -138q2 -4 4 -7t2 -6q0 -8 -10 -8h-68z" />
    <glyph glyph-name="uacute" unicode="&#xfa;" horiz-adv-x="478" 
d="M325 0q-10 0 -10 9q0 11 -8 11q-2 0 -3.5 -0.5t-3.5 -1.5q-16 -8 -33.5 -13t-32.5 -5q-42 0 -76.5 13t-59 36.5t-37.5 56t-13 71.5v271q0 10 10 10h95q10 0 10 -10v-271q0 -31 20.5 -51.5t50.5 -20.5q29 0 50.5 20.5t21.5 51.5v271q0 10 10 10h94q10 0 10 -10v-438
q0 -10 -10 -10h-85zM171 523q-10 0 -10 8q0 3 2 6t4 7l90 138q5 8 14 8h122q11 0 11 -8q0 -5 -7 -12l-142 -140q-9 -7 -16 -7h-68z" />
    <glyph glyph-name="ucircumflex" unicode="&#xfb;" horiz-adv-x="478" 
d="M325 0q-10 0 -10 9q0 11 -8 11q-2 0 -3.5 -0.5t-3.5 -1.5q-16 -8 -33.5 -13t-32.5 -5q-42 0 -76.5 13t-59 36.5t-37.5 56t-13 71.5v271q0 10 10 10h95q10 0 10 -10v-271q0 -31 20.5 -51.5t50.5 -20.5q29 0 50.5 20.5t21.5 51.5v271q0 10 10 10h94q10 0 10 -10v-438
q0 -10 -10 -10h-85zM111 523q-11 0 -11 8q0 3 3 8l104 147q4 4 8 4h49q4 0 8 -4l105 -147q3 -5 3 -8q0 -8 -11 -8h-81q-5 0 -8 5l-33 51q-3 6 -8 6q-4 0 -7 -6l-32 -51q-3 -5 -8 -5h-81z" />
    <glyph glyph-name="udieresis" unicode="&#xfc;" horiz-adv-x="478" 
d="M325 0q-10 0 -10 9q0 11 -8 11q-2 0 -3.5 -0.5t-3.5 -1.5q-16 -8 -33.5 -13t-32.5 -5q-42 0 -76.5 13t-59 36.5t-37.5 56t-13 71.5v271q0 10 10 10h95q10 0 10 -10v-271q0 -31 20.5 -51.5t50.5 -20.5q29 0 50.5 20.5t21.5 51.5v271q0 10 10 10h94q10 0 10 -10v-438
q0 -10 -10 -10h-85zM386 595q0 -26 -18 -44t-44 -18t-44 18t-18 44t18 44t44 18t44 -18t18 -44zM217 595q0 -26 -18 -44t-44 -18t-44 18t-18 44t18 44t44 18t44 -18t18 -44z" />
    <glyph glyph-name="yacute" unicode="&#xfd;" horiz-adv-x="478" 
d="M144 -70q7 4 11 4q5 0 8 -6q13 -32 32 -45t39 -13q29 0 50.5 21.5t21.5 50.5v62q0 11 -7 11q-3 0 -7 -2q-27 -13 -58 -13q-42 0 -76.5 13t-59 36.5t-37.5 56t-13 71.5v271q0 10 10 10h95q10 0 10 -10v-271q0 -31 20.5 -51.5t50.5 -20.5q29 0 50.5 20.5t21.5 51.5v271
q0 10 10 10h94q10 0 10 -10v-497q0 -40 -12 -74t-35 -59t-58 -39t-81 -14q-59 0 -94.5 20.5t-58.5 52.5q-12 17 -17.5 28.5t-5.5 15.5q0 5 6 8zM171 523q-10 0 -10 8q0 3 2 6t4 7l90 138q5 8 14 8h122q11 0 11 -8q0 -5 -7 -12l-142 -140q-9 -7 -16 -7h-68z" />
    <glyph glyph-name="thorn" unicode="&#xfe;" horiz-adv-x="473" 
d="M68 -225q-10 0 -10 10v835q0 10 10 10h85q10 0 10 -9v-172q0 -11 8 -11q2 0 3.5 0.5t3.5 1.5q16 8 33.5 13t32.5 5q42 0 76.5 -13t59 -36t37.5 -55.5t13 -71.5v-105q0 -39 -13.5 -71.5t-37.5 -56t-56.5 -36.5t-69.5 -13q-14 0 -32 5t-34 13q-2 1 -3.5 1.5t-3.5 0.5
q-8 0 -8 -11v-224q0 -10 -10 -10h-94zM315 282q0 30 -20.5 50.5t-50.5 20.5t-51 -20.5t-21 -50.5v-105q0 -31 21.5 -51.5t50.5 -20.5q30 0 50.5 20.5t20.5 51.5v105z" />
    <glyph glyph-name="ydieresis" unicode="&#xff;" horiz-adv-x="478" 
d="M144 -70q7 4 11 4q5 0 8 -6q13 -32 32 -45t39 -13q29 0 50.5 21.5t21.5 50.5v62q0 11 -7 11q-3 0 -7 -2q-27 -13 -58 -13q-42 0 -76.5 13t-59 36.5t-37.5 56t-13 71.5v271q0 10 10 10h95q10 0 10 -10v-271q0 -31 20.5 -51.5t50.5 -20.5q29 0 50.5 20.5t21.5 51.5v271
q0 10 10 10h94q10 0 10 -10v-497q0 -40 -12 -74t-35 -59t-58 -39t-81 -14q-59 0 -94.5 20.5t-58.5 52.5q-12 17 -17.5 28.5t-5.5 15.5q0 5 6 8zM386 595q0 -26 -18 -44t-44 -18t-44 18t-18 44t18 44t44 18t44 -18t18 -44zM217 595q0 -26 -18 -44t-44 -18t-44 18t-18 44
t18 44t44 18t44 -18t18 -44z" />
    <glyph glyph-name="Amacron" unicode="&#x100;" horiz-adv-x="450" 
d="M3 0q-11 0 -11 8q0 3 1.5 7.5l3.5 10.5l182 597q1 7 10 7h72q9 0 10 -7l182 -597q2 -5 3.5 -10t1.5 -8q0 -8 -11 -8h-101q-9 0 -10 7l-30 105q-1 6 -10 6h-143q-9 0 -10 -6l-30 -105q-1 -7 -10 -7h-100zM261 223q11 0 11 9q0 3 -1.5 8.5t-3.5 10.5l-29 117
q-1 3 -2.5 10.5t-3 16.5t-3 17t-2.5 11h-3l-12 -55l-30 -116q-2 -5 -3.5 -11t-1.5 -9q0 -9 11 -9h73zM112 705q-10 0 -10 10v85q0 10 10 10h228q10 0 10 -10v-85q0 -10 -10 -10h-228z" />
    <glyph glyph-name="amacron" unicode="&#x101;" horiz-adv-x="465" 
d="M188 0q-30 0 -55.5 9.5t-44.5 27.5t-30 42.5t-11 54.5v5q0 31 11 55.5t30 42t44.5 27t55.5 9.5h96q10 0 10 10v12q0 29 -21 48.5t-52 19.5q-18 0 -36.5 -12.5t-36.5 -44.5q-3 -6 -8 -6q-3 0 -6 1.5t-6 3.5l-76 40q-6 3 -6 7t6.5 16.5t14.5 23.5q24 36 60 56t94 20
q43 0 77.5 -13t59 -36t37.5 -55.5t13 -71.5v-282q0 -10 -10 -10h-85q-10 0 -10 8q0 13 -7 13q-5 0 -9 -3q-33 -18 -61 -18h-38zM226 105q24 0 44 17t24 39v16h-106q-11 0 -19 -8.5t-8 -19.5v-15q0 -12 7.5 -20.5t19.5 -8.5h38zM119 539q-10 0 -10 10v85q0 10 10 10h228
q10 0 10 -10v-85q0 -10 -10 -10h-228z" />
    <glyph glyph-name="Abreve" unicode="&#x102;" horiz-adv-x="450" 
d="M3 0q-11 0 -11 8q0 3 1.5 7.5l3.5 10.5l182 597q1 7 10 7h72q9 0 10 -7l182 -597q2 -5 3.5 -10t1.5 -8q0 -8 -11 -8h-101q-9 0 -10 7l-30 105q-1 6 -10 6h-143q-9 0 -10 -6l-30 -105q-1 -7 -10 -7h-100zM261 223q11 0 11 9q0 3 -1.5 8.5t-3.5 10.5l-29 117
q-1 3 -2.5 10.5t-3 16.5t-3 17t-2.5 11h-3l-12 -55l-30 -116q-2 -5 -3.5 -11t-1.5 -9q0 -9 11 -9h73zM219 692q-46 0 -73 26.5t-27 68.5v62q0 10 10 10h51q10 0 10 -10v-43q0 -11 9 -19.5t20 -8.5h43q12 0 20 8t8 20v43q0 10 10 10h52q10 0 10 -10v-62q0 -42 -27 -68.5
t-73 -26.5h-43z" />
    <glyph glyph-name="abreve" unicode="&#x103;" horiz-adv-x="465" 
d="M188 0q-30 0 -55.5 9.5t-44.5 27.5t-30 42.5t-11 54.5v5q0 31 11 55.5t30 42t44.5 27t55.5 9.5h96q10 0 10 10v12q0 29 -21 48.5t-52 19.5q-18 0 -36.5 -12.5t-36.5 -44.5q-3 -6 -8 -6q-3 0 -6 1.5t-6 3.5l-76 40q-6 3 -6 7t6.5 16.5t14.5 23.5q24 36 60 56t94 20
q43 0 77.5 -13t59 -36t37.5 -55.5t13 -71.5v-282q0 -10 -10 -10h-85q-10 0 -10 8q0 13 -7 13q-5 0 -9 -3q-33 -18 -61 -18h-38zM226 105q24 0 44 17t24 39v16h-106q-11 0 -19 -8.5t-8 -19.5v-15q0 -12 7.5 -20.5t19.5 -8.5h38zM211 523q-46 0 -73 26.5t-27 68.5v62
q0 10 10 10h51q10 0 10 -10v-43q0 -11 9 -19.5t20 -8.5h43q12 0 20 8t8 20v43q0 10 10 10h52q10 0 10 -10v-62q0 -42 -27 -68.5t-73 -26.5h-43z" />
    <glyph glyph-name="Aogonek" unicode="&#x104;" horiz-adv-x="450" 
d="M493 -204q0 -10 -9 -10q-11 0 -31.5 5t-34.5 12q-38 19 -60 52t-22 73v79l-30 105q-1 6 -10 6h-143q-9 0 -10 -6l-30 -105q-1 -7 -10 -7h-100q-11 0 -11 8q0 3 1.5 7.5l3.5 10.5l182 597q1 7 10 7h72q9 0 10 -7l182 -597q2 -5 3.5 -10t1.5 -8q0 -8 -11 -8h-18v-78
q0 -18 13 -32t42 -18q9 -2 9 -10v-66zM261 223q11 0 11 9q0 3 -1.5 8.5t-3.5 10.5l-29 117q-1 3 -2.5 10.5t-3 16.5t-3 17t-2.5 11h-3l-12 -55l-30 -116q-2 -5 -3.5 -11t-1.5 -9q0 -9 11 -9h73z" />
    <glyph glyph-name="aogonek" unicode="&#x105;" horiz-adv-x="465" 
d="M460 -204q0 -10 -9 -10q-11 0 -31.5 5t-34.5 12q-38 19 -60 52t-22 73v80q0 13 -7 13q-5 0 -9 -3q-33 -18 -61 -18h-38q-30 0 -55.5 9.5t-44.5 27.5t-30 42.5t-11 54.5v5q0 31 11 55.5t30 42t44.5 27t55.5 9.5h96q10 0 10 10v12q0 29 -21 48.5t-52 19.5
q-18 0 -36.5 -12.5t-36.5 -44.5q-3 -6 -8 -6q-3 0 -6 1.5t-6 3.5l-76 40q-6 3 -6 7t6.5 16.5t14.5 23.5q24 36 60 56t94 20q43 0 77.5 -13t59 -36t37.5 -55.5t13 -71.5v-282q0 -10 -10 -10h-2v-78q0 -18 13 -32t42 -18q9 -2 9 -10v-66zM226 105q24 0 44 17t24 39v16h-106
q-11 0 -19 -8.5t-8 -19.5v-15q0 -12 7.5 -20.5t19.5 -8.5h38z" />
    <glyph glyph-name="Cacute" unicode="&#x106;" horiz-adv-x="484" 
d="M239 -10q-43 0 -77.5 13t-58.5 36.5t-37 56t-13 71.5v296q0 39 13 71.5t37 56t58.5 36.5t77.5 13h49q63 0 99 -23t59 -58q7 -11 13 -21.5t6 -15.5q0 -4 -6 -7l-80 -41q-3 -2 -6 -3.5t-6 -1.5q-5 0 -8 7q-14 32 -32.5 45.5t-38.5 13.5h-49q-29 0 -50.5 -21.5t-21.5 -50.5
v-296q0 -29 21.5 -50.5t50.5 -21.5h49q20 0 38.5 13.5t32.5 45.5q3 7 8 7q3 0 6 -1.5t6 -3.5l80 -41q6 -3 6 -7q0 -5 -6 -15.5t-13 -21.5q-23 -35 -59 -58t-99 -23h-49zM190 695q-10 0 -10 8q0 3 2 6t4 7l90 138q5 8 14 8h122q11 0 11 -8q0 -5 -7 -12l-142 -140
q-9 -7 -16 -7h-68z" />
    <glyph glyph-name="cacute" unicode="&#x107;" horiz-adv-x="429" 
d="M401 116q6 -3 6 -8q0 -3 -4.5 -11.5t-10.5 -18.5q-23 -38 -60 -63t-102 -25q-43 0 -77.5 13t-59 36.5t-37.5 56t-13 71.5v124q0 39 13 71.5t37.5 56t59 36.5t77.5 13q65 0 102 -25t60 -63q6 -10 10.5 -18.5t4.5 -11.5q0 -5 -6 -8l-75 -37q-14 -7 -17 -7q-5 0 -8 6
q-14 32 -32.5 45.5t-38.5 13.5q-31 0 -51.5 -21.5t-20.5 -50.5v-124q0 -29 20.5 -50.5t51.5 -21.5q20 0 38.5 13.5t32.5 45.5q3 6 8 6q3 0 17 -7zM162 523q-10 0 -10 8q0 3 2 6t4 7l90 138q5 8 14 8h122q11 0 11 -8q0 -5 -7 -12l-142 -140q-9 -7 -16 -7h-68z" />
    <glyph glyph-name="Ccircumflex" unicode="&#x108;" horiz-adv-x="484" 
d="M239 -10q-43 0 -77.5 13t-58.5 36.5t-37 56t-13 71.5v296q0 39 13 71.5t37 56t58.5 36.5t77.5 13h49q63 0 99 -23t59 -58q7 -11 13 -21.5t6 -15.5q0 -4 -6 -7l-80 -41q-3 -2 -6 -3.5t-6 -1.5q-5 0 -8 7q-14 32 -32.5 45.5t-38.5 13.5h-49q-29 0 -50.5 -21.5t-21.5 -50.5
v-296q0 -29 21.5 -50.5t50.5 -21.5h49q20 0 38.5 13.5t32.5 45.5q3 7 8 7q3 0 6 -1.5t6 -3.5l80 -41q6 -3 6 -7q0 -5 -6 -15.5t-13 -21.5q-23 -35 -59 -58t-99 -23h-49zM146 692q-11 0 -11 8q0 3 3 8l104 147q4 4 8 4h49q4 0 8 -4l105 -147q3 -5 3 -8q0 -8 -11 -8h-81
q-5 0 -8 5l-33 51q-3 6 -8 6q-4 0 -7 -6l-32 -51q-3 -5 -8 -5h-81z" />
    <glyph glyph-name="ccircumflex" unicode="&#x109;" horiz-adv-x="429" 
d="M401 116q6 -3 6 -8q0 -3 -4.5 -11.5t-10.5 -18.5q-23 -38 -60 -63t-102 -25q-43 0 -77.5 13t-59 36.5t-37.5 56t-13 71.5v124q0 39 13 71.5t37.5 56t59 36.5t77.5 13q65 0 102 -25t60 -63q6 -10 10.5 -18.5t4.5 -11.5q0 -5 -6 -8l-75 -37q-14 -7 -17 -7q-5 0 -8 6
q-14 32 -32.5 45.5t-38.5 13.5q-31 0 -51.5 -21.5t-20.5 -50.5v-124q0 -29 20.5 -50.5t51.5 -21.5q20 0 38.5 13.5t32.5 45.5q3 6 8 6q3 0 17 -7zM102 523q-11 0 -11 8q0 3 3 8l104 147q4 4 8 4h49q4 0 8 -4l105 -147q3 -5 3 -8q0 -8 -11 -8h-81q-5 0 -8 5l-33 51q-3 6 -8 6
q-4 0 -7 -6l-32 -51q-3 -5 -8 -5h-81z" />
    <glyph glyph-name="Cdotaccent" unicode="&#x10a;" horiz-adv-x="484" 
d="M239 -10q-43 0 -77.5 13t-58.5 36.5t-37 56t-13 71.5v296q0 39 13 71.5t37 56t58.5 36.5t77.5 13h49q63 0 99 -23t59 -58q7 -11 13 -21.5t6 -15.5q0 -4 -6 -7l-80 -41q-3 -2 -6 -3.5t-6 -1.5q-5 0 -8 7q-14 32 -32.5 45.5t-38.5 13.5h-49q-29 0 -50.5 -21.5t-21.5 -50.5
v-296q0 -29 21.5 -50.5t50.5 -21.5h49q20 0 38.5 13.5t32.5 45.5q3 7 8 7q3 0 6 -1.5t6 -3.5l80 -41q6 -3 6 -7q0 -5 -6 -15.5t-13 -21.5q-23 -35 -59 -58t-99 -23h-49zM328 763q0 -26 -18 -44t-44 -18t-44 18t-18 44t18 44t44 18t44 -18t18 -44z" />
    <glyph glyph-name="cdotaccent" unicode="&#x10b;" horiz-adv-x="429" 
d="M401 116q6 -3 6 -8q0 -3 -4.5 -11.5t-10.5 -18.5q-23 -38 -60 -63t-102 -25q-43 0 -77.5 13t-59 36.5t-37.5 56t-13 71.5v124q0 39 13 71.5t37.5 56t59 36.5t77.5 13q65 0 102 -25t60 -63q6 -10 10.5 -18.5t4.5 -11.5q0 -5 -6 -8l-75 -37q-14 -7 -17 -7q-5 0 -8 6
q-14 32 -32.5 45.5t-38.5 13.5q-31 0 -51.5 -21.5t-20.5 -50.5v-124q0 -29 20.5 -50.5t51.5 -21.5q20 0 38.5 13.5t32.5 45.5q3 6 8 6q3 0 17 -7zM293 595q0 -26 -18 -44t-44 -18t-44 18t-18 44t18 44t44 18t44 -18t18 -44z" />
    <glyph glyph-name="Ccaron" unicode="&#x10c;" horiz-adv-x="484" 
d="M239 -10q-43 0 -77.5 13t-58.5 36.5t-37 56t-13 71.5v296q0 39 13 71.5t37 56t58.5 36.5t77.5 13h49q63 0 99 -23t59 -58q7 -11 13 -21.5t6 -15.5q0 -4 -6 -7l-80 -41q-3 -2 -6 -3.5t-6 -1.5q-5 0 -8 7q-14 32 -32.5 45.5t-38.5 13.5h-49q-29 0 -50.5 -21.5t-21.5 -50.5
v-296q0 -29 21.5 -50.5t50.5 -21.5h49q20 0 38.5 13.5t32.5 45.5q3 7 8 7q3 0 6 -1.5t6 -3.5l80 -41q6 -3 6 -7q0 -5 -6 -15.5t-13 -21.5q-23 -35 -59 -58t-99 -23h-49zM250 692q-4 0 -8 4l-97 137q-5 7 -7.5 11t-2.5 7q0 8 11 8h81q5 0 8 -5l32 -51q3 -6 7 -6q5 0 8 6
l33 51q3 5 8 5h81q11 0 11 -8q0 -3 -3 -8t-7 -10l-98 -137q-4 -4 -8 -4h-49z" />
    <glyph glyph-name="ccaron" unicode="&#x10d;" horiz-adv-x="429" 
d="M401 116q6 -3 6 -8q0 -3 -4.5 -11.5t-10.5 -18.5q-23 -38 -60 -63t-102 -25q-43 0 -77.5 13t-59 36.5t-37.5 56t-13 71.5v124q0 39 13 71.5t37.5 56t59 36.5t77.5 13q65 0 102 -25t60 -63q6 -10 10.5 -18.5t4.5 -11.5q0 -5 -6 -8l-75 -37q-14 -7 -17 -7q-5 0 -8 6
q-14 32 -32.5 45.5t-38.5 13.5q-31 0 -51.5 -21.5t-20.5 -50.5v-124q0 -29 20.5 -50.5t51.5 -21.5q20 0 38.5 13.5t32.5 45.5q3 6 8 6q3 0 17 -7zM206 523q-4 0 -8 4l-97 137q-5 7 -7.5 11t-2.5 7q0 8 11 8h81q5 0 8 -5l32 -51q3 -6 7 -6q5 0 8 6l33 51q3 5 8 5h81
q11 0 11 -8q0 -3 -3 -8t-7 -10l-98 -137q-4 -4 -8 -4h-49z" />
    <glyph glyph-name="Dcaron" unicode="&#x10e;" horiz-adv-x="541" 
d="M77 0q-10 0 -10 10v610q0 10 10 10h225q86 0 136 -50.5t50 -135.5v-258q0 -86 -50 -136t-136 -50h-225zM302 105q29 0 50.5 20.5t21.5 51.5v276q0 29 -21.5 50.5t-50.5 21.5h-110q-10 0 -10 -10v-400q0 -10 10 -10h110zM240 692q-4 0 -8 4l-97 137q-5 7 -7.5 11t-2.5 7
q0 8 11 8h81q5 0 8 -5l32 -51q3 -6 7 -6q5 0 8 6l33 51q3 5 8 5h81q11 0 11 -8q0 -3 -3 -8t-7 -10l-98 -137q-4 -4 -8 -4h-49z" />
    <glyph glyph-name="dcaron" unicode="&#x10f;" horiz-adv-x="503" 
d="M321 0q-10 0 -10 9q0 11 -8 11q-1 0 -7 -2q-16 -8 -34 -13t-32 -5q-43 0 -77.5 13t-59 36.5t-37.5 56t-13 71.5v105q0 39 14 71.5t38 55.5t56 36t69 13q15 0 32.5 -5t33.5 -13q2 -1 3.5 -1.5t3.5 -0.5q8 0 8 11v171q0 10 10 10h95q10 0 10 -10v-610q0 -10 -10 -10h-85z
M301 282q0 30 -20.5 50.5t-50.5 20.5q-31 0 -51.5 -20.5t-20.5 -50.5v-105q0 -31 20.5 -51.5t51.5 -20.5q30 0 50.5 20.5t20.5 51.5v105zM447 540q-2 4 -2 7q0 5 3 8l7 9q11 18 16.5 46t5.5 58v21q0 9 7 9h67q7 0 7 -9v-22q0 -54 -17.5 -96t-58.5 -68q-2 -1 -5 -1q-6 0 -7 4
z" />
    <glyph glyph-name="Dcroat" unicode="&#x110;" horiz-adv-x="541" 
d="M77 0q-10 0 -10 10v238q0 10 -11 10h-31q-10 0 -10 10v94q0 10 10 10h31q11 0 11 11v237q0 10 10 10h225q86 0 136 -50.5t50 -135.5v-258q0 -86 -50 -136t-136 -50h-225zM302 105q29 0 50.5 20.5t21.5 51.5v276q0 29 -21.5 50.5t-50.5 21.5h-110q-10 0 -10 -10v-133
q0 -10 11 -10h76q10 0 10 -10v-94q0 -10 -10 -10h-76q-11 0 -11 -11v-132q0 -10 10 -10h110z" />
    <glyph glyph-name="dcroat" unicode="&#x111;" horiz-adv-x="473" 
d="M321 0q-10 0 -10 9q0 11 -8 11q-1 0 -7 -2q-16 -8 -34 -13t-32 -5q-43 0 -77.5 13t-59 36.5t-37.5 56t-13 71.5v105q0 39 14 71.5t38 55.5t56 36t69 13q15 0 32.5 -5t33.5 -13q2 -1 3.5 -1.5t3.5 -0.5q8 0 8 11v45q0 9 -11 9h-85q-9 0 -9 10v49q0 9 9 9h85q10 0 11 7v42
q0 10 10 10h95q10 0 10 -10v-40q2 -9 10 -9h30q10 0 10 -9v-49q0 -10 -10 -10h-30q-10 0 -10 -7v-486q0 -10 -10 -10h-85zM301 282q0 30 -20.5 50.5t-50.5 20.5q-31 0 -51.5 -20.5t-20.5 -50.5v-105q0 -31 20.5 -51.5t51.5 -20.5q30 0 50.5 20.5t20.5 51.5v105z" />
    <glyph glyph-name="Emacron" unicode="&#x112;" horiz-adv-x="478" 
d="M77 0q-10 0 -10 10v610q0 10 10 10h353q10 0 10 -10v-85q0 -10 -10 -10h-238q-10 0 -10 -10v-133q0 -10 10 -10h195q10 0 10 -10v-85q0 -10 -10 -10h-195q-10 0 -10 -10v-142q0 -10 10 -10h238q10 0 10 -10v-85q0 -10 -10 -10h-353zM141 705q-10 0 -10 10v85q0 10 10 10
h228q10 0 10 -10v-85q0 -10 -10 -10h-228z" />
    <glyph glyph-name="emacron" unicode="&#x113;" horiz-adv-x="459" 
d="M401 116q6 -3 6 -8q0 -3 -4.5 -11.5t-10.5 -18.5q-23 -38 -60 -63t-102 -25q-43 0 -77.5 13t-59 36.5t-37.5 56t-13 71.5v124q0 31 13 62.5t37.5 57t59 41.5t77.5 16q42 0 76.5 -16t59 -41.5t37.5 -57t13 -62.5v-81q0 -10 -10 -10h-238q-10 0 -10 -10v-23
q0 -29 20.5 -50.5t51.5 -21.5q20 0 38.5 13.5t32.5 45.5q3 6 8 6q3 0 17 -7zM289 296q11 0 11 9q0 4 -4 14t-12.5 19.5t-21.5 17t-32 7.5q-18 0 -31.5 -7t-22.5 -17t-13 -19.5t-4 -14.5q0 -9 11 -9h119zM116 539q-10 0 -10 10v85q0 10 10 10h228q10 0 10 -10v-85
q0 -10 -10 -10h-228z" />
    <glyph glyph-name="Ebreve" unicode="&#x114;" horiz-adv-x="478" 
d="M77 0q-10 0 -10 10v610q0 10 10 10h353q10 0 10 -10v-85q0 -10 -10 -10h-238q-10 0 -10 -10v-133q0 -10 10 -10h195q10 0 10 -10v-85q0 -10 -10 -10h-195q-10 0 -10 -10v-142q0 -10 10 -10h238q10 0 10 -10v-85q0 -10 -10 -10h-353zM248 692q-46 0 -73 26.5t-27 68.5v62
q0 10 10 10h51q10 0 10 -10v-43q0 -11 9 -19.5t20 -8.5h43q12 0 20 8t8 20v43q0 10 10 10h52q10 0 10 -10v-62q0 -42 -27 -68.5t-73 -26.5h-43z" />
    <glyph glyph-name="ebreve" unicode="&#x115;" horiz-adv-x="459" 
d="M401 116q6 -3 6 -8q0 -3 -4.5 -11.5t-10.5 -18.5q-23 -38 -60 -63t-102 -25q-43 0 -77.5 13t-59 36.5t-37.5 56t-13 71.5v124q0 31 13 62.5t37.5 57t59 41.5t77.5 16q42 0 76.5 -16t59 -41.5t37.5 -57t13 -62.5v-81q0 -10 -10 -10h-238q-10 0 -10 -10v-23
q0 -29 20.5 -50.5t51.5 -21.5q20 0 38.5 13.5t32.5 45.5q3 6 8 6q3 0 17 -7zM289 296q11 0 11 9q0 4 -4 14t-12.5 19.5t-21.5 17t-32 7.5q-18 0 -31.5 -7t-22.5 -17t-13 -19.5t-4 -14.5q0 -9 11 -9h119zM208 523q-46 0 -73 26.5t-27 68.5v62q0 10 10 10h51q10 0 10 -10v-43
q0 -11 9 -19.5t20 -8.5h43q12 0 20 8t8 20v43q0 10 10 10h52q10 0 10 -10v-62q0 -42 -27 -68.5t-73 -26.5h-43z" />
    <glyph glyph-name="Edotaccent" unicode="&#x116;" horiz-adv-x="478" 
d="M77 0q-10 0 -10 10v610q0 10 10 10h353q10 0 10 -10v-85q0 -10 -10 -10h-238q-10 0 -10 -10v-133q0 -10 10 -10h195q10 0 10 -10v-85q0 -10 -10 -10h-195q-10 0 -10 -10v-142q0 -10 10 -10h238q10 0 10 -10v-85q0 -10 -10 -10h-353zM323 763q0 -26 -18 -44t-44 -18
t-44 18t-18 44t18 44t44 18t44 -18t18 -44z" />
    <glyph glyph-name="edotaccent" unicode="&#x117;" horiz-adv-x="459" 
d="M401 116q6 -3 6 -8q0 -3 -4.5 -11.5t-10.5 -18.5q-23 -38 -60 -63t-102 -25q-43 0 -77.5 13t-59 36.5t-37.5 56t-13 71.5v124q0 31 13 62.5t37.5 57t59 41.5t77.5 16q42 0 76.5 -16t59 -41.5t37.5 -57t13 -62.5v-81q0 -10 -10 -10h-238q-10 0 -10 -10v-23
q0 -29 20.5 -50.5t51.5 -21.5q20 0 38.5 13.5t32.5 45.5q3 6 8 6q3 0 17 -7zM289 296q11 0 11 9q0 4 -4 14t-12.5 19.5t-21.5 17t-32 7.5q-18 0 -31.5 -7t-22.5 -17t-13 -19.5t-4 -14.5q0 -9 11 -9h119zM292 595q0 -26 -18 -44t-44 -18t-44 18t-18 44t18 44t44 18t44 -18
t18 -44z" />
    <glyph glyph-name="Eogonek" unicode="&#x118;" horiz-adv-x="478" 
d="M430 -204q0 -10 -9 -10q-11 0 -31.5 5t-34.5 12q-38 19 -60 52t-22 73v72h-196q-10 0 -10 10v610q0 10 10 10h353q10 0 10 -10v-85q0 -10 -10 -10h-238q-10 0 -10 -10v-133q0 -10 10 -10h195q10 0 10 -10v-85q0 -10 -10 -10h-195q-10 0 -10 -10v-142q0 -10 10 -10h238
q10 0 10 -10v-85q0 -10 -10 -10h-64v-78q0 -18 13 -32t42 -18q9 -2 9 -10v-66z" />
    <glyph glyph-name="eogonek" unicode="&#x119;" horiz-adv-x="459" 
d="M360 -204q0 -10 -9 -10q-11 0 -31.5 5t-34.5 12q-38 19 -60 52t-22 73v63q-37 4 -66.5 18.5t-50.5 37.5t-32 53.5t-11 66.5v124q0 31 13 62.5t37.5 57t59 41.5t77.5 16q42 0 76.5 -16t59 -41.5t37.5 -57t13 -62.5v-81q0 -10 -10 -10h-238q-10 0 -10 -10v-23
q0 -29 20.5 -50.5t51.5 -21.5q20 0 38.5 13.5t32.5 45.5q3 6 8 6q3 0 17 -7l75 -37q6 -3 6 -8q0 -3 -4.5 -11.5t-10.5 -18.5q-17 -27 -39.5 -47.5t-56.5 -31.5v-77q0 -18 13 -32t42 -18q9 -2 9 -10v-66zM289 296q11 0 11 9q0 4 -4 14t-12.5 19.5t-21.5 17t-32 7.5
q-18 0 -31.5 -7t-22.5 -17t-13 -19.5t-4 -14.5q0 -9 11 -9h119z" />
    <glyph glyph-name="Ecaron" unicode="&#x11a;" horiz-adv-x="478" 
d="M77 0q-10 0 -10 10v610q0 10 10 10h353q10 0 10 -10v-85q0 -10 -10 -10h-238q-10 0 -10 -10v-133q0 -10 10 -10h195q10 0 10 -10v-85q0 -10 -10 -10h-195q-10 0 -10 -10v-142q0 -10 10 -10h238q10 0 10 -10v-85q0 -10 -10 -10h-353zM245 692q-4 0 -8 4l-97 137
q-5 7 -7.5 11t-2.5 7q0 8 11 8h81q5 0 8 -5l32 -51q3 -6 7 -6q5 0 8 6l33 51q3 5 8 5h81q11 0 11 -8q0 -3 -3 -8t-7 -10l-98 -137q-4 -4 -8 -4h-49z" />
    <glyph glyph-name="ecaron" unicode="&#x11b;" horiz-adv-x="459" 
d="M401 116q6 -3 6 -8q0 -3 -4.5 -11.5t-10.5 -18.5q-23 -38 -60 -63t-102 -25q-43 0 -77.5 13t-59 36.5t-37.5 56t-13 71.5v124q0 31 13 62.5t37.5 57t59 41.5t77.5 16q42 0 76.5 -16t59 -41.5t37.5 -57t13 -62.5v-81q0 -10 -10 -10h-238q-10 0 -10 -10v-23
q0 -29 20.5 -50.5t51.5 -21.5q20 0 38.5 13.5t32.5 45.5q3 6 8 6q3 0 17 -7zM289 296q11 0 11 9q0 4 -4 14t-12.5 19.5t-21.5 17t-32 7.5q-18 0 -31.5 -7t-22.5 -17t-13 -19.5t-4 -14.5q0 -9 11 -9h119zM205 523q-4 0 -8 4l-97 137q-5 7 -7.5 11t-2.5 7q0 8 11 8h81
q5 0 8 -5l32 -51q3 -6 7 -6q5 0 8 6l33 51q3 5 8 5h81q11 0 11 -8q0 -3 -3 -8t-7 -10l-98 -137q-4 -4 -8 -4h-49z" />
    <glyph glyph-name="Gcircumflex" unicode="&#x11c;" 
d="M239 -10q-43 0 -77.5 13t-58.5 36.5t-37 56t-13 71.5v296q0 39 13 71.5t37 56t58.5 36.5t77.5 13h66q63 0 99 -23t59 -58q7 -11 13 -21.5t6 -15.5q0 -4 -6 -7l-80 -41q-3 -2 -6 -3.5t-6 -1.5q-5 0 -8 7q-14 32 -32.5 45.5t-38.5 13.5h-66q-29 0 -50.5 -21.5t-21.5 -50.5
v-296q0 -29 21.5 -50.5t50.5 -21.5h49q30 0 50.5 21t20.5 51v47q0 10 -10 10h-94q-10 0 -10 10v85q0 10 10 10h209q10 0 10 -10v-152q0 -39 -13 -71.5t-37.5 -56t-59 -36.5t-76.5 -13h-49zM157 692q-11 0 -11 8q0 3 3 8l104 147q4 4 8 4h49q4 0 8 -4l105 -147q3 -5 3 -8
q0 -8 -11 -8h-81q-5 0 -8 5l-33 51q-3 6 -8 6q-4 0 -7 -6l-32 -51q-3 -5 -8 -5h-81z" />
    <glyph glyph-name="gcircumflex" unicode="&#x11d;" horiz-adv-x="459" 
d="M187 -225q-30 0 -56.5 8t-46 24t-30.5 39t-11 53v29q0 31 14 55.5t37 41.5q4 4 4 8q0 3 -3 7t-6.5 10.5t-6.5 15.5t-3 23q0 15 3.5 26t7.5 18t7.5 11t3.5 6q0 4 -3 7q-25 24 -40 53.5t-15 67.5v14q0 39 14.5 70t39.5 52t59.5 32.5t73.5 11.5q24 0 55 -13q5 -2 9.5 -4.5
t8.5 -2.5q8 0 8 11q0 9 10 9h85q10 0 10 -10v-165q0 -39 -14.5 -71t-39.5 -54.5t-59 -35t-73 -12.5h-24q-8 0 -14 -7.5t-6 -20.5q0 -14 6 -22t16 -8h107q30 0 56.5 -8t46 -23.5t30.5 -39t11 -53.5v-29q0 -30 -11 -53t-30.5 -39t-46 -24t-56.5 -8h-128zM301 292
q0 30 -20.5 49.5t-50.5 19.5q-31 0 -51.5 -19.5t-20.5 -49.5v-14q0 -29 20.5 -47t51.5 -18q30 0 50.5 17.5t20.5 47.5v14zM315 -130q13 0 21 9t8 20v29q0 13 -8 21t-21 8h-128q-13 0 -21 -8t-8 -21v-29q0 -11 8 -20t21 -9h128zM101 523q-11 0 -11 8q0 3 3 8l104 147q4 4 8 4
h49q4 0 8 -4l105 -147q3 -5 3 -8q0 -8 -11 -8h-81q-5 0 -8 5l-33 51q-3 6 -8 6q-4 0 -7 -6l-32 -51q-3 -5 -8 -5h-81z" />
    <glyph glyph-name="Gbreve" unicode="&#x11e;" 
d="M239 -10q-43 0 -77.5 13t-58.5 36.5t-37 56t-13 71.5v296q0 39 13 71.5t37 56t58.5 36.5t77.5 13h66q63 0 99 -23t59 -58q7 -11 13 -21.5t6 -15.5q0 -4 -6 -7l-80 -41q-3 -2 -6 -3.5t-6 -1.5q-5 0 -8 7q-14 32 -32.5 45.5t-38.5 13.5h-66q-29 0 -50.5 -21.5t-21.5 -50.5
v-296q0 -29 21.5 -50.5t50.5 -21.5h49q30 0 50.5 21t20.5 51v47q0 10 -10 10h-94q-10 0 -10 10v85q0 10 10 10h209q10 0 10 -10v-152q0 -39 -13 -71.5t-37.5 -56t-59 -36.5t-76.5 -13h-49zM264 692q-46 0 -73 26.5t-27 68.5v62q0 10 10 10h51q10 0 10 -10v-43q0 -11 9 -19.5
t20 -8.5h43q12 0 20 8t8 20v43q0 10 10 10h52q10 0 10 -10v-62q0 -42 -27 -68.5t-73 -26.5h-43z" />
    <glyph glyph-name="gbreve" unicode="&#x11f;" horiz-adv-x="459" 
d="M187 -225q-30 0 -56.5 8t-46 24t-30.5 39t-11 53v29q0 31 14 55.5t37 41.5q4 4 4 8q0 3 -3 7t-6.5 10.5t-6.5 15.5t-3 23q0 15 3.5 26t7.5 18t7.5 11t3.5 6q0 4 -3 7q-25 24 -40 53.5t-15 67.5v14q0 39 14.5 70t39.5 52t59.5 32.5t73.5 11.5q24 0 55 -13q5 -2 9.5 -4.5
t8.5 -2.5q8 0 8 11q0 9 10 9h85q10 0 10 -10v-165q0 -39 -14.5 -71t-39.5 -54.5t-59 -35t-73 -12.5h-24q-8 0 -14 -7.5t-6 -20.5q0 -14 6 -22t16 -8h107q30 0 56.5 -8t46 -23.5t30.5 -39t11 -53.5v-29q0 -30 -11 -53t-30.5 -39t-46 -24t-56.5 -8h-128zM301 292
q0 30 -20.5 49.5t-50.5 19.5q-31 0 -51.5 -19.5t-20.5 -49.5v-14q0 -29 20.5 -47t51.5 -18q30 0 50.5 17.5t20.5 47.5v14zM315 -130q13 0 21 9t8 20v29q0 13 -8 21t-21 8h-128q-13 0 -21 -8t-8 -21v-29q0 -11 8 -20t21 -9h128zM208 523q-46 0 -73 26.5t-27 68.5v62
q0 10 10 10h51q10 0 10 -10v-43q0 -11 9 -19.5t20 -8.5h43q12 0 20 8t8 20v43q0 10 10 10h52q10 0 10 -10v-62q0 -42 -27 -68.5t-73 -26.5h-43z" />
    <glyph glyph-name="Gdotaccent" unicode="&#x120;" 
d="M239 -10q-43 0 -77.5 13t-58.5 36.5t-37 56t-13 71.5v296q0 39 13 71.5t37 56t58.5 36.5t77.5 13h66q63 0 99 -23t59 -58q7 -11 13 -21.5t6 -15.5q0 -4 -6 -7l-80 -41q-3 -2 -6 -3.5t-6 -1.5q-5 0 -8 7q-14 32 -32.5 45.5t-38.5 13.5h-66q-29 0 -50.5 -21.5t-21.5 -50.5
v-296q0 -29 21.5 -50.5t50.5 -21.5h49q30 0 50.5 21t20.5 51v47q0 10 -10 10h-94q-10 0 -10 10v85q0 10 10 10h209q10 0 10 -10v-152q0 -39 -13 -71.5t-37.5 -56t-59 -36.5t-76.5 -13h-49zM339 763q0 -26 -18 -44t-44 -18t-44 18t-18 44t18 44t44 18t44 -18t18 -44z" />
    <glyph glyph-name="gdotaccent" unicode="&#x121;" horiz-adv-x="459" 
d="M187 -225q-30 0 -56.5 8t-46 24t-30.5 39t-11 53v29q0 31 14 55.5t37 41.5q4 4 4 8q0 3 -3 7t-6.5 10.5t-6.5 15.5t-3 23q0 15 3.5 26t7.5 18t7.5 11t3.5 6q0 4 -3 7q-25 24 -40 53.5t-15 67.5v14q0 39 14.5 70t39.5 52t59.5 32.5t73.5 11.5q24 0 55 -13q5 -2 9.5 -4.5
t8.5 -2.5q8 0 8 11q0 9 10 9h85q10 0 10 -10v-165q0 -39 -14.5 -71t-39.5 -54.5t-59 -35t-73 -12.5h-24q-8 0 -14 -7.5t-6 -20.5q0 -14 6 -22t16 -8h107q30 0 56.5 -8t46 -23.5t30.5 -39t11 -53.5v-29q0 -30 -11 -53t-30.5 -39t-46 -24t-56.5 -8h-128zM301 292
q0 30 -20.5 49.5t-50.5 19.5q-31 0 -51.5 -19.5t-20.5 -49.5v-14q0 -29 20.5 -47t51.5 -18q30 0 50.5 17.5t20.5 47.5v14zM315 -130q13 0 21 9t8 20v29q0 13 -8 21t-21 8h-128q-13 0 -21 -8t-8 -21v-29q0 -11 8 -20t21 -9h128zM292 595q0 -26 -18 -44t-44 -18t-44 18t-18 44
t18 44t44 18t44 -18t18 -44z" />
    <glyph glyph-name="Gcommaaccent" unicode="&#x122;" 
d="M239 -10q-43 0 -77.5 13t-58.5 36.5t-37 56t-13 71.5v296q0 39 13 71.5t37 56t58.5 36.5t77.5 13h66q63 0 99 -23t59 -58q7 -11 13 -21.5t6 -15.5q0 -4 -6 -7l-80 -41q-3 -2 -6 -3.5t-6 -1.5q-5 0 -8 7q-14 32 -32.5 45.5t-38.5 13.5h-66q-29 0 -50.5 -21.5t-21.5 -50.5
v-296q0 -29 21.5 -50.5t50.5 -21.5h49q30 0 50.5 21t20.5 51v47q0 10 -10 10h-94q-10 0 -10 10v85q0 10 10 10h209q10 0 10 -10v-152q0 -39 -13 -71.5t-37.5 -56t-59 -36.5t-76.5 -13h-49zM192 -201q-2 2 -2 7t3 8l8 9q14 18 21 43t7 55v21q0 9 9 9h83q9 0 9 -9v-22
q0 -54 -22 -99t-73 -71q-2 -1 -6 -1q-6 0 -9 4z" />
    <glyph glyph-name="gcommaaccent" unicode="&#x123;" horiz-adv-x="459" 
d="M187 -225q-30 0 -56.5 8t-46 24t-30.5 39t-11 53v29q0 31 14 55.5t37 41.5q4 4 4 8q0 3 -3 7t-6.5 10.5t-6.5 15.5t-3 23q0 15 3.5 26t7.5 18t7.5 11t3.5 6q0 4 -3 7q-25 24 -40 53.5t-15 67.5v14q0 39 14.5 70t39.5 52t59.5 32.5t73.5 11.5q24 0 55 -13q5 -2 9.5 -4.5
t8.5 -2.5q8 0 8 11q0 9 10 9h85q10 0 10 -10v-165q0 -39 -14.5 -71t-39.5 -54.5t-59 -35t-73 -12.5h-24q-8 0 -14 -7.5t-6 -20.5q0 -14 6 -22t16 -8h107q30 0 56.5 -8t46 -23.5t30.5 -39t11 -53.5v-29q0 -30 -11 -53t-30.5 -39t-46 -24t-56.5 -8h-128zM301 292
q0 30 -20.5 49.5t-50.5 19.5q-31 0 -51.5 -19.5t-20.5 -49.5v-14q0 -29 20.5 -47t51.5 -18q30 0 50.5 17.5t20.5 47.5v14zM315 -130q13 0 21 9t8 20v29q0 13 -8 21t-21 8h-128q-13 0 -21 -8t-8 -21v-29q0 -11 8 -20t21 -9h128zM168 517q-9 0 -9 9v23q0 53 22 98t73 71
q4 2 7 2q4 0 8 -4l29 -47q2 -4 2 -6q0 -5 -4 -8q-17 -25 -26 -47.5t-9 -59.5v-22q0 -9 -9 -9h-84z" />
    <glyph glyph-name="Hcircumflex" unicode="&#x124;" horiz-adv-x="570" 
d="M77 0q-10 0 -10 10v610q0 10 10 10h95q10 0 10 -10v-238q0 -10 10 -10h186q10 0 10 10v238q0 10 10 10h94q10 0 10 -10v-610q0 -10 -10 -10h-94q-10 0 -10 10v247q0 10 -10 10h-186q-10 0 -10 -10v-247q0 -10 -10 -10h-95zM171 692q-11 0 -11 8q0 3 3 8l104 147q4 4 8 4
h49q4 0 8 -4l105 -147q3 -5 3 -8q0 -8 -11 -8h-81q-5 0 -8 5l-33 51q-3 6 -8 6q-4 0 -7 -6l-32 -51q-3 -5 -8 -5h-81z" />
    <glyph glyph-name="hcircumflex" unicode="&#x125;" horiz-adv-x="483" 
d="M68 0q-10 0 -10 10v610q0 10 10 10h94q10 0 10 -10v-171q0 -11 8 -11q2 0 3.5 0.5t3.5 1.5q16 8 34 13t32 5q37 0 69.5 -13t56.5 -36t37.5 -55.5t13.5 -71.5v-272q0 -10 -10 -10h-95q-10 0 -10 10v272q0 30 -20.5 50.5t-50.5 20.5t-51 -20.5t-21 -50.5v-272
q0 -10 -10 -10h-94zM10 692q-11 0 -11 8q0 3 3 8l104 147q4 4 8 4h49q4 0 8 -4l105 -147q3 -5 3 -8q0 -8 -11 -8h-81q-5 0 -8 5l-33 51q-3 6 -8 6q-4 0 -7 -6l-32 -51q-3 -5 -8 -5h-81z" />
    <glyph glyph-name="Hbar" unicode="&#x126;" horiz-adv-x="570" 
d="M77 0q-10 0 -10 10v434q-2 7 -11 7h-11q-9 0 -9 10v64q0 10 9 10h11q11 0 11 11v74q0 10 10 10h95q10 0 10 -10v-76q1 -9 11 -9h184q10 0 11 7v78q0 10 10 10h94q10 0 10 -10v-78q1 -7 11 -7h11q9 0 9 -10v-64q0 -10 -9 -10h-11q-11 0 -11 -8v-433q0 -10 -10 -10h-94
q-10 0 -10 10v247q0 10 -10 10h-186q-10 0 -10 -10v-247q0 -10 -10 -10h-95zM378 372q10 0 10 10v62q-2 7 -11 7h-184q-9 0 -11 -6v-63q0 -10 10 -10h186z" />
    <glyph glyph-name="hbar" unicode="&#x127;" horiz-adv-x="483" 
d="M68 0q-10 0 -10 10v486q-2 7 -10 7h-30q-10 0 -10 10v49q0 9 10 9h30q10 0 10 12v37q0 10 10 10h94q10 0 10 -10v-42q1 -7 11 -7h86q9 0 9 -9v-49q0 -10 -9 -10h-86q-9 0 -11 -7v-47q0 -11 8 -11q2 0 3.5 0.5t3.5 1.5q16 8 34 13t32 5q37 0 69.5 -13t56.5 -36t37.5 -55.5
t13.5 -71.5v-272q0 -10 -10 -10h-95q-10 0 -10 10v272q0 30 -20.5 50.5t-50.5 20.5t-51 -20.5t-21 -50.5v-272q0 -10 -10 -10h-94z" />
    <glyph glyph-name="Itilde" unicode="&#x128;" horiz-adv-x="249" 
d="M77 0q-10 0 -10 10v610q0 10 10 10h95q10 0 10 -10v-610q0 -10 -10 -10h-95zM-16 749q-4 3 -4 8q0 6 14 28q20 32 41.5 45t45.5 13q17 0 33.5 -6.5t34.5 -19.5l17 -12q6 -5 14 -8t14 -3q10 0 20 6.5t23 27.5q3 6 8 6q3 0 5.5 -2t5.5 -4l36 -29q4 -3 4 -8q0 -3 -5 -12
t-13 -22q-38 -55 -84 -55q-17 0 -33 8.5t-36 20.5l-18 11q-6 4 -13 7t-13 3q-10 0 -19.5 -6.5t-21.5 -24.5q-3 -6 -8 -6q-3 0 -14 9z" />
    <glyph glyph-name="itilde" unicode="&#x129;" horiz-adv-x="230" 
d="M68 0q-10 0 -10 10v438q0 10 10 10h94q10 0 10 -10v-438q0 -10 -10 -10h-94zM-38 576q-4 3 -4 8q0 6 14 28q20 32 41.5 45t45.5 13q17 0 33.5 -6.5t34.5 -19.5l17 -12q6 -5 14 -8t14 -3q10 0 20 6.5t23 27.5q3 6 8 6q3 0 5.5 -2t5.5 -4l36 -29q4 -3 4 -8q0 -3 -5 -12
t-13 -22q-38 -55 -84 -55q-17 0 -33 8.5t-36 20.5l-18 11q-6 4 -13 7t-13 3q-10 0 -19.5 -6.5t-21.5 -24.5q-3 -6 -8 -6q-3 0 -14 9z" />
    <glyph glyph-name="Imacron" unicode="&#x12a;" horiz-adv-x="249" 
d="M77 0q-10 0 -10 10v610q0 10 10 10h95q10 0 10 -10v-610q0 -10 -10 -10h-95zM11 705q-10 0 -10 10v85q0 10 10 10h228q10 0 10 -10v-85q0 -10 -10 -10h-228z" />
    <glyph glyph-name="imacron" unicode="&#x12b;" horiz-adv-x="230" 
d="M68 0q-10 0 -10 10v438q0 10 10 10h94q10 0 10 -10v-438q0 -10 -10 -10h-94zM2 539q-10 0 -10 10v85q0 10 10 10h228q10 0 10 -10v-85q0 -10 -10 -10h-228z" />
    <glyph glyph-name="Iogonek" unicode="&#x12e;" horiz-adv-x="249" 
d="M224 -204q0 -10 -9 -10q-31 0 -58 12t-47 32t-31.5 45.5t-11.5 52.5v692q0 10 10 10h95q10 0 10 -10v-610q0 -10 -10 -10h-12v-78q0 -18 13 -32t42 -18q9 -2 9 -10v-66z" />
    <glyph glyph-name="iogonek" unicode="&#x12f;" horiz-adv-x="230" 
d="M215 -204q0 -10 -9 -10q-11 0 -31.5 5t-34.5 12q-38 19 -60 52t-22 73v119v2v399q0 10 10 10h94q10 0 10 -10v-438q0 -10 -10 -10h-11v-78q0 -18 13 -32t42 -18q9 -2 9 -10v-66zM182 573q0 -27 -20 -47t-47 -20t-47 20t-20 47t20 47t47 20t47 -20t20 -47z" />
    <glyph glyph-name="Idotaccent" unicode="&#x130;" horiz-adv-x="249" 
d="M77 0q-10 0 -10 10v610q0 10 10 10h95q10 0 10 -10v-610q0 -10 -10 -10h-95zM193 763q0 -26 -18 -44t-44 -18t-44 18t-18 44t18 44t44 18t44 -18t18 -44z" />
    <glyph glyph-name="dotlessi" unicode="&#x131;" horiz-adv-x="230" 
d="M68 0q-10 0 -10 10v438q0 10 10 10h94q10 0 10 -10v-438q0 -10 -10 -10h-94z" />
    <glyph glyph-name="IJ" unicode="&#x132;" horiz-adv-x="678" 
d="M77 0q-10 0 -10 10v610q0 10 10 10h95q10 0 10 -10v-610q0 -10 -10 -10h-95zM334 154q16 7 18 7q5 0 8 -6q12 -32 31 -46t40 -14q30 0 50.5 21t20.5 51v453q0 10 10 10h95q10 0 10 -10v-443q0 -39 -14.5 -73t-40 -59.5t-59.5 -40t-72 -14.5q-43 0 -84 22t-70 57
q-11 14 -18.5 25t-7.5 16t7 8z" />
    <glyph glyph-name="ij" unicode="&#x133;" horiz-adv-x="460" 
d="M182 573q0 -27 -20 -47t-47 -20t-47 20t-20 47t20 47t47 20t47 -20t20 -47zM68 0q-10 0 -10 10v438q0 10 10 10h94q10 0 10 -10v-438q0 -10 -10 -10h-94zM412 573q0 -27 -20 -47t-47 -20t-47 20t-20 47t20 47t47 20t47 -20t20 -47zM202 -140q0 10 9 10q39 3 58 23.5
t19 47.5v507q0 10 10 10h94q10 0 10 -10v-498q0 -56 -30 -100t-84 -67q-18 -8 -40 -13t-36 -5q-10 0 -10 10v85z" />
    <glyph glyph-name="Jcircumflex" unicode="&#x134;" horiz-adv-x="429" 
d="M85 154q16 7 18 7q5 0 8 -6q12 -32 31 -46t40 -14q30 0 50.5 21t20.5 51v453q0 10 10 10h95q10 0 10 -10v-443q0 -39 -14.5 -73t-40 -59.5t-59.5 -40t-72 -14.5q-43 0 -84 22t-70 57q-11 14 -18.5 25t-7.5 16t7 8zM193 692q-11 0 -11 8q0 3 3 8l104 147q4 4 8 4h49
q4 0 8 -4l105 -147q3 -5 3 -8q0 -8 -11 -8h-81q-5 0 -8 5l-33 51q-3 6 -8 6q-4 0 -7 -6l-32 -51q-3 -5 -8 -5h-81z" />
    <glyph glyph-name="jcircumflex" unicode="&#x135;" horiz-adv-x="230" 
d="M-28 -140q0 10 9 10q39 3 58 23.5t19 47.5v507q0 10 10 10h94q10 0 10 -10v-498q0 -56 -30 -100t-84 -67q-18 -8 -40 -13t-36 -5q-10 0 -10 10v85zM-14 523q-11 0 -11 8q0 3 3 8l104 147q4 4 8 4h49q4 0 8 -4l105 -147q3 -5 3 -8q0 -8 -11 -8h-81q-5 0 -8 5l-33 51
q-3 6 -8 6q-4 0 -7 -6l-32 -51q-3 -5 -8 -5h-81z" />
    <glyph glyph-name="Kcommaaccent" unicode="&#x136;" horiz-adv-x="521" 
d="M77 0q-10 0 -10 10v610q0 10 10 10h95q10 0 10 -10v-222q0 -12 9 -12q4 0 9 6l178 234q4 4 8 4h115q11 0 11 -8q0 -4 -3 -8l-188 -233q-7 -9 -7 -13q0 -3 6 -13l205 -332q3 -5 5 -8.5t2 -6.5q0 -8 -11 -8h-117q-5 0 -8 5l-157 251q-5 7 -9 7q-5 0 -8 -5l-32 -43
q-8 -11 -8 -24v-181q0 -10 -10 -10h-95zM191 -201q-2 2 -2 7t3 8l8 9q14 18 21 43t7 55v21q0 9 9 9h83q9 0 9 -9v-22q0 -54 -22 -99t-73 -71q-2 -1 -6 -1q-6 0 -9 4z" />
    <glyph glyph-name="kcommaaccent" unicode="&#x137;" horiz-adv-x="449" 
d="M68 0q-10 0 -10 10v610q0 10 10 10h94q10 0 10 -10v-274q0 -11 9 -11q4 0 8 4l102 112q3 3 6 5t8 2h116q11 0 11 -8q0 -5 -4 -9l-134 -137q-6 -8 -6 -12t6 -14l159 -257q2 -4 4 -7t2 -6q0 -8 -11 -8h-117q-6 0 -9 5l-115 189q-3 6 -8 6q-4 0 -8 -4l-14 -14q-5 -5 -5 -11
v-161q0 -10 -10 -10h-94zM156 -201q-2 2 -2 7t3 8l8 9q14 18 21 43t7 55v21q0 9 9 9h83q9 0 9 -9v-22q0 -54 -22 -99t-73 -71q-2 -1 -6 -1q-6 0 -9 4z" />
    <glyph glyph-name="Lacute" unicode="&#x139;" horiz-adv-x="454" 
d="M77 0q-10 0 -10 10v610q0 10 10 10h95q10 0 10 -10v-505q0 -10 10 -10h238q10 0 10 -10v-85q0 -10 -10 -10h-353zM97 695q-10 0 -10 8q0 3 2 6t4 7l90 138q5 8 14 8h122q11 0 11 -8q0 -5 -7 -12l-142 -140q-9 -7 -16 -7h-68z" />
    <glyph glyph-name="lacute" unicode="&#x13a;" horiz-adv-x="230" 
d="M68 0q-10 0 -10 10v610q0 10 10 10h94q10 0 10 -10v-610q0 -10 -10 -10h-94zM75 695q-10 0 -10 8q0 3 2 6t4 7l90 138q5 8 14 8h122q11 0 11 -8q0 -5 -7 -12l-142 -140q-9 -7 -16 -7h-68z" />
    <glyph glyph-name="Lcommaaccent" unicode="&#x13b;" horiz-adv-x="454" 
d="M77 0q-10 0 -10 10v610q0 10 10 10h95q10 0 10 -10v-505q0 -10 10 -10h238q10 0 10 -10v-85q0 -10 -10 -10h-353zM178 -201q-2 2 -2 7t3 8l8 9q14 18 21 43t7 55v21q0 9 9 9h83q9 0 9 -9v-22q0 -54 -22 -99t-73 -71q-2 -1 -6 -1q-6 0 -9 4z" />
    <glyph glyph-name="lcommaaccent" unicode="&#x13c;" horiz-adv-x="230" 
d="M68 0q-10 0 -10 10v610q0 10 10 10h94q10 0 10 -10v-610q0 -10 -10 -10h-94zM37 -201q-2 2 -2 7t3 8l8 9q14 18 21 43t7 55v21q0 9 9 9h83q9 0 9 -9v-22q0 -54 -22 -99t-73 -71q-2 -1 -6 -1q-6 0 -9 4z" />
    <glyph glyph-name="Lcaron" unicode="&#x13d;" horiz-adv-x="454" 
d="M77 0q-10 0 -10 10v610q0 10 10 10h95q10 0 10 -10v-505q0 -10 10 -10h238q10 0 10 -10v-85q0 -10 -10 -10h-353zM215 540q-2 4 -2 7q0 5 3 8l7 9q11 18 16.5 46t5.5 58v21q0 9 7 9h67q7 0 7 -9v-22q0 -54 -17.5 -96t-58.5 -68q-2 -1 -5 -1q-6 0 -7 4z" />
    <glyph glyph-name="lcaron" unicode="&#x13e;" horiz-adv-x="260" 
d="M68 0q-10 0 -10 10v610q0 10 10 10h94q10 0 10 -10v-610q0 -10 -10 -10h-94zM203 540q-2 4 -2 7q0 5 3 8l7 9q11 18 16.5 46t5.5 58v21q0 9 7 9h67q7 0 7 -9v-22q0 -54 -17.5 -96t-58.5 -68q-2 -1 -5 -1q-6 0 -7 4z" />
    <glyph glyph-name="Ldot" unicode="&#x13f;" horiz-adv-x="454" 
d="M77 0q-10 0 -10 10v610q0 10 10 10h95q10 0 10 -10v-505q0 -10 10 -10h238q10 0 10 -10v-85q0 -10 -10 -10h-353zM356 315q0 -26 -18 -44t-44 -18t-44 18t-18 44t18 44t44 18t44 -18t18 -44z" />
    <glyph glyph-name="ldot" unicode="&#x140;" horiz-adv-x="294" 
d="M68 0q-10 0 -10 10v610q0 10 10 10h94q10 0 10 -10v-610q0 -10 -10 -10h-94zM326 315q0 -26 -18 -44t-44 -18t-44 18t-18 44t18 44t44 18t44 -18t18 -44z" />
    <glyph glyph-name="Lslash" unicode="&#x141;" horiz-adv-x="454" 
d="M77 0q-10 0 -10 10v186q0 10 -5 10q-2 0 -6 -4l-6 -6q-4 -4 -8 -4t-7 3l-50 46q-4 3 -4 7q0 3 4 7l71 70q11 11 11 25v270q0 10 10 10h95q10 0 10 -10v-157q0 -7 4 -7q2 0 5 3l6 6q4 4 7 4t7 -4l49 -46q4 -3 4 -7q0 -3 -4 -7l-69 -69q-9 -9 -9 -21v-200q0 -10 10 -10h238
q10 0 10 -10v-85q0 -10 -10 -10h-353z" />
    <glyph glyph-name="lslash" unicode="&#x142;" horiz-adv-x="230" 
d="M68 0q-10 0 -10 10v186q0 10 -5 10q-2 0 -6 -4l-6 -6q-4 -4 -8 -4t-7 3l-50 46q-4 3 -4 7q0 3 4 7l71 70q11 11 11 25v270q0 10 10 10h94q10 0 10 -10v-157q0 -7 4 -7q2 0 5 3l6 6q4 4 7 4t7 -4l49 -46q4 -3 4 -7q0 -3 -4 -7l-69 -69q-9 -9 -9 -21v-305q0 -10 -10 -10
h-94z" />
    <glyph glyph-name="Nacute" unicode="&#x143;" horiz-adv-x="550" 
d="M77 0q-10 0 -10 10v610q0 10 10 10h84q6 0 9 -5l179 -328q1 -3 4.5 -10t6.5 -15t6 -15.5t4 -10.5l4 1q-1 9 -2 37.5t-2 65.5t-1.5 75.5t-0.5 68.5v126q0 10 10 10h94q10 0 10 -10v-610q0 -10 -10 -10h-83q-6 0 -9 5l-179 326q-2 3 -5 10t-6 15t-6 15.5t-4 10.5l-4 -1
q1 -9 2 -37.5t2 -65.5t1.5 -75.5t0.5 -68.5v-124q0 -10 -10 -10h-95zM204 695q-10 0 -10 8q0 3 2 6t4 7l90 138q5 8 14 8h122q11 0 11 -8q0 -5 -7 -12l-142 -140q-9 -7 -16 -7h-68z" />
    <glyph glyph-name="nacute" unicode="&#x144;" horiz-adv-x="488" 
d="M68 0q-10 0 -10 10v438q0 10 10 10h85q10 0 10 -9q0 -11 8 -11q2 0 3.5 0.5t3.5 1.5q16 8 33.5 13t32.5 5q42 0 76.5 -13t59 -36t37.5 -55.5t13 -71.5v-272q0 -10 -10 -10h-95q-10 0 -10 10v272q0 30 -20.5 50.5t-50.5 20.5t-51 -20.5t-21 -50.5v-272q0 -10 -10 -10h-94z
M176 523q-10 0 -10 8q0 3 2 6t4 7l90 138q5 8 14 8h122q11 0 11 -8q0 -5 -7 -12l-142 -140q-9 -7 -16 -7h-68z" />
    <glyph glyph-name="Ncommaaccent" unicode="&#x145;" horiz-adv-x="550" 
d="M77 0q-10 0 -10 10v610q0 10 10 10h84q6 0 9 -5l179 -328q1 -3 4.5 -10t6.5 -15t6 -15.5t4 -10.5l4 1q-1 9 -2 37.5t-2 65.5t-1.5 75.5t-0.5 68.5v126q0 10 10 10h94q10 0 10 -10v-610q0 -10 -10 -10h-83q-6 0 -9 5l-179 326q-2 3 -5 10t-6 15t-6 15.5t-4 10.5l-4 -1
q1 -9 2 -37.5t2 -65.5t1.5 -75.5t0.5 -68.5v-124q0 -10 -10 -10h-95zM196 -201q-2 2 -2 7t3 8l8 9q14 18 21 43t7 55v21q0 9 9 9h83q9 0 9 -9v-22q0 -54 -22 -99t-73 -71q-2 -1 -6 -1q-6 0 -9 4z" />
    <glyph glyph-name="ncommaaccent" unicode="&#x146;" horiz-adv-x="488" 
d="M68 0q-10 0 -10 10v438q0 10 10 10h85q10 0 10 -9q0 -11 8 -11q2 0 3.5 0.5t3.5 1.5q16 8 33.5 13t32.5 5q42 0 76.5 -13t59 -36t37.5 -55.5t13 -71.5v-272q0 -10 -10 -10h-95q-10 0 -10 10v272q0 30 -20.5 50.5t-50.5 20.5t-51 -20.5t-21 -50.5v-272q0 -10 -10 -10h-94z
M166 -201q-2 2 -2 7t3 8l8 9q14 18 21 43t7 55v21q0 9 9 9h83q9 0 9 -9v-22q0 -54 -22 -99t-73 -71q-2 -1 -6 -1q-6 0 -9 4z" />
    <glyph glyph-name="Ncaron" unicode="&#x147;" horiz-adv-x="550" 
d="M77 0q-10 0 -10 10v610q0 10 10 10h84q6 0 9 -5l179 -328q1 -3 4.5 -10t6.5 -15t6 -15.5t4 -10.5l4 1q-1 9 -2 37.5t-2 65.5t-1.5 75.5t-0.5 68.5v126q0 10 10 10h94q10 0 10 -10v-610q0 -10 -10 -10h-83q-6 0 -9 5l-179 326q-2 3 -5 10t-6 15t-6 15.5t-4 10.5l-4 -1
q1 -9 2 -37.5t2 -65.5t1.5 -75.5t0.5 -68.5v-124q0 -10 -10 -10h-95zM265 692q-4 0 -8 4l-97 137q-5 7 -7.5 11t-2.5 7q0 8 11 8h81q5 0 8 -5l32 -51q3 -6 7 -6q5 0 8 6l33 51q3 5 8 5h81q11 0 11 -8q0 -3 -3 -8t-7 -10l-98 -137q-4 -4 -8 -4h-49z" />
    <glyph glyph-name="ncaron" unicode="&#x148;" horiz-adv-x="488" 
d="M68 0q-10 0 -10 10v438q0 10 10 10h85q10 0 10 -9q0 -11 8 -11q2 0 3.5 0.5t3.5 1.5q16 8 33.5 13t32.5 5q42 0 76.5 -13t59 -36t37.5 -55.5t13 -71.5v-272q0 -10 -10 -10h-95q-10 0 -10 10v272q0 30 -20.5 50.5t-50.5 20.5t-51 -20.5t-21 -50.5v-272q0 -10 -10 -10h-94z
M220 523q-4 0 -8 4l-97 137q-5 7 -7.5 11t-2.5 7q0 8 11 8h81q5 0 8 -5l32 -51q3 -6 7 -6q5 0 8 6l33 51q3 5 8 5h81q11 0 11 -8q0 -3 -3 -8t-7 -10l-98 -137q-4 -4 -8 -4h-49z" />
    <glyph glyph-name="napostrophe" unicode="&#x149;" horiz-adv-x="488" 
d="M68 0q-10 0 -10 10v438q0 10 10 10h85q10 0 10 -9q0 -11 8 -11q2 0 3.5 0.5t3.5 1.5q16 8 33.5 13t32.5 5q42 0 76.5 -13t59 -36t37.5 -55.5t13 -71.5v-272q0 -10 -10 -10h-95q-10 0 -10 10v272q0 30 -20.5 50.5t-50.5 20.5t-51 -20.5t-21 -50.5v-272q0 -10 -10 -10h-94z
M-23 540q-2 4 -2 7q0 5 3 8l7 9q11 18 16.5 46t5.5 58v21q0 9 7 9h67q7 0 7 -9v-22q0 -54 -17.5 -96t-58.5 -68q-2 -1 -5 -1q-6 0 -7 4z" />
    <glyph glyph-name="Omacron" unicode="&#x14c;" 
d="M239 -10q-43 0 -77.5 13t-58.5 36.5t-37 56t-13 71.5v296q0 39 13 71.5t37 56t58.5 36.5t77.5 13h49q42 0 76.5 -13t59 -36.5t37.5 -56t13 -71.5v-296q0 -39 -13 -71.5t-37.5 -56t-59 -36.5t-76.5 -13h-49zM288 95q30 0 50.5 21t20.5 51v296q0 30 -20.5 51t-50.5 21h-49
q-29 0 -50.5 -21.5t-21.5 -50.5v-296q0 -29 21.5 -50.5t50.5 -21.5h49zM149 705q-10 0 -10 10v85q0 10 10 10h228q10 0 10 -10v-85q0 -10 -10 -10h-228z" />
    <glyph glyph-name="omacron" unicode="&#x14d;" horiz-adv-x="459" 
d="M43 291q0 39 13 71.5t37.5 56t59 36.5t77.5 13q42 0 76.5 -13t59 -36.5t37.5 -56t13 -71.5v-124q0 -39 -13 -71.5t-37.5 -56t-59 -36.5t-76.5 -13q-43 0 -77.5 13t-59 36.5t-37.5 56t-13 71.5v124zM301 291q0 30 -20.5 51t-50.5 21q-31 0 -51.5 -21.5t-20.5 -50.5v-124
q0 -29 20.5 -50.5t51.5 -21.5q30 0 50.5 21t20.5 51v124zM116 539q-10 0 -10 10v85q0 10 10 10h228q10 0 10 -10v-85q0 -10 -10 -10h-228z" />
    <glyph glyph-name="Obreve" unicode="&#x14e;" 
d="M239 -10q-43 0 -77.5 13t-58.5 36.5t-37 56t-13 71.5v296q0 39 13 71.5t37 56t58.5 36.5t77.5 13h49q42 0 76.5 -13t59 -36.5t37.5 -56t13 -71.5v-296q0 -39 -13 -71.5t-37.5 -56t-59 -36.5t-76.5 -13h-49zM288 95q30 0 50.5 21t20.5 51v296q0 30 -20.5 51t-50.5 21h-49
q-29 0 -50.5 -21.5t-21.5 -50.5v-296q0 -29 21.5 -50.5t50.5 -21.5h49zM256 692q-46 0 -73 26.5t-27 68.5v62q0 10 10 10h51q10 0 10 -10v-43q0 -11 9 -19.5t20 -8.5h43q12 0 20 8t8 20v43q0 10 10 10h52q10 0 10 -10v-62q0 -42 -27 -68.5t-73 -26.5h-43z" />
    <glyph glyph-name="obreve" unicode="&#x14f;" horiz-adv-x="459" 
d="M43 291q0 39 13 71.5t37.5 56t59 36.5t77.5 13q42 0 76.5 -13t59 -36.5t37.5 -56t13 -71.5v-124q0 -39 -13 -71.5t-37.5 -56t-59 -36.5t-76.5 -13q-43 0 -77.5 13t-59 36.5t-37.5 56t-13 71.5v124zM301 291q0 30 -20.5 51t-50.5 21q-31 0 -51.5 -21.5t-20.5 -50.5v-124
q0 -29 20.5 -50.5t51.5 -21.5q30 0 50.5 21t20.5 51v124zM208 523q-46 0 -73 26.5t-27 68.5v62q0 10 10 10h51q10 0 10 -10v-43q0 -11 9 -19.5t20 -8.5h43q12 0 20 8t8 20v43q0 10 10 10h52q10 0 10 -10v-62q0 -42 -27 -68.5t-73 -26.5h-43z" />
    <glyph glyph-name="Ohungarumlaut" unicode="&#x150;" 
d="M239 -10q-43 0 -77.5 13t-58.5 36.5t-37 56t-13 71.5v296q0 39 13 71.5t37 56t58.5 36.5t77.5 13h49q42 0 76.5 -13t59 -36.5t37.5 -56t13 -71.5v-296q0 -39 -13 -71.5t-37.5 -56t-59 -36.5t-76.5 -13h-49zM288 95q30 0 50.5 21t20.5 51v296q0 30 -20.5 51t-50.5 21h-49
q-29 0 -50.5 -21.5t-21.5 -50.5v-296q0 -29 21.5 -50.5t50.5 -21.5h49zM290 695q-10 0 -10 8q0 2 1.5 8t6.5 18l43 126q2 7 9 7h83q11 0 11 -8q0 -3 -2.5 -8.5t-6.5 -10.5l-86 -135q-3 -5 -9 -5h-40zM164 695q-10 0 -10 8q0 2 1.5 8t6.5 18l43 126q2 7 9 7h83q11 0 11 -8
q0 -3 -3 -8.5t-6 -10.5l-78 -135q-3 -5 -9 -5h-48z" />
    <glyph glyph-name="ohungarumlaut" unicode="&#x151;" horiz-adv-x="459" 
d="M43 291q0 39 13 71.5t37.5 56t59 36.5t77.5 13q42 0 76.5 -13t59 -36.5t37.5 -56t13 -71.5v-124q0 -39 -13 -71.5t-37.5 -56t-59 -36.5t-76.5 -13q-43 0 -77.5 13t-59 36.5t-37.5 56t-13 71.5v124zM301 291q0 30 -20.5 51t-50.5 21q-31 0 -51.5 -21.5t-20.5 -50.5v-124
q0 -29 20.5 -50.5t51.5 -21.5q30 0 50.5 21t20.5 51v124zM257 523q-10 0 -10 8q0 2 1.5 8t6.5 18l43 126q2 7 9 7h83q11 0 11 -8q0 -3 -2.5 -8.5t-6.5 -10.5l-86 -135q-3 -5 -9 -5h-40zM131 523q-10 0 -10 8q0 2 1.5 8t6.5 18l43 126q2 7 9 7h83q11 0 11 -8q0 -3 -3 -8.5
t-6 -10.5l-78 -135q-3 -5 -9 -5h-48z" />
    <glyph glyph-name="OE" unicode="&#x152;" horiz-adv-x="750" 
d="M239 -10q-43 0 -77.5 13t-58.5 36.5t-37 56t-13 71.5v296q0 39 13 71.5t37 56t58.5 36.5t77.5 13h29q17 0 33.5 -2.5t30.5 -7.5h370q10 0 10 -10v-85q0 -10 -10 -10h-244q-11 0 -11 -8q0 -5 3.5 -15.5t3.5 -38.5v-81q0 -10 10 -10h195q10 0 10 -10v-85q0 -10 -10 -10
h-195q-10 0 -10 -10v-90q0 -26 -3.5 -37.5t-3.5 -16.5q0 -8 11 -8h244q10 0 10 -10v-85q0 -10 -10 -10h-372q-14 -5 -29.5 -7.5t-32.5 -2.5h-29zM268 95q30 0 50.5 21t20.5 51v296q0 30 -20.5 51t-50.5 21h-29q-29 0 -50.5 -21.5t-21.5 -50.5v-296q0 -29 21.5 -50.5
t50.5 -21.5h29z" />
    <glyph glyph-name="oe" unicode="&#x153;" horiz-adv-x="716" 
d="M658 116q6 -3 6 -8q0 -3 -4.5 -11.5t-10.5 -18.5q-23 -38 -60 -63t-102 -25q-36 0 -64.5 8.5t-50.5 23.5q-3 2 -6.5 5t-7.5 3t-7.5 -3t-6.5 -5q-22 -15 -51 -23.5t-63 -8.5q-43 0 -77.5 13t-59 36.5t-37.5 56t-13 71.5v124q0 39 13 71.5t37.5 56t59 36.5t77.5 13
q71 0 120 -37q3 -2 5.5 -4.5t6.5 -2.5q3 0 7 2.5t6 4.5q23 17 50.5 27t61.5 10q42 0 76.5 -16t59 -41.5t37.5 -57t13 -62.5v-81q0 -10 -10 -10h-238q-10 0 -10 -10v-23q0 -29 20.5 -50.5t51.5 -21.5q20 0 38.5 13.5t32.5 45.5q3 6 8 6q3 0 17 -7zM546 296q11 0 11 9
q0 4 -4 14t-12.5 19.5t-21.5 17t-32 7.5q-18 0 -31.5 -7t-22.5 -17t-13 -19.5t-4 -14.5q0 -9 11 -9h119zM301 291q0 30 -20.5 51t-50.5 21q-31 0 -51.5 -21.5t-20.5 -50.5v-124q0 -29 20.5 -50.5t51.5 -21.5q30 0 50.5 21t20.5 51v124z" />
    <glyph glyph-name="Racute" unicode="&#x154;" 
d="M77 0q-10 0 -10 10v610q0 10 10 10h225q86 0 136 -50.5t50 -135.5v-10q0 -19 -7.5 -39t-19 -38.5t-26 -33.5t-28.5 -25q-4 -3 -4 -8q0 -3 5 -16l86 -250q2 -5 3.5 -9.5t1.5 -6.5q0 -8 -10 -8h-103q-7 0 -9 7l-88 254q-2 6 -8 6h-89q-10 0 -10 -10v-247q0 -10 -10 -10h-95
zM302 372q29 0 50.5 21.5t21.5 50.5v9q0 29 -21.5 50.5t-50.5 21.5h-110q-10 0 -10 -10v-133q0 -10 10 -10h110zM193 695q-10 0 -10 8q0 3 2 6t4 7l90 138q5 8 14 8h122q11 0 11 -8q0 -5 -7 -12l-142 -140q-9 -7 -16 -7h-68z" />
    <glyph glyph-name="racute" unicode="&#x155;" horiz-adv-x="304" 
d="M68 0q-10 0 -10 10v438q0 10 10 10h85q5 0 7.5 -1.5t2.5 -7.5v-14q0 -10 8 -10q4 0 7 3q8 8 30 19t46 11q16 0 28 -3q8 -2 8 -10v-101q0 -11 -10 -11q-5 0 -12.5 4.5t-23.5 4.5q-31 0 -51.5 -20t-20.5 -50v-262q0 -10 -10 -10h-94zM104 523q-10 0 -10 8q0 3 2 6t4 7
l90 138q5 8 14 8h122q11 0 11 -8q0 -5 -7 -12l-142 -140q-9 -7 -16 -7h-68z" />
    <glyph glyph-name="Rcommaaccent" unicode="&#x156;" 
d="M77 0q-10 0 -10 10v610q0 10 10 10h225q86 0 136 -50.5t50 -135.5v-10q0 -19 -7.5 -39t-19 -38.5t-26 -33.5t-28.5 -25q-4 -3 -4 -8q0 -3 5 -16l86 -250q2 -5 3.5 -9.5t1.5 -6.5q0 -8 -10 -8h-103q-7 0 -9 7l-88 254q-2 6 -8 6h-89q-10 0 -10 -10v-247q0 -10 -10 -10h-95
zM302 372q29 0 50.5 21.5t21.5 50.5v9q0 29 -21.5 50.5t-50.5 21.5h-110q-10 0 -10 -10v-133q0 -10 10 -10h110zM194 -201q-2 2 -2 7t3 8l8 9q14 18 21 43t7 55v21q0 9 9 9h83q9 0 9 -9v-22q0 -54 -22 -99t-73 -71q-2 -1 -6 -1q-6 0 -9 4z" />
    <glyph glyph-name="rcommaaccent" unicode="&#x157;" horiz-adv-x="304" 
d="M68 0q-10 0 -10 10v438q0 10 10 10h85q5 0 7.5 -1.5t2.5 -7.5v-14q0 -10 8 -10q4 0 7 3q8 8 30 19t46 11q16 0 28 -3q8 -2 8 -10v-101q0 -11 -10 -11q-5 0 -12.5 4.5t-23.5 4.5q-31 0 -51.5 -20t-20.5 -50v-262q0 -10 -10 -10h-94zM36 -201q-2 2 -2 7t3 8l8 9
q14 18 21 43t7 55v21q0 9 9 9h83q9 0 9 -9v-22q0 -54 -22 -99t-73 -71q-2 -1 -6 -1q-6 0 -9 4z" />
    <glyph glyph-name="Rcaron" unicode="&#x158;" 
d="M77 0q-10 0 -10 10v610q0 10 10 10h225q86 0 136 -50.5t50 -135.5v-10q0 -19 -7.5 -39t-19 -38.5t-26 -33.5t-28.5 -25q-4 -3 -4 -8q0 -3 5 -16l86 -250q2 -5 3.5 -9.5t1.5 -6.5q0 -8 -10 -8h-103q-7 0 -9 7l-88 254q-2 6 -8 6h-89q-10 0 -10 -10v-247q0 -10 -10 -10h-95
zM302 372q29 0 50.5 21.5t21.5 50.5v9q0 29 -21.5 50.5t-50.5 21.5h-110q-10 0 -10 -10v-133q0 -10 10 -10h110zM243 692q-4 0 -8 4l-97 137q-5 7 -7.5 11t-2.5 7q0 8 11 8h81q5 0 8 -5l32 -51q3 -6 7 -6q5 0 8 6l33 51q3 5 8 5h81q11 0 11 -8q0 -3 -3 -8t-7 -10l-98 -137
q-4 -4 -8 -4h-49z" />
    <glyph glyph-name="rcaron" unicode="&#x159;" horiz-adv-x="304" 
d="M68 0q-10 0 -10 10v438q0 10 10 10h85q5 0 7.5 -1.5t2.5 -7.5v-14q0 -10 8 -10q4 0 7 3q8 8 30 19t46 11q16 0 28 -3q8 -2 8 -10v-101q0 -11 -10 -11q-5 0 -12.5 4.5t-23.5 4.5q-31 0 -51.5 -20t-20.5 -50v-262q0 -10 -10 -10h-94zM148 523q-4 0 -8 4l-97 137
q-5 7 -7.5 11t-2.5 7q0 8 11 8h81q5 0 8 -5l32 -51q3 -6 7 -6q5 0 8 6l33 51q3 5 8 5h81q11 0 11 -8q0 -3 -3 -8t-7 -10l-98 -137q-4 -4 -8 -4h-49z" />
    <glyph glyph-name="Sacute" unicode="&#x15a;" horiz-adv-x="472" 
d="M211 -10q-63 0 -99 23t-59 58q-7 11 -13 21.5t-6 15.5q0 4 6 7l80 41q3 2 6 3.5t6 1.5q5 0 8 -7q14 -32 32.5 -45.5t38.5 -13.5h40q29 0 50.5 21.5t21.5 50.5q0 20 -9 34.5t-24 26t-34.5 20.5t-39.5 18q-30 14 -59.5 30t-53 38.5t-38.5 53.5t-15 75q0 39 13 71.5t37 56
t58.5 36.5t77.5 13h16q63 0 99 -23t59 -58q7 -11 13 -21.5t6 -15.5q0 -4 -6 -7l-80 -41q-3 -2 -6 -3.5t-6 -1.5q-5 0 -8 7q-14 32 -32.5 45.5t-38.5 13.5h-16q-29 0 -50.5 -21.5t-21.5 -50.5q0 -19 10 -32t26.5 -23.5t37 -19t42.5 -18.5q28 -13 56.5 -29.5t50.5 -40t36 -56
t14 -77.5q0 -39 -13 -71.5t-37 -56t-58.5 -36.5t-77.5 -13h-40zM166 695q-10 0 -10 8q0 3 2 6t4 7l90 138q5 8 14 8h122q11 0 11 -8q0 -5 -7 -12l-142 -140q-9 -7 -16 -7h-68z" />
    <glyph glyph-name="sacute" unicode="&#x15b;" horiz-adv-x="451" 
d="M205 -10q-62 0 -98 23t-57 56q-8 12 -13 23t-5 15q0 5 6 8l72 35q5 2 9 4t6 2q5 0 8 -7q11 -29 30.5 -43t41.5 -14h29q29 0 43.5 13t14.5 30q0 14 -9.5 21.5t-25 11.5t-35 6.5t-40.5 6.5q-27 5 -53 13.5t-46.5 23t-33 37.5t-12.5 58q0 37 13.5 65.5t36.5 48.5t53.5 30.5
t64.5 10.5h29q60 0 96 -21t57 -53q8 -11 14.5 -24.5t6.5 -17.5q0 -5 -6 -8l-76 -37q-3 -2 -5.5 -3t-5.5 -1q-5 0 -8 6q-11 29 -31 43t-42 14h-29q-55 0 -55 -38q0 -14 9.5 -21.5t25 -12t35 -7.5t39.5 -7q27 -6 53.5 -14t47 -23t33.5 -37.5t13 -56.5q0 -32 -11 -61
t-32.5 -50.5t-54 -34.5t-74.5 -13h-29zM157 523q-10 0 -10 8q0 3 2 6t4 7l90 138q5 8 14 8h122q11 0 11 -8q0 -5 -7 -12l-142 -140q-9 -7 -16 -7h-68z" />
    <glyph glyph-name="Scircumflex" unicode="&#x15c;" horiz-adv-x="472" 
d="M211 -10q-63 0 -99 23t-59 58q-7 11 -13 21.5t-6 15.5q0 4 6 7l80 41q3 2 6 3.5t6 1.5q5 0 8 -7q14 -32 32.5 -45.5t38.5 -13.5h40q29 0 50.5 21.5t21.5 50.5q0 20 -9 34.5t-24 26t-34.5 20.5t-39.5 18q-30 14 -59.5 30t-53 38.5t-38.5 53.5t-15 75q0 39 13 71.5t37 56
t58.5 36.5t77.5 13h16q63 0 99 -23t59 -58q7 -11 13 -21.5t6 -15.5q0 -4 -6 -7l-80 -41q-3 -2 -6 -3.5t-6 -1.5q-5 0 -8 7q-14 32 -32.5 45.5t-38.5 13.5h-16q-29 0 -50.5 -21.5t-21.5 -50.5q0 -19 10 -32t26.5 -23.5t37 -19t42.5 -18.5q28 -13 56.5 -29.5t50.5 -40t36 -56
t14 -77.5q0 -39 -13 -71.5t-37 -56t-58.5 -36.5t-77.5 -13h-40zM122 692q-11 0 -11 8q0 3 3 8l104 147q4 4 8 4h49q4 0 8 -4l105 -147q3 -5 3 -8q0 -8 -11 -8h-81q-5 0 -8 5l-33 51q-3 6 -8 6q-4 0 -7 -6l-32 -51q-3 -5 -8 -5h-81z" />
    <glyph glyph-name="scircumflex" unicode="&#x15d;" horiz-adv-x="451" 
d="M205 -10q-62 0 -98 23t-57 56q-8 12 -13 23t-5 15q0 5 6 8l72 35q5 2 9 4t6 2q5 0 8 -7q11 -29 30.5 -43t41.5 -14h29q29 0 43.5 13t14.5 30q0 14 -9.5 21.5t-25 11.5t-35 6.5t-40.5 6.5q-27 5 -53 13.5t-46.5 23t-33 37.5t-12.5 58q0 37 13.5 65.5t36.5 48.5t53.5 30.5
t64.5 10.5h29q60 0 96 -21t57 -53q8 -11 14.5 -24.5t6.5 -17.5q0 -5 -6 -8l-76 -37q-3 -2 -5.5 -3t-5.5 -1q-5 0 -8 6q-11 29 -31 43t-42 14h-29q-55 0 -55 -38q0 -14 9.5 -21.5t25 -12t35 -7.5t39.5 -7q27 -6 53.5 -14t47 -23t33.5 -37.5t13 -56.5q0 -32 -11 -61
t-32.5 -50.5t-54 -34.5t-74.5 -13h-29zM97 523q-11 0 -11 8q0 3 3 8l104 147q4 4 8 4h49q4 0 8 -4l105 -147q3 -5 3 -8q0 -8 -11 -8h-81q-5 0 -8 5l-33 51q-3 6 -8 6q-4 0 -7 -6l-32 -51q-3 -5 -8 -5h-81z" />
    <glyph glyph-name="Scedilla" unicode="&#x15e;" horiz-adv-x="472" 
d="M156 -215q-10 0 -10 10v66q0 10 10 10h59q7 0 12.5 5t5.5 12v8q0 7 -5.5 12.5t-12.5 5.5h-40q-10 0 -10 8q0 4 8 20l23 49q-56 3 -89 25t-54 55q-7 11 -13 21.5t-6 15.5q0 4 6 7l80 41q3 2 6 3.5t6 1.5q5 0 8 -7q14 -32 32.5 -45.5t38.5 -13.5h40q29 0 50.5 21.5
t21.5 50.5q0 30 -20 49t-50.5 34.5t-66 31t-66 39t-50.5 57t-20 85.5q0 39 13 71.5t37 56t58.5 36.5t77.5 13h16q63 0 99 -23t59 -58q7 -11 13 -21.5t6 -15.5q0 -4 -6 -7l-80 -41q-3 -2 -6 -3.5t-6 -1.5q-5 0 -8 7q-14 32 -32.5 45.5t-38.5 13.5h-16q-29 0 -50.5 -21.5
t-21.5 -50.5q0 -26 20 -43t50.5 -31t66 -30t66 -40t50.5 -60.5t20 -91.5q0 -70 -40 -117t-110 -57l-2 -5q-2 -4 -3.5 -7.5t-1.5 -5.5q0 -4 4 -7q20 -11 31 -29.5t11 -42.5v-8q0 -47 -32 -75t-79 -28h-59z" />
    <glyph glyph-name="scedilla" unicode="&#x15f;" horiz-adv-x="451" 
d="M145 -215q-10 0 -10 10v66q0 10 10 10h59q7 0 12.5 5t5.5 12v8q0 7 -5.5 12.5t-12.5 5.5h-40q-10 0 -10 8q0 4 8 20l23 49q-53 4 -84.5 25.5t-50.5 52.5q-8 12 -13 23t-5 15q0 5 6 8l72 35q5 2 9 4t6 2q5 0 8 -7q11 -29 30.5 -43t41.5 -14h29q29 0 43.5 13t14.5 30
q0 18 -19 26t-47 13.5t-61.5 11.5t-61.5 19.5t-47 38.5t-19 69q0 37 13.5 65.5t36.5 48.5t53.5 30.5t64.5 10.5h29q60 0 96 -21t57 -53q8 -11 14.5 -24.5t6.5 -17.5q0 -5 -6 -8l-76 -37q-3 -2 -5.5 -3t-5.5 -1q-5 0 -8 6q-11 29 -31 43t-42 14h-29q-55 0 -55 -38
q0 -18 19 -26.5t47.5 -14.5t61.5 -12.5t61.5 -20t47.5 -38.5t19 -67q0 -56 -32.5 -99.5t-96.5 -55.5l-3 -6q-2 -4 -3.5 -7.5t-1.5 -5.5q0 -4 4 -7q20 -11 31 -29.5t11 -42.5v-8q0 -47 -32 -75t-79 -28h-59z" />
    <glyph glyph-name="Scaron" unicode="&#x160;" horiz-adv-x="472" 
d="M211 -10q-63 0 -99 23t-59 58q-7 11 -13 21.5t-6 15.5q0 4 6 7l80 41q3 2 6 3.5t6 1.5q5 0 8 -7q14 -32 32.5 -45.5t38.5 -13.5h40q29 0 50.5 21.5t21.5 50.5q0 20 -9 34.5t-24 26t-34.5 20.5t-39.5 18q-30 14 -59.5 30t-53 38.5t-38.5 53.5t-15 75q0 39 13 71.5t37 56
t58.5 36.5t77.5 13h16q63 0 99 -23t59 -58q7 -11 13 -21.5t6 -15.5q0 -4 -6 -7l-80 -41q-3 -2 -6 -3.5t-6 -1.5q-5 0 -8 7q-14 32 -32.5 45.5t-38.5 13.5h-16q-29 0 -50.5 -21.5t-21.5 -50.5q0 -19 10 -32t26.5 -23.5t37 -19t42.5 -18.5q28 -13 56.5 -29.5t50.5 -40t36 -56
t14 -77.5q0 -39 -13 -71.5t-37 -56t-58.5 -36.5t-77.5 -13h-40zM226 692q-4 0 -8 4l-97 137q-5 7 -7.5 11t-2.5 7q0 8 11 8h81q5 0 8 -5l32 -51q3 -6 7 -6q5 0 8 6l33 51q3 5 8 5h81q11 0 11 -8q0 -3 -3 -8t-7 -10l-98 -137q-4 -4 -8 -4h-49z" />
    <glyph glyph-name="scaron" unicode="&#x161;" horiz-adv-x="451" 
d="M205 -10q-62 0 -98 23t-57 56q-8 12 -13 23t-5 15q0 5 6 8l72 35q5 2 9 4t6 2q5 0 8 -7q11 -29 30.5 -43t41.5 -14h29q29 0 43.5 13t14.5 30q0 14 -9.5 21.5t-25 11.5t-35 6.5t-40.5 6.5q-27 5 -53 13.5t-46.5 23t-33 37.5t-12.5 58q0 37 13.5 65.5t36.5 48.5t53.5 30.5
t64.5 10.5h29q60 0 96 -21t57 -53q8 -11 14.5 -24.5t6.5 -17.5q0 -5 -6 -8l-76 -37q-3 -2 -5.5 -3t-5.5 -1q-5 0 -8 6q-11 29 -31 43t-42 14h-29q-55 0 -55 -38q0 -14 9.5 -21.5t25 -12t35 -7.5t39.5 -7q27 -6 53.5 -14t47 -23t33.5 -37.5t13 -56.5q0 -32 -11 -61
t-32.5 -50.5t-54 -34.5t-74.5 -13h-29zM201 523q-4 0 -8 4l-97 137q-5 7 -7.5 11t-2.5 7q0 8 11 8h81q5 0 8 -5l32 -51q3 -6 7 -6q5 0 8 6l33 51q3 5 8 5h81q11 0 11 -8q0 -3 -3 -8t-7 -10l-98 -137q-4 -4 -8 -4h-49z" />
    <glyph glyph-name="Tcommaaccent" unicode="&#x162;" horiz-adv-x="402" 
d="M154 0q-10 0 -10 10v505q0 10 -10 10h-109q-10 0 -10 10v85q0 10 10 10h352q10 0 10 -10v-85q0 -10 -10 -10h-109q-10 0 -10 -10v-505q0 -10 -10 -10h-94zM122 -201q-2 2 -2 7t3 8l8 9q14 18 21 43t7 55v21q0 9 9 9h83q9 0 9 -9v-22q0 -54 -22 -99t-73 -71q-2 -1 -6 -1
q-6 0 -9 4z" />
    <glyph glyph-name="tcommaaccent" unicode="&#x163;" horiz-adv-x="321" 
d="M277 0q0 -10 -10 -10q-14 0 -38 4.5t-47 13.5q-52 21 -78.5 62.5t-26.5 96.5v176q0 10 -10 10h-52q-10 0 -10 9q0 5 0.5 19.5t1.5 34.5l115 122q6 6 12 6h47q10 0 10 -10v-66q0 -10 10 -10h66q10 0 10 -10v-85q0 -10 -10 -10h-66q-10 0 -10 -10v-176q0 -27 19 -47.5
t58 -23.5q9 0 9 -10v-86zM81 -201q-2 2 -2 7t3 8l8 9q14 18 21 43t7 55v21q0 9 9 9h83q9 0 9 -9v-22q0 -54 -22 -99t-73 -71q-2 -1 -6 -1q-6 0 -9 4z" />
    <glyph glyph-name="Tcaron" unicode="&#x164;" horiz-adv-x="402" 
d="M154 0q-10 0 -10 10v505q0 10 -10 10h-109q-10 0 -10 10v85q0 10 10 10h352q10 0 10 -10v-85q0 -10 -10 -10h-109q-10 0 -10 -10v-505q0 -10 -10 -10h-94zM192 692q-4 0 -8 4l-97 137q-5 7 -7.5 11t-2.5 7q0 8 11 8h81q5 0 8 -5l32 -51q3 -6 7 -6q5 0 8 6l33 51q3 5 8 5
h81q11 0 11 -8q0 -3 -3 -8t-7 -10l-98 -137q-4 -4 -8 -4h-49z" />
    <glyph glyph-name="tcaron" unicode="&#x165;" horiz-adv-x="321" 
d="M277 0q0 -10 -10 -10q-14 0 -38 4.5t-47 13.5q-52 21 -78.5 62.5t-26.5 96.5v176q0 10 -10 10h-52q-10 0 -10 9q0 5 0.5 19.5t1.5 34.5l115 122q6 6 12 6h47q10 0 10 -10v-66q0 -10 10 -10h66q10 0 10 -10v-85q0 -10 -10 -10h-66q-10 0 -10 -10v-176q0 -27 19 -47.5
t58 -23.5q9 0 9 -10v-86zM222 540q-2 4 -2 7q0 5 3 8l7 9q11 18 16.5 46t5.5 58v21q0 9 7 9h67q7 0 7 -9v-22q0 -54 -17.5 -96t-58.5 -68q-2 -1 -5 -1q-6 0 -7 4z" />
    <glyph glyph-name="Tbar" unicode="&#x166;" horiz-adv-x="402" 
d="M154 0q-10 0 -10 10v284q-2 8 -11 8h-54q-10 0 -10 10v85q0 10 10 10h54q9 0 11 9v99q0 10 -10 10h-109q-10 0 -10 10v85q0 10 10 10h352q10 0 10 -10v-85q0 -10 -10 -10h-109q-10 0 -10 -10v-100q2 -8 11 -8h54q10 0 10 -10v-85q0 -10 -10 -10h-54q-11 0 -11 -11v-281
q0 -10 -10 -10h-94z" />
    <glyph glyph-name="tbar" unicode="&#x167;" horiz-adv-x="321" 
d="M277 0q0 -10 -10 -10q-14 0 -38 4.5t-47 13.5q-52 21 -78.5 62.5t-26.5 96.5v42q0 10 -10 10h-42q-10 0 -10 10v49q0 9 10 9h42q10 0 10 12v44q0 10 -10 10h-52q-10 0 -10 9q0 5 0.5 19.5t1.5 34.5l115 122q6 6 12 6h47q10 0 10 -10v-66q0 -10 10 -10h66q10 0 10 -10v-85
q0 -10 -10 -10h-66q-10 0 -10 -10v-49q1 -7 11 -7h44q9 0 9 -9v-49q0 -10 -9 -10h-44q-9 0 -11 -7v-45q0 -27 19 -47.5t58 -23.5q9 0 9 -10v-86z" />
    <glyph glyph-name="Utilde" unicode="&#x168;" 
d="M239 -10q-43 0 -77.5 13t-58.5 36.5t-37 56t-13 71.5v453q0 10 10 10h94q10 0 10 -10v-453q0 -29 21.5 -50.5t50.5 -21.5h49q30 0 50.5 21t20.5 51v453q0 10 10 10h95q10 0 10 -10v-453q0 -39 -13 -71.5t-37.5 -56t-59 -36.5t-76.5 -13h-49zM122 749q-4 3 -4 8q0 6 14 28
q20 32 41.5 45t45.5 13q17 0 33.5 -6.5t34.5 -19.5l17 -12q6 -5 14 -8t14 -3q10 0 20 6.5t23 27.5q3 6 8 6q3 0 5.5 -2t5.5 -4l36 -29q4 -3 4 -8q0 -3 -5 -12t-13 -22q-38 -55 -84 -55q-17 0 -33 8.5t-36 20.5l-18 11q-6 4 -13 7t-13 3q-10 0 -19.5 -6.5t-21.5 -24.5
q-3 -6 -8 -6q-3 0 -14 9z" />
    <glyph glyph-name="utilde" unicode="&#x169;" horiz-adv-x="478" 
d="M325 0q-10 0 -10 9q0 11 -8 11q-2 0 -3.5 -0.5t-3.5 -1.5q-16 -8 -33.5 -13t-32.5 -5q-42 0 -76.5 13t-59 36.5t-37.5 56t-13 71.5v271q0 10 10 10h95q10 0 10 -10v-271q0 -31 20.5 -51.5t50.5 -20.5q29 0 50.5 20.5t21.5 51.5v271q0 10 10 10h94q10 0 10 -10v-438
q0 -10 -10 -10h-85zM86 576q-4 3 -4 8q0 6 14 28q20 32 41.5 45t45.5 13q17 0 33.5 -6.5t34.5 -19.5l17 -12q6 -5 14 -8t14 -3q10 0 20 6.5t23 27.5q3 6 8 6q3 0 5.5 -2t5.5 -4l36 -29q4 -3 4 -8q0 -3 -5 -12t-13 -22q-38 -55 -84 -55q-17 0 -33 8.5t-36 20.5l-18 11
q-6 4 -13 7t-13 3q-10 0 -19.5 -6.5t-21.5 -24.5q-3 -6 -8 -6q-3 0 -14 9z" />
    <glyph glyph-name="Umacron" unicode="&#x16a;" 
d="M239 -10q-43 0 -77.5 13t-58.5 36.5t-37 56t-13 71.5v453q0 10 10 10h94q10 0 10 -10v-453q0 -29 21.5 -50.5t50.5 -21.5h49q30 0 50.5 21t20.5 51v453q0 10 10 10h95q10 0 10 -10v-453q0 -39 -13 -71.5t-37.5 -56t-59 -36.5t-76.5 -13h-49zM149 705q-10 0 -10 10v85
q0 10 10 10h228q10 0 10 -10v-85q0 -10 -10 -10h-228z" />
    <glyph glyph-name="umacron" unicode="&#x16b;" horiz-adv-x="478" 
d="M325 0q-10 0 -10 9q0 11 -8 11q-2 0 -3.5 -0.5t-3.5 -1.5q-16 -8 -33.5 -13t-32.5 -5q-42 0 -76.5 13t-59 36.5t-37.5 56t-13 71.5v271q0 10 10 10h95q10 0 10 -10v-271q0 -31 20.5 -51.5t50.5 -20.5q29 0 50.5 20.5t21.5 51.5v271q0 10 10 10h94q10 0 10 -10v-438
q0 -10 -10 -10h-85zM126 539q-10 0 -10 10v85q0 10 10 10h228q10 0 10 -10v-85q0 -10 -10 -10h-228z" />
    <glyph glyph-name="Ubreve" unicode="&#x16c;" 
d="M239 -10q-43 0 -77.5 13t-58.5 36.5t-37 56t-13 71.5v453q0 10 10 10h94q10 0 10 -10v-453q0 -29 21.5 -50.5t50.5 -21.5h49q30 0 50.5 21t20.5 51v453q0 10 10 10h95q10 0 10 -10v-453q0 -39 -13 -71.5t-37.5 -56t-59 -36.5t-76.5 -13h-49zM256 692q-46 0 -73 26.5
t-27 68.5v62q0 10 10 10h51q10 0 10 -10v-43q0 -11 9 -19.5t20 -8.5h43q12 0 20 8t8 20v43q0 10 10 10h52q10 0 10 -10v-62q0 -42 -27 -68.5t-73 -26.5h-43z" />
    <glyph glyph-name="ubreve" unicode="&#x16d;" horiz-adv-x="478" 
d="M325 0q-10 0 -10 9q0 11 -8 11q-2 0 -3.5 -0.5t-3.5 -1.5q-16 -8 -33.5 -13t-32.5 -5q-42 0 -76.5 13t-59 36.5t-37.5 56t-13 71.5v271q0 10 10 10h95q10 0 10 -10v-271q0 -31 20.5 -51.5t50.5 -20.5q29 0 50.5 20.5t21.5 51.5v271q0 10 10 10h94q10 0 10 -10v-438
q0 -10 -10 -10h-85zM218 523q-46 0 -73 26.5t-27 68.5v62q0 10 10 10h51q10 0 10 -10v-43q0 -11 9 -19.5t20 -8.5h43q12 0 20 8t8 20v43q0 10 10 10h52q10 0 10 -10v-62q0 -42 -27 -68.5t-73 -26.5h-43z" />
    <glyph glyph-name="Uring" unicode="&#x16e;" 
d="M239 -10q-43 0 -77.5 13t-58.5 36.5t-37 56t-13 71.5v453q0 10 10 10h94q10 0 10 -10v-453q0 -29 21.5 -50.5t50.5 -21.5h49q30 0 50.5 21t20.5 51v453q0 10 10 10h95q10 0 10 -10v-453q0 -39 -13 -71.5t-37.5 -56t-59 -36.5t-76.5 -13h-49zM163 797q0 42 27 68.5
t73 26.5t73 -26.5t27 -68.5v-29q0 -42 -27 -68.5t-73 -26.5t-73 26.5t-27 68.5v29zM292 797q0 11 -9 20t-20 9t-20 -9t-9 -20v-29q0 -11 9 -19.5t20 -8.5t20 8.5t9 19.5v29z" />
    <glyph glyph-name="uring" unicode="&#x16f;" horiz-adv-x="478" 
d="M325 0q-10 0 -10 9q0 11 -8 11q-2 0 -3.5 -0.5t-3.5 -1.5q-16 -8 -33.5 -13t-32.5 -5q-42 0 -76.5 13t-59 36.5t-37.5 56t-13 71.5v271q0 10 10 10h95q10 0 10 -10v-271q0 -31 20.5 -51.5t50.5 -20.5q29 0 50.5 20.5t21.5 51.5v271q0 10 10 10h94q10 0 10 -10v-438
q0 -10 -10 -10h-85zM140 634q0 42 27 68.5t73 26.5t73 -26.5t27 -68.5v-29q0 -42 -27 -68.5t-73 -26.5t-73 26.5t-27 68.5v29zM269 634q0 11 -9 20t-20 9t-20 -9t-9 -20v-29q0 -11 9 -19.5t20 -8.5t20 8.5t9 19.5v29z" />
    <glyph glyph-name="Uhungarumlaut" unicode="&#x170;" 
d="M239 -10q-43 0 -77.5 13t-58.5 36.5t-37 56t-13 71.5v453q0 10 10 10h94q10 0 10 -10v-453q0 -29 21.5 -50.5t50.5 -21.5h49q30 0 50.5 21t20.5 51v453q0 10 10 10h95q10 0 10 -10v-453q0 -39 -13 -71.5t-37.5 -56t-59 -36.5t-76.5 -13h-49zM290 695q-10 0 -10 8
q0 2 1.5 8t6.5 18l43 126q2 7 9 7h83q11 0 11 -8q0 -3 -2.5 -8.5t-6.5 -10.5l-86 -135q-3 -5 -9 -5h-40zM164 695q-10 0 -10 8q0 2 1.5 8t6.5 18l43 126q2 7 9 7h83q11 0 11 -8q0 -3 -3 -8.5t-6 -10.5l-78 -135q-3 -5 -9 -5h-48z" />
    <glyph glyph-name="uhungarumlaut" unicode="&#x171;" horiz-adv-x="478" 
d="M325 0q-10 0 -10 9q0 11 -8 11q-2 0 -3.5 -0.5t-3.5 -1.5q-16 -8 -33.5 -13t-32.5 -5q-42 0 -76.5 13t-59 36.5t-37.5 56t-13 71.5v271q0 10 10 10h95q10 0 10 -10v-271q0 -31 20.5 -51.5t50.5 -20.5q29 0 50.5 20.5t21.5 51.5v271q0 10 10 10h94q10 0 10 -10v-438
q0 -10 -10 -10h-85zM267 523q-10 0 -10 8q0 2 1.5 8t6.5 18l43 126q2 7 9 7h83q11 0 11 -8q0 -3 -2.5 -8.5t-6.5 -10.5l-86 -135q-3 -5 -9 -5h-40zM141 523q-10 0 -10 8q0 2 1.5 8t6.5 18l43 126q2 7 9 7h83q11 0 11 -8q0 -3 -3 -8.5t-6 -10.5l-78 -135q-3 -5 -9 -5h-48z
" />
    <glyph glyph-name="Uogonek" unicode="&#x172;" 
d="M395 -204q0 -10 -9 -10q-31 0 -58 12t-47 32t-31.5 45.5t-11.5 52.5v62q-43 0 -77 13.5t-58 36.5t-37 55.5t-13 71.5v453q0 10 10 10h94q10 0 10 -10v-453q0 -29 21.5 -50.5t50.5 -21.5h49q30 0 50.5 21t20.5 51v453q0 10 10 10h95q10 0 10 -10v-453q0 -68 -38.5 -114.5
t-104.5 -58.5v-72q0 -18 13 -32t42 -18q9 -2 9 -10v-66z" />
    <glyph glyph-name="uogonek" unicode="&#x173;" horiz-adv-x="478" 
d="M472 -204q0 -10 -9 -10q-31 0 -58 12t-47 32t-31.5 45.5t-11.5 52.5v81q0 11 -8 11q-2 0 -3.5 -0.5t-3.5 -1.5q-16 -8 -33.5 -13t-32.5 -5q-42 0 -76.5 13t-59 36.5t-37.5 56t-13 71.5v271q0 10 10 10h95q10 0 10 -10v-271q0 -31 20.5 -51.5t50.5 -20.5q29 0 50.5 20.5
t21.5 51.5v271q0 10 10 10h94q10 0 10 -10v-438q0 -10 -10 -10h-2v-78q0 -18 13 -32t42 -18q9 -2 9 -10v-66z" />
    <glyph glyph-name="Wcircumflex" unicode="&#x174;" horiz-adv-x="657" 
d="M145 0q-8 0 -10 8l-127 587q-2 8 -3.5 15.5t-1.5 11.5q0 8 10 8h102q8 0 10 -8l58 -309q0 -3 1.5 -11.5t3 -19t3 -19.5t2.5 -12h5l13 62l82 312q1 7 10 7h50q9 0 10 -7l82 -312l13 -62h5q1 3 2 12t2.5 19t3 19t2.5 12l59 309q2 8 10 8h102q10 0 10 -8q0 -3 -1.5 -11
t-3.5 -16l-127 -587q-2 -8 -10 -8h-73q-9 0 -10 7l-87 302l-12 55h-3l-12 -55l-87 -302q-1 -7 -10 -7h-73zM214 692q-11 0 -11 8q0 3 3 8l104 147q4 4 8 4h49q4 0 8 -4l105 -147q3 -5 3 -8q0 -8 -11 -8h-81q-5 0 -8 5l-33 51q-3 6 -8 6q-4 0 -7 -6l-32 -51q-3 -5 -8 -5h-81z
" />
    <glyph glyph-name="wcircumflex" unicode="&#x175;" horiz-adv-x="599" 
d="M146 0q-9 0 -10 7l-127 418q-3 9 -5 15.5t-2 9.5q0 8 11 8h98q9 0 10 -7l49 -190q3 -11 5.5 -30t4.5 -32h4q3 15 6.5 31t7.5 30l51 191q1 7 10 7h84q9 0 10 -7l50 -191q5 -16 8.5 -33t5.5 -29h4q2 13 4 29.5t7 33.5l48 190q1 7 10 7h97q11 0 11 -8q0 -3 -2.5 -10.5
t-4.5 -14.5l-128 -418q-1 -7 -10 -7h-69q-9 0 -10 7l-60 211q-4 14 -7 28t-5 26h-4q-2 -12 -6 -27.5t-7 -26.5l-59 -211q-1 -7 -10 -7h-70zM170 523q-11 0 -11 8q0 3 3 8l104 147q4 4 8 4h49q4 0 8 -4l105 -147q3 -5 3 -8q0 -8 -11 -8h-81q-5 0 -8 5l-33 51q-3 6 -8 6
q-4 0 -7 -6l-32 -51q-3 -5 -8 -5h-81z" />
    <glyph glyph-name="Ycircumflex" unicode="&#x176;" horiz-adv-x="450" 
d="M177 0q-10 0 -10 10v264q0 8 -1 13t-6 14l-163 305q-7 12 -7 16q0 8 11 8h111q5 0 9 -6l95 -196q3 -8 9 -8t9 8l95 196q4 6 9 6h110q11 0 11 -8q0 -3 -2.5 -7t-4.5 -9l-163 -305q-4 -8 -5.5 -13.5t-1.5 -14.5v-263q0 -10 -10 -10h-95zM112 692q-11 0 -11 8q0 3 3 8
l104 147q4 4 8 4h49q4 0 8 -4l105 -147q3 -5 3 -8q0 -8 -11 -8h-81q-5 0 -8 5l-33 51q-3 6 -8 6q-4 0 -7 -6l-32 -51q-3 -5 -8 -5h-81z" />
    <glyph glyph-name="ycircumflex" unicode="&#x177;" horiz-adv-x="478" 
d="M144 -70q7 4 11 4q5 0 8 -6q13 -32 32 -45t39 -13q29 0 50.5 21.5t21.5 50.5v62q0 11 -7 11q-3 0 -7 -2q-27 -13 -58 -13q-42 0 -76.5 13t-59 36.5t-37.5 56t-13 71.5v271q0 10 10 10h95q10 0 10 -10v-271q0 -31 20.5 -51.5t50.5 -20.5q29 0 50.5 20.5t21.5 51.5v271
q0 10 10 10h94q10 0 10 -10v-497q0 -40 -12 -74t-35 -59t-58 -39t-81 -14q-59 0 -94.5 20.5t-58.5 52.5q-12 17 -17.5 28.5t-5.5 15.5q0 5 6 8zM111 523q-11 0 -11 8q0 3 3 8l104 147q4 4 8 4h49q4 0 8 -4l105 -147q3 -5 3 -8q0 -8 -11 -8h-81q-5 0 -8 5l-33 51q-3 6 -8 6
q-4 0 -7 -6l-32 -51q-3 -5 -8 -5h-81z" />
    <glyph glyph-name="Ydieresis" unicode="&#x178;" horiz-adv-x="450" 
d="M177 0q-10 0 -10 10v264q0 8 -1 13t-6 14l-163 305q-7 12 -7 16q0 8 11 8h111q5 0 9 -6l95 -196q3 -8 9 -8t9 8l95 196q4 6 9 6h110q11 0 11 -8q0 -3 -2.5 -7t-4.5 -9l-163 -305q-4 -8 -5.5 -13.5t-1.5 -14.5v-263q0 -10 -10 -10h-95zM384 763q0 -26 -18 -44t-44 -18
t-44 18t-18 44t18 44t44 18t44 -18t18 -44zM215 763q0 -26 -18 -44t-44 -18t-44 18t-18 44t18 44t44 18t44 -18t18 -44z" />
    <glyph glyph-name="Zacute" unicode="&#x179;" horiz-adv-x="456" 
d="M21 0q-10 0 -10 8q0 3 2 7.5t5 11.5l211 471q7 14 7 19q0 8 -10 8h-182q-10 0 -10 10v85q0 10 10 10h355q10 0 10 -8q0 -3 -2 -7t-5 -12l-213 -473q-6 -12 -6 -17q0 -8 10 -8h203q10 0 10 -10v-85q0 -10 -10 -10h-375zM158 695q-10 0 -10 8q0 3 2 6t4 7l90 138q5 8 14 8
h122q11 0 11 -8q0 -5 -7 -12l-142 -140q-9 -7 -16 -7h-68z" />
    <glyph glyph-name="zacute" unicode="&#x17a;" horiz-adv-x="430" 
d="M18 0q-11 0 -11 8q0 3 3 8t8 14l174 290q5 8 8.5 14.5t3.5 9.5q0 8 -11 8h-154q-10 0 -10 10v85q0 10 10 10h355q11 0 11 -8q0 -3 -3.5 -9.5t-8.5 -14.5l-175 -290q-11 -17 -11 -22q0 -8 11 -8h172q10 0 10 -10v-85q0 -10 -10 -10h-372zM167 523q-10 0 -10 8q0 3 2 6t4 7
l90 138q5 8 14 8h122q11 0 11 -8q0 -5 -7 -12l-142 -140q-9 -7 -16 -7h-68z" />
    <glyph glyph-name="Zdotaccent" unicode="&#x17b;" horiz-adv-x="456" 
d="M21 0q-10 0 -10 8q0 3 2 7.5t5 11.5l211 471q7 14 7 19q0 8 -10 8h-182q-10 0 -10 10v85q0 10 10 10h355q10 0 10 -8q0 -3 -2 -7t-5 -12l-213 -473q-6 -12 -6 -17q0 -8 10 -8h203q10 0 10 -10v-85q0 -10 -10 -10h-375zM297 763q0 -26 -18 -44t-44 -18t-44 18t-18 44
t18 44t44 18t44 -18t18 -44z" />
    <glyph glyph-name="zdotaccent" unicode="&#x17c;" horiz-adv-x="430" 
d="M18 0q-11 0 -11 8q0 3 3 8t8 14l174 290q5 8 8.5 14.5t3.5 9.5q0 8 -11 8h-154q-10 0 -10 10v85q0 10 10 10h355q11 0 11 -8q0 -3 -3.5 -9.5t-8.5 -14.5l-175 -290q-11 -17 -11 -22q0 -8 11 -8h172q10 0 10 -10v-85q0 -10 -10 -10h-372zM278 595q0 -26 -18 -44t-44 -18
t-44 18t-18 44t18 44t44 18t44 -18t18 -44z" />
    <glyph glyph-name="Zcaron" unicode="&#x17d;" horiz-adv-x="456" 
d="M21 0q-10 0 -10 8q0 3 2 7.5t5 11.5l211 471q7 14 7 19q0 8 -10 8h-182q-10 0 -10 10v85q0 10 10 10h355q10 0 10 -8q0 -3 -2 -7t-5 -12l-213 -473q-6 -12 -6 -17q0 -8 10 -8h203q10 0 10 -10v-85q0 -10 -10 -10h-375zM209 692q-4 0 -8 4l-97 137q-5 7 -7.5 11t-2.5 7
q0 8 11 8h81q5 0 8 -5l32 -51q3 -6 7 -6q5 0 8 6l33 51q3 5 8 5h81q11 0 11 -8q0 -3 -3 -8t-7 -10l-98 -137q-4 -4 -8 -4h-49z" />
    <glyph glyph-name="zcaron" unicode="&#x17e;" horiz-adv-x="430" 
d="M18 0q-11 0 -11 8q0 3 3 8t8 14l174 290q5 8 8.5 14.5t3.5 9.5q0 8 -11 8h-154q-10 0 -10 10v85q0 10 10 10h355q11 0 11 -8q0 -3 -3.5 -9.5t-8.5 -14.5l-175 -290q-11 -17 -11 -22q0 -8 11 -8h172q10 0 10 -10v-85q0 -10 -10 -10h-372zM191 523q-4 0 -8 4l-97 137
q-5 7 -7.5 11t-2.5 7q0 8 11 8h81q5 0 8 -5l32 -51q3 -6 7 -6q5 0 8 6l33 51q3 5 8 5h81q11 0 11 -8q0 -3 -3 -8t-7 -10l-98 -137q-4 -4 -8 -4h-49z" />
    <glyph glyph-name="florin" unicode="&#x192;" horiz-adv-x="507" 
d="M67 -131q2 8 8 8q3 0 11 -3.5t22 -3.5q31 0 51 20.5t20 51.5v315q0 10 -10 10h-23q-10 0 -10 10v85q0 10 10 10h23q10 0 10 10v71q0 38 14.5 72t40 59.5t59.5 40.5t72 15q16 0 33.5 -2t30.5 -5q8 -2 8 -8q0 -5 -4 -15l-27 -74q-2 -8 -8 -8q-3 0 -11 3.5t-22 3.5
q-31 0 -51.5 -20.5t-20.5 -51.5v-81q0 -10 10 -10h66q10 0 10 -10v-85q0 -10 -10 -10h-66q-10 0 -10 -10v-305q0 -38 -14.5 -72t-40 -59.5t-59.5 -40.5t-72 -15q-16 0 -33 2t-30 5q-8 2 -8 8q0 5 4 15z" />
    <glyph glyph-name="Scommaaccent" unicode="&#x218;" horiz-adv-x="472" 
d="M211 -10q-63 0 -99 23t-59 58q-7 11 -13 21.5t-6 15.5q0 4 6 7l80 41q3 2 6 3.5t6 1.5q5 0 8 -7q14 -32 32.5 -45.5t38.5 -13.5h40q29 0 50.5 21.5t21.5 50.5q0 20 -9 34.5t-24 26t-34.5 20.5t-39.5 18q-30 14 -59.5 30t-53 38.5t-38.5 53.5t-15 75q0 39 13 71.5t37 56
t58.5 36.5t77.5 13h16q63 0 99 -23t59 -58q7 -11 13 -21.5t6 -15.5q0 -4 -6 -7l-80 -41q-3 -2 -6 -3.5t-6 -1.5q-5 0 -8 7q-14 32 -32.5 45.5t-38.5 13.5h-16q-29 0 -50.5 -21.5t-21.5 -50.5q0 -19 10 -32t26.5 -23.5t37 -19t42.5 -18.5q28 -13 56.5 -29.5t50.5 -40t36 -56
t14 -77.5q0 -39 -13 -71.5t-37 -56t-58.5 -36.5t-77.5 -13h-40zM158 -201q-2 2 -2 7t3 8l8 9q14 18 21 43t7 55v21q0 9 9 9h83q9 0 9 -9v-22q0 -54 -22 -99t-73 -71q-2 -1 -6 -1q-6 0 -9 4z" />
    <glyph glyph-name="scommaaccent" unicode="&#x219;" horiz-adv-x="451" 
d="M205 -10q-62 0 -98 23t-57 56q-8 12 -13 23t-5 15q0 5 6 8l72 35q5 2 9 4t6 2q5 0 8 -7q11 -29 30.5 -43t41.5 -14h29q29 0 43.5 13t14.5 30q0 14 -9.5 21.5t-25 11.5t-35 6.5t-40.5 6.5q-27 5 -53 13.5t-46.5 23t-33 37.5t-12.5 58q0 37 13.5 65.5t36.5 48.5t53.5 30.5
t64.5 10.5h29q60 0 96 -21t57 -53q8 -11 14.5 -24.5t6.5 -17.5q0 -5 -6 -8l-76 -37q-3 -2 -5.5 -3t-5.5 -1q-5 0 -8 6q-11 29 -31 43t-42 14h-29q-55 0 -55 -38q0 -14 9.5 -21.5t25 -12t35 -7.5t39.5 -7q27 -6 53.5 -14t47 -23t33.5 -37.5t13 -56.5q0 -32 -11 -61
t-32.5 -50.5t-54 -34.5t-74.5 -13h-29zM147 -201q-2 2 -2 7t3 8l8 9q14 18 21 43t7 55v21q0 9 9 9h83q9 0 9 -9v-22q0 -54 -22 -99t-73 -71q-2 -1 -6 -1q-6 0 -9 4z" />
    <glyph glyph-name="uni021A" unicode="&#x21a;" horiz-adv-x="402" 
d="M154 0q-10 0 -10 10v505q0 10 -10 10h-109q-10 0 -10 10v85q0 10 10 10h352q10 0 10 -10v-85q0 -10 -10 -10h-109q-10 0 -10 -10v-505q0 -10 -10 -10h-94zM123 -201q-2 2 -2 7t3 8l8 9q14 18 21 43t7 55v21q0 9 9 9h83q9 0 9 -9v-22q0 -54 -22 -99t-73 -71q-2 -1 -6 -1
q-6 0 -9 4z" />
    <glyph glyph-name="uni021B" unicode="&#x21b;" horiz-adv-x="321" 
d="M277 0q0 -10 -10 -10q-14 0 -38 4.5t-47 13.5q-52 21 -78.5 62.5t-26.5 96.5v176q0 10 -10 10h-52q-10 0 -10 9q0 5 0.5 19.5t1.5 34.5l115 122q6 6 12 6h47q10 0 10 -10v-66q0 -10 10 -10h66q10 0 10 -10v-85q0 -10 -10 -10h-66q-10 0 -10 -10v-176q0 -27 19 -47.5
t58 -23.5q9 0 9 -10v-86zM82 -201q-2 2 -2 7t3 8l8 9q14 18 21 43t7 55v21q0 9 9 9h83q9 0 9 -9v-22q0 -54 -22 -99t-73 -71q-2 -1 -6 -1q-6 0 -9 4z" />
    <glyph glyph-name="circumflex" unicode="&#x2c6;" horiz-adv-x="500" 
d="M121 523q-11 0 -11 8q0 3 3 8l104 147q4 4 8 4h49q4 0 8 -4l105 -147q3 -5 3 -8q0 -8 -11 -8h-81q-5 0 -8 5l-33 51q-3 6 -8 6q-4 0 -7 -6l-32 -51q-3 -5 -8 -5h-81z" />
    <glyph glyph-name="caron" unicode="&#x2c7;" horiz-adv-x="500" 
d="M225 523q-4 0 -8 4l-97 137q-5 7 -7.5 11t-2.5 7q0 8 11 8h81q5 0 8 -5l32 -51q3 -6 7 -6q5 0 8 6l33 51q3 5 8 5h81q11 0 11 -8q0 -3 -3 -8t-7 -10l-98 -137q-4 -4 -8 -4h-49z" />
    <glyph glyph-name="uni02C9" unicode="&#x2c9;" horiz-adv-x="500" 
d="M138 545q-10 0 -10 10v85q0 10 10 10h228q10 0 10 -10v-85q0 -10 -10 -10h-228z" />
    <glyph glyph-name="breve" unicode="&#x2d8;" horiz-adv-x="500" 
d="M228 523q-46 0 -73 26.5t-27 68.5v62q0 10 10 10h51q10 0 10 -10v-43q0 -11 9 -19.5t20 -8.5h43q12 0 20 8t8 20v43q0 10 10 10h52q10 0 10 -10v-62q0 -42 -27 -68.5t-73 -26.5h-43z" />
    <glyph glyph-name="dotaccent" unicode="&#x2d9;" horiz-adv-x="500" 
d="M312 595q0 -26 -18 -44t-44 -18t-44 18t-18 44t18 44t44 18t44 -18t18 -44z" />
    <glyph glyph-name="ring" unicode="&#x2da;" horiz-adv-x="500" 
d="M150 634q0 42 27 68.5t73 26.5t73 -26.5t27 -68.5v-29q0 -42 -27 -68.5t-73 -26.5t-73 26.5t-27 68.5v29zM279 634q0 11 -9 20t-20 9t-20 -9t-9 -20v-29q0 -11 9 -19.5t20 -8.5t20 8.5t9 19.5v29z" />
    <glyph glyph-name="ogonek" unicode="&#x2db;" horiz-adv-x="500" 
d="M361 -204q0 -10 -9 -10q-11 0 -31.5 5t-34.5 12q-38 19 -60 52t-22 73v119q0 10 10 10h73q10 0 10 -10v-125q0 -18 13 -32t42 -18q9 -2 9 -10v-66z" />
    <glyph glyph-name="tilde" unicode="&#x2dc;" horiz-adv-x="500" 
d="M96 576q-4 3 -4 8q0 6 14 28q20 32 41.5 45t45.5 13q17 0 33.5 -6.5t34.5 -19.5l17 -12q6 -5 14 -8t14 -3q10 0 20 6.5t23 27.5q3 6 8 6q3 0 5.5 -2t5.5 -4l36 -29q4 -3 4 -8q0 -3 -5 -12t-13 -22q-38 -55 -84 -55q-17 0 -33 8.5t-36 20.5l-18 11q-6 4 -13 7t-13 3
q-10 0 -19.5 -6.5t-21.5 -24.5q-3 -6 -8 -6q-3 0 -14 9z" />
    <glyph glyph-name="hungarumlaut" unicode="&#x2dd;" horiz-adv-x="500" 
d="M277 523q-10 0 -10 8q0 2 1.5 8t6.5 18l43 126q2 7 9 7h83q11 0 11 -8q0 -3 -2.5 -8.5t-6.5 -10.5l-86 -135q-3 -5 -9 -5h-40zM151 523q-10 0 -10 8q0 2 1.5 8t6.5 18l43 126q2 7 9 7h83q11 0 11 -8q0 -3 -3 -8.5t-6 -10.5l-78 -135q-3 -5 -9 -5h-48z" />
    <glyph glyph-name="Delta" unicode="&#x394;" horiz-adv-x="613" 
d="M24 51q57 163 111.5 324t111.5 325h156l219 -649v-51h-598v51zM485 94q-37 113 -73.5 224.5t-74.5 223.5q-6 20 -9.5 35.5t-5.5 25.5h-4q-2 -9 -6 -25t-9 -34l-148 -450h330z" />
    <glyph glyph-name="Omega" unicode="&#x3a9;" horiz-adv-x="714" 
d="M44 94h148q-24 19 -50 45.5t-48.5 63t-37 84t-14.5 108.5q0 68 22.5 126t64 100.5t99 66.5t127.5 24q74 0 130.5 -24t95 -66t58.5 -99.5t20 -124.5q0 -56 -13 -102t-34 -83.5t-48.5 -67t-55.5 -51.5h150v-94h-246v94q20 19 42 44.5t40 59.5t30 77.5t12 98.5q0 51 -12 95
t-35 75.5t-57 49.5t-79 18q-42 0 -77 -17.5t-59.5 -49.5t-38 -76t-13.5 -98t11.5 -97t30 -76.5t40.5 -59t43 -44.5v-94h-246v94z" />
    <glyph glyph-name="mu" unicode="&#x3bc;" horiz-adv-x="478" 
d="M58 -160q-10 0 -10 10v598q0 10 10 10h95q10 0 10 -10v-271q0 -31 20.5 -51.5t50.5 -20.5q29 0 50.5 20.5t21.5 51.5v271q0 10 10 10h94q10 0 10 -10v-438q0 -10 -10 -10h-85q-10 0 -10 9q0 11 -8 11q-2 0 -3.5 -0.5t-3.5 -1.5q-16 -8 -33.5 -13t-32.5 -5q-31 0 -61 8
q-10 3 -10 -8v-150q0 -10 -10 -10h-95z" />
    <glyph glyph-name="pi" unicode="&#x3c0;" horiz-adv-x="659" 
d="M138 0q10 32 14.5 71.5t4.5 83.5v260q-21 0 -49 -6.5t-46 -16.5q-8 18 -16 37t-16 37q22 13 62.5 23.5t93.5 10.5h427v-85h-101v-259q0 -36 11.5 -58t41.5 -22q10 0 18 2.5t15 6.5l20 -74q-15 -9 -36.5 -14.5t-49.5 -5.5q-38 0 -63.5 12t-42 33t-23.5 48t-7 57v274h-124
v-269q0 -51 -4.5 -85.5t-12.5 -60.5h-117z" />
    <glyph glyph-name="endash" unicode="&#x2013;" horiz-adv-x="555" 
d="M49 200q-10 0 -10 10v66q0 10 10 10h457q10 0 10 -10v-66q0 -10 -10 -10h-457z" />
    <glyph glyph-name="emdash" unicode="&#x2014;" horiz-adv-x="813" 
d="M49 200q-10 0 -10 10v66q0 10 10 10h715q10 0 10 -10v-66q0 -10 -10 -10h-715z" />
    <glyph glyph-name="quoteleft" unicode="&#x2018;" horiz-adv-x="189" 
d="M44 426q-10 0 -10 10v69q0 58 16.5 92.5t45.5 56.5q11 8 23 14.5t15 6.5q5 0 8 -6l22 -43q2 -4 4 -7.5t2 -6.5q0 -5 -6 -8q-20 -8 -29.5 -25.5t-9.5 -31.5q0 -10 10 -10h8q10 0 10 -10v-91q0 -10 -10 -10h-99z" />
    <glyph glyph-name="quoteright" unicode="&#x2019;" horiz-adv-x="189" 
d="M25 430q-2 4 -4 7.5t-2 6.5q0 5 6 8q20 8 29.5 25.5t9.5 31.5q0 10 -10 10h-8q-10 0 -10 10v91q0 10 10 10h99q10 0 10 -10v-69q0 -58 -16.5 -92.5t-45.5 -56.5q-11 -8 -23 -14.5t-15 -6.5q-5 0 -8 6z" />
    <glyph glyph-name="quotesinglbase" unicode="&#x201a;" horiz-adv-x="189" 
d="M25 -66q-2 4 -4 7.5t-2 6.5q0 5 6 8q20 8 29.5 25.5t9.5 31.5q0 10 -10 10h-8q-10 0 -10 10v91q0 10 10 10h99q10 0 10 -10v-69q0 -58 -16.5 -92.5t-45.5 -56.5q-11 -8 -23 -14.5t-15 -6.5q-5 0 -8 6z" />
    <glyph glyph-name="quotedblleft" unicode="&#x201c;" horiz-adv-x="346" 
d="M201 426q-10 0 -10 10v69q0 58 16.5 92.5t45.5 56.5q11 8 23 14.5t15 6.5q5 0 8 -6l22 -43q2 -4 4 -7.5t2 -6.5q0 -5 -6 -8q-20 -8 -29.5 -25.5t-9.5 -31.5q0 -10 10 -10h8q10 0 10 -10v-91q0 -10 -10 -10h-99zM44 426q-10 0 -10 10v69q0 58 16.5 92.5t45.5 56.5
q11 8 23 14.5t15 6.5q5 0 8 -6l22 -43q2 -4 4 -7.5t2 -6.5q0 -5 -6 -8q-20 -8 -29.5 -25.5t-9.5 -31.5q0 -10 10 -10h8q10 0 10 -10v-91q0 -10 -10 -10h-99z" />
    <glyph glyph-name="quotedblright" unicode="&#x201d;" horiz-adv-x="346" 
d="M182 430q-2 4 -4 7.5t-2 6.5q0 5 6 8q20 8 29.5 25.5t9.5 31.5q0 10 -10 10h-8q-10 0 -10 10v91q0 10 10 10h99q10 0 10 -10v-69q0 -58 -16.5 -92.5t-45.5 -56.5q-11 -8 -23 -14.5t-15 -6.5q-5 0 -8 6zM25 430q-2 4 -4 7.5t-2 6.5q0 5 6 8q20 8 29.5 25.5t9.5 31.5
q0 10 -10 10h-8q-10 0 -10 10v91q0 10 10 10h99q10 0 10 -10v-69q0 -58 -16.5 -92.5t-45.5 -56.5q-11 -8 -23 -14.5t-15 -6.5q-5 0 -8 6z" />
    <glyph glyph-name="quotedblbase" unicode="&#x201e;" horiz-adv-x="346" 
d="M182 -66q-2 4 -4 7.5t-2 6.5q0 5 6 8q20 8 29.5 25.5t9.5 31.5q0 10 -10 10h-8q-10 0 -10 10v91q0 10 10 10h99q10 0 10 -10v-69q0 -58 -16.5 -92.5t-45.5 -56.5q-11 -8 -23 -14.5t-15 -6.5q-5 0 -8 6zM25 -66q-2 4 -4 7.5t-2 6.5q0 5 6 8q20 8 29.5 25.5t9.5 31.5
q0 10 -10 10h-8q-10 0 -10 10v91q0 10 10 10h99q10 0 10 -10v-69q0 -58 -16.5 -92.5t-45.5 -56.5q-11 -8 -23 -14.5t-15 -6.5q-5 0 -8 6z" />
    <glyph glyph-name="dagger" unicode="&#x2020;" horiz-adv-x="401" 
d="M182 -225q-10 0 -10 10l-19 531q4 23 6 37.5t2 18.5q0 8 -9 8q-2 0 -24 -2t-47.5 -4.5t-47 -4.5t-24.5 -2q-9 0 -9 10v84q0 10 10 10q2 0 24 -2t48 -4t48.5 -4t24.5 -2q9 0 9 9q0 2 -1 13.5t-2 28t-3 35.5t-3 35.5t-2 27.5t-1 12q0 10 10 10h78q10 0 10 -10q0 -2 -2 -25
t-4 -50.5t-4 -51t-2 -25.5q0 -9 9 -9q2 0 24 2t48.5 4t48 4t23.5 2q10 0 10 -10v-84q0 -10 -9 -10q-2 0 -24 2t-47.5 4.5t-47 4.5t-23.5 2q-9 0 -9 -8q0 -5 2.5 -20.5t5.5 -35.5l-19 -531q0 -10 -10 -10h-38z" />
    <glyph glyph-name="daggerdbl" unicode="&#x2021;" horiz-adv-x="401" 
d="M182 -225q-10 0 -10 10l-12 377q0 10 -10 10q-2 0 -23.5 -2t-46.5 -4t-46.5 -4t-23.5 -2q-10 0 -10 10v84q0 10 9 10q3 0 24 -2t45.5 -4t45.5 -4t23 -2q9 0 9 10q0 5 -0.5 16.5t-2.5 38.5q4 23 6 37t2 18q0 8 -9 8q-2 0 -24 -2t-47.5 -4.5t-47 -4.5t-24.5 -2q-9 0 -9 10
v84q0 10 10 10q2 0 24 -2t48 -4t48 -4t25 -2q9 0 9 9q0 3 -2 26t-4 50.5t-4 50.5t-2 25q0 10 10 10h78q10 0 10 -10q0 -3 -2 -26t-4 -50t-4 -50t-2 -26q0 -9 9 -9q2 0 24 2t48 4t48 4t24 2q10 0 10 -10v-84q0 -10 -9 -10q-3 0 -24.5 2t-47 4.5t-47 4.5t-23.5 2q-9 0 -9 -8
q0 -5 2 -18t6 -36q-2 -28 -2.5 -40t-0.5 -16q0 -10 9 -10q3 0 24 2t45.5 4t45 4t22.5 2q9 0 9 -10v-84q0 -10 -10 -10q-1 0 -11.5 1t-25.5 2t-32.5 3t-32.5 3t-25.5 2t-11.5 1q-10 0 -10 -10l-12 -377q0 -10 -10 -10h-38z" />
    <glyph glyph-name="bullet" unicode="&#x2022;" horiz-adv-x="500" 
d="M248 157q-72 0 -114.5 41t-42.5 107v20q0 66 42.5 106.5t114.5 40.5h4q72 0 114.5 -40.5t42.5 -106.5v-20q0 -66 -42.5 -107t-114.5 -41h-4z" />
    <glyph glyph-name="ellipsis" unicode="&#x2026;" horiz-adv-x="1000" 
d="M864 57q0 -27 -20 -47t-47 -20t-47 20t-20 47t20 47t47 20t47 -20t20 -47zM566 57q0 -27 -20 -47t-47 -20t-47 20t-20 47t20 47t47 20t47 -20t20 -47zM268 57q0 -27 -20 -47t-47 -20t-47 20t-20 47t20 47t47 20t47 -20t20 -47z" />
    <glyph glyph-name="perthousand" unicode="&#x2030;" horiz-adv-x="788" 
d="M543 191q0 42 27 68.5t73 26.5t73 -26.5t27 -68.5v-96q0 -42 -27 -68.5t-73 -26.5t-73 26.5t-27 68.5v96zM46 532q0 42 27 70t73 28q47 0 74 -26.5t27 -68.5v-96q0 -42 -27 -68.5t-74 -26.5q-46 0 -73 26.5t-27 68.5v93zM117 0q-10 0 -10 8q0 5 13 34l249 582q3 6 9 6h53
q10 0 10 -8q0 -4 -3 -10.5t-10 -23.5l-249 -582q-3 -6 -9 -6h-53zM301 191q0 42 27 68.5t73 26.5t73 -26.5t27 -68.5v-96q0 -42 -27 -68.5t-73 -26.5t-73 26.5t-27 68.5v96zM662 191q0 19 -19 19t-19 -19v-96q0 -19 19 -19t19 19v96zM166 535q0 8 -6 13.5t-14 5.5
q-19 0 -19 -19v-96q0 -19 19 -19q8 0 14 5.5t6 13.5v96zM420 191q0 19 -19 19t-19 -19v-96q0 -19 19 -19t19 19v96z" />
    <glyph glyph-name="guilsinglleft" unicode="&#x2039;" horiz-adv-x="343" 
d="M52 237q-4 4 -4 8v71q0 4 4 8l216 154q4 3 8 3q8 0 8 -11v-89q0 -4 -4 -8l-118 -84q-5 -3 -5 -8q0 -3 5 -8l118 -85q4 -4 4 -8v-88q0 -11 -8 -11q-4 0 -8 3z" />
    <glyph glyph-name="guilsinglright" unicode="&#x203a;" horiz-adv-x="343" 
d="M59 180q0 4 4 8l117 85q5 5 5 8t-5 8l-117 84q-4 4 -4 8v89q0 11 8 11q3 0 8 -3l216 -154q4 -4 4 -8v-71q0 -4 -4 -8l-216 -153q-5 -3 -8 -3q-8 0 -8 11v88z" />
    <glyph glyph-name="fraction" unicode="&#x2044;" horiz-adv-x="193" 
d="M-55 0q-10 0 -10 8q0 3 2 7.5t4 10.5l256 598q3 6 9 6h54q10 0 10 -8q0 -6 -5 -16l-257 -600q-3 -6 -9 -6h-54z" />
    <glyph glyph-name="Euro" unicode="&#x20ac;" horiz-adv-x="507" 
d="M264 -10q-43 0 -77.5 13t-58.5 36.5t-37 56t-13 71.5v10q0 10 -10 10h-58q-10 0 -10 10v76q0 10 10 10h58q10 0 10 10v46q0 10 -10 10h-58q-10 0 -10 10v76q0 10 10 10h58q10 0 10 10v8q0 39 13 71.5t37 56t58.5 36.5t77.5 13h49q35 0 61.5 -7.5t46 -21t34.5 -32
t28 -40.5q2 -3 4.5 -7t2.5 -9q0 -6 -6 -9l-77 -38q-2 -1 -7 -4t-8 -3q-5 0 -8 7q-14 32 -32.5 45.5t-38.5 13.5h-49q-29 0 -50.5 -21.5t-21.5 -50.5v-8q0 -10 10 -10h117q10 0 10 -10v-76q0 -10 -10 -10h-117q-10 0 -10 -10v-46q0 -10 10 -10h117q10 0 10 -10v-76
q0 -10 -10 -10h-117q-10 0 -10 -10v-10q0 -29 21.5 -50.5t50.5 -21.5h49q20 0 38.5 14t32.5 47q3 6 8 6q2 0 5.5 -1.5t5.5 -2.5l81 -40q6 -3 6 -8q0 -3 -1 -5q-12 -25 -27 -46t-35.5 -36.5t-48.5 -24t-65 -8.5h-49z" />
    <glyph glyph-name="afii61289" unicode="&#x2113;" horiz-adv-x="496" 
d="M138 232l-54 -57l-36 52l90 92v214q0 97 39 146t103 49q31 0 52.5 -11t34.5 -28.5t18.5 -38t5.5 -39.5q0 -73 -32.5 -135t-83.5 -124l-33 -38v-154q0 -52 17 -73t43 -21q23 0 43 14t34 29q8 -16 16 -31.5t16 -30.5q-22 -21 -57 -41.5t-80 -20.5q-32 0 -55 9.5t-40 26.5
q-21 21 -31 56t-10 73v82zM242 407q5 5 9.5 10.5t7.5 11.5q29 40 47 85t18 83q0 20 -8 35t-26 15q-23 0 -35.5 -22.5t-12.5 -75.5v-142z" />
    <glyph glyph-name="trademark" unicode="&#x2122;" horiz-adv-x="428" 
d="M214 360q-10 0 -10 10v168q0 10 10 10h12q6 0 9 -5l47 -81q5 -7 9 -7t9 7l47 81q3 5 9 5h12q10 0 10 -10v-168q0 -10 -10 -10h-12q-10 0 -10 10v72q0 12 -9 12q-5 0 -10 -7l-25 -41q-3 -5 -9 -5h-4q-5 0 -8 5l-27 41q-5 7 -10 7q-8 0 -8 -12v-72q0 -10 -10 -10h-12z
M97 360q-10 0 -10 10v137q0 10 -10 10h-27q-10 0 -10 10v11q0 10 10 10h106q10 0 10 -10v-11q0 -10 -10 -10h-27q-10 0 -10 -10v-137q0 -10 -10 -10h-12z" />
    <glyph glyph-name="uni2126" unicode="&#x2126;" horiz-adv-x="714" 
d="M44 94h148q-24 19 -50 45.5t-48.5 63t-37 84t-14.5 108.5q0 68 22.5 126t64 100.5t99 66.5t127.5 24q74 0 130.5 -24t95 -66t58.5 -99.5t20 -124.5q0 -56 -13 -102t-34 -83.5t-48.5 -67t-55.5 -51.5h150v-94h-246v94q20 19 42 44.5t40 59.5t30 77.5t12 98.5q0 51 -12 95
t-35 75.5t-57 49.5t-79 18q-42 0 -77 -17.5t-59.5 -49.5t-38 -76t-13.5 -98t11.5 -97t30 -76.5t40.5 -59t43 -44.5v-94h-246v94z" />
    <glyph glyph-name="estimated" unicode="&#x212e;" horiz-adv-x="663" 
d="M162 89q32 -31 71 -47.5t86 -16.5q74 0 124.5 34.5t86.5 96.5l36 -22q-44 -67 -101 -106.5t-146 -39.5q-65 0 -116.5 23.5t-87.5 64t-55.5 95t-19.5 116.5t19 116.5t55 95t88 63.5t118 23q67 0 119 -23t88 -63.5t55.5 -95t21.5 -117.5h-442v-197zM478 324v159
q-32 32 -73 49t-86 17q-94 0 -157 -65v-160h316z" />
    <glyph glyph-name="partialdiff" unicode="&#x2202;" horiz-adv-x="580" 
d="M430 431q2 14 3 28.5t1 31.5q0 75 -34.5 114t-94.5 39q-24 0 -49.5 -7.5t-45.5 -19.5q-7 20 -13 39l-12 38q22 14 58 25t78 11q51 0 92.5 -17t70.5 -50t45 -81.5t16 -111.5q0 -46 -6 -93.5t-18 -95.5q-15 -57 -40.5 -110t-60.5 -93.5t-80.5 -64.5t-100.5 -24
q-44 0 -80 14.5t-62 40.5t-40.5 62t-14.5 80q0 75 23 132.5t60 96.5t83 59t93 20q48 0 80.5 -19.5t46.5 -43.5h2zM417 341q-11 32 -35 52.5t-63 20.5q-32 0 -61 -18t-51.5 -49.5t-36 -74.5t-13.5 -92q0 -47 22.5 -75t60.5 -28q33 0 61 21t50.5 57t39.5 84t26 102z" />
    <glyph glyph-name="uni2206" unicode="&#x2206;" horiz-adv-x="613" 
d="M24 51q57 163 111.5 324t111.5 325h156l219 -649v-51h-598v51zM485 94q-37 113 -73.5 224.5t-74.5 223.5q-6 20 -9.5 35.5t-5.5 25.5h-4q-2 -9 -6 -25t-9 -34l-148 -450h330z" />
    <glyph glyph-name="product" unicode="&#x220f;" horiz-adv-x="723" 
d="M78 700h568v-930h-117v830h-335v-830h-116v930z" />
    <glyph glyph-name="summation" unicode="&#x2211;" horiz-adv-x="635" 
d="M23 -171l298 410l-279 396v65h519v-94h-376q64 -91 128 -181.5t128 -182.5l-273 -378h414v-94h-559v59z" />
    <glyph glyph-name="minus" unicode="&#x2212;" horiz-adv-x="507" 
d="M49 200q-10 0 -10 10v66q0 10 10 10h409q10 0 10 -10v-66q0 -10 -10 -10h-409z" />
    <glyph glyph-name="uni2215" unicode="&#x2215;" horiz-adv-x="193" 
d="M-55 0q-10 0 -10 8q0 3 2 7.5t4 10.5l256 598q3 6 9 6h54q10 0 10 -8q0 -6 -5 -16l-257 -600q-3 -6 -9 -6h-54z" />
    <glyph glyph-name="uni2219" unicode="&#x2219;" horiz-adv-x="507" 
d="M321 243q0 -27 -20 -47t-47 -20t-47.5 20t-20.5 47t20 47t47 20t47.5 -20t20.5 -47z" />
    <glyph glyph-name="radical" unicode="&#x221a;" horiz-adv-x="519" 
d="M250 -12l-128 316l-54 -35l-36 59l140 91l123 -309q38 155 75.5 309.5t75.5 309.5h78q-46 -186 -91 -370.5t-90 -370.5h-93z" />
    <glyph glyph-name="infinity" unicode="&#x221e;" horiz-adv-x="789" 
d="M388 224q-32 -45 -76.5 -75.5t-101.5 -30.5q-35 0 -66.5 11.5t-55 34t-37.5 54.5t-14 73q0 40 14 72.5t37.5 54.5t54.5 34t66 12q62 0 106 -31.5t73 -74.5h2q12 18 29 36.5t39.5 34t50 25.5t59.5 10q37 0 69 -12.5t55.5 -35t36.5 -54t13 -68.5q0 -38 -12.5 -70
t-35.5 -55.5t-54.5 -37t-68.5 -13.5q-57 0 -103.5 29t-77.5 77h-2zM653 293q0 38 -22.5 65t-69.5 27q-42 0 -72 -25.5t-57 -67.5q25 -44 58 -69.5t71 -25.5q23 0 40.5 8t29 21.5t17 30.5t5.5 36zM346 292q-25 40 -58.5 66.5t-71.5 26.5q-45 0 -67.5 -28t-22.5 -66
q0 -40 25 -67t66 -27t73.5 28.5t55.5 66.5z" />
    <glyph glyph-name="integral" unicode="&#x222b;" horiz-adv-x="493" 
d="M181 559q0 42 10.5 77.5t32 60.5t54 39t76.5 14q23 0 47 -5t35 -10l-24 -82q-8 3 -19 6t-24 3q-73 0 -73 -91v-613q0 -85 -42 -137.5t-129 -52.5q-20 0 -44.5 4t-36.5 10l20 82q9 -3 19.5 -5.5t24.5 -2.5q36 0 54.5 23t18.5 67v613z" />
    <glyph glyph-name="approxequal" unicode="&#x2248;" horiz-adv-x="557" 
d="M52 397q23 35 54 60.5t78 25.5q29 0 53.5 -8t47.5 -23q26 -15 45.5 -23t40.5 -8q26 0 45.5 19.5t33.5 44.5l56 -64q-25 -39 -55.5 -62.5t-75.5 -23.5q-26 0 -52.5 7.5t-50.5 23.5q-20 13 -41 22t-44 9q-26 0 -46 -21t-33 -44zM52 172q23 35 54 60.5t78 25.5q29 0 53.5 -8
t47.5 -23q26 -15 45.5 -23t40.5 -8q26 0 45.5 19.5t33.5 44.5l56 -64q-25 -39 -55.5 -62.5t-75.5 -23.5q-26 0 -52.5 7.5t-50.5 23.5q-20 13 -41 22t-44 9q-26 0 -46 -21t-33 -44z" />
    <glyph glyph-name="notequal" unicode="&#x2260;" horiz-adv-x="557" 
d="M165 141h-88v86h125l61 140h-186v86h223l54 125h93l-55 -125h89v-86h-126l-61 -140h187v-86h-223l-50 -114h-93z" />
    <glyph glyph-name="lessequal" unicode="&#x2264;" horiz-adv-x="557" 
d="M77 86h404v-86h-404v86zM77 321v73l404 182v-91l-294 -127v-2l294 -127v-90z" />
    <glyph glyph-name="greaterequal" unicode="&#x2265;" horiz-adv-x="557" 
d="M77 86h404v-86h-404v86zM77 230l294 127v2l-294 127v90l404 -181v-74l-404 -182v91z" />
    <glyph glyph-name="lozenge" unicode="&#x25ca;" horiz-adv-x="564" 
d="M241 0l-201 349l201 351h55l202 -350l-202 -350h-55zM269 599l-142 -249q35 -63 70.5 -124.5t71.5 -124.5l142 249z" />
    <glyph glyph-name="uniE503" unicode="&#xe503;" horiz-adv-x="500" 
d="M188 540q-2 4 -2 7q0 5 3 8l7 9q11 18 16.5 46t5.5 58v21q0 9 7 9h67q7 0 7 -9v-22q0 -54 -17.5 -96t-58.5 -68q-2 -1 -5 -1q-6 0 -7 4z" />
    <glyph glyph-name="uniE504" unicode="&#xe504;" horiz-adv-x="500" 
d="M188 517q-9 0 -9 9v23q0 53 22 98t73 71q4 2 7 2q4 0 8 -4l29 -47q2 -4 2 -6q0 -5 -4 -8q-17 -25 -26 -47.5t-9 -59.5v-22q0 -9 -9 -9h-84z" />
    <glyph glyph-name="uniF6C3" unicode="&#xf6c3;" horiz-adv-x="500" 
d="M171 -201q-2 2 -2 7t3 8l8 9q14 18 21 43t7 55v21q0 9 9 9h83q9 0 9 -9v-22q0 -54 -22 -99t-73 -71q-2 -1 -6 -1q-6 0 -9 4z" />
    <glyph glyph-name="uniFB01" unicode="&#xfb01;" horiz-adv-x="502" 
d="M454 573q0 -27 -20 -47t-47 -20t-46.5 20t-19.5 47t19.5 47t46.5 20t47 -20t20 -47zM340 0q-10 0 -10 10v438q0 10 10 10h95q10 0 10 -10v-438q0 -10 -10 -10h-95zM82 0q-10 0 -10 10v290q0 10 -10 10h-23q-10 0 -10 10v85q0 10 10 10h23q10 0 10 10v28q0 60 36 108
t98 68q17 5 32.5 7.5t23.5 2.5q10 0 10 -10v-85q0 -10 -9 -10q-39 -3 -57.5 -23.5t-18.5 -47.5v-38q0 -10 10 -10h65q10 0 10 -10v-85q0 -10 -10 -10h-65q-10 0 -10 -10v-290q0 -10 -10 -10h-95z" />
    <glyph glyph-name="uniFB02" unicode="&#xfb02;" horiz-adv-x="506" 
d="M82 0q-10 0 -10 10v290q0 10 -10 10h-23q-10 0 -10 10v85q0 10 10 10h23q10 0 10 10v19q0 39 14.5 72.5t40 59t59 40t72.5 14.5h180q10 0 10 -10v-610q0 -10 -10 -10h-95q-10 0 -10 10v505q0 10 -10 10h-65q-30 0 -50.5 -21t-20.5 -51v-28q0 -10 10 -10h65q10 0 10 -10
v-85q0 -10 -10 -10h-65q-10 0 -10 -10v-290q0 -10 -10 -10h-95z" />
    </font>
</defs>
</svg>
